<svg width="130" height="130" viewBox="0 0 130 130" fill="none" xmlns="http://www.w3.org/2000/svg">
<g clip-path="url(#clip0)">
<path d="M104.751 40.851V123.598C104.751 126.069 102.802 128.069 100.4 128.069H29.6005C27.1961 128.069 25.25 126.069 25.25 123.598V40.851C25.25 38.3823 27.1961 36.3795 29.6005 36.3795H100.4C102.802 36.3795 104.751 38.3823 104.751 40.851Z" fill="#5DE1C4"/>
<path d="M104.751 57.5811V123.598C104.751 126.069 102.802 128.069 100.4 128.069H29.6005C27.1961 128.069 25.25 126.069 25.25 123.598V57.5811H104.751Z" fill="#037E73"/>
<path d="M104.751 65.3038V123.598C104.751 126.069 102.802 128.069 100.4 128.069H29.6005C27.1961 128.069 25.25 126.069 25.25 123.598V65.3038H104.751Z" fill="#01998D"/>
<path d="M25.2502 84.08V123.962H14.6505C11.7222 123.962 9.35059 121.648 9.35059 118.794V98.2041C9.35059 96.569 10.1429 95.0321 11.4864 94.057L25.2502 84.08Z" fill="#008B81"/>
<path d="M25.2502 105.794V123.962H14.6505C11.7222 123.962 9.35059 121.649 9.35059 118.795V106.758C11.6481 109.098 16.2272 110.58 25.2502 105.794Z" fill="#5DE1C4"/>
<path d="M104.75 84.08V123.962H115.349C118.278 123.962 120.649 121.648 120.649 118.794V98.2041C120.649 96.569 119.857 95.0321 118.513 94.057L104.75 84.08Z" fill="#008B81"/>
<path d="M104.75 105.794V123.962H115.349C118.278 123.962 120.649 121.649 120.649 118.795V106.758C118.352 109.098 113.773 110.58 104.75 105.794Z" fill="#5DE1C4"/>
<path d="M116.276 21.459V38.0527C116.276 42.9824 112.422 46.9802 107.665 46.9802H22.3361C17.5789 46.9802 13.7227 42.9824 13.7227 38.0527V21.459C13.7227 16.5267 17.5789 12.5315 22.3361 12.5315H107.665C112.422 12.5315 116.276 16.5267 116.276 21.459Z" fill="#A44F3E"/>
<path d="M116.276 27.6372V38.0527C116.276 42.9824 112.422 46.9802 107.665 46.9802H22.3361C17.5789 46.9802 13.7227 42.9824 13.7227 38.0527V27.6372C13.7227 22.705 17.5789 18.7097 22.3361 18.7097H107.665C112.422 18.7097 116.276 22.705 116.276 27.6372Z" fill="#BB5D4C"/>
<path d="M30.948 21.4583V38.0527C30.948 42.9835 27.0923 46.9802 22.3356 46.9802C17.5789 46.9802 13.7231 42.9835 13.7231 38.0527V21.4583C13.7231 16.5276 17.5789 12.5308 22.3356 12.5308C27.0923 12.5308 30.948 16.5276 30.948 21.4583Z" fill="#D8AA5E"/>
<path d="M116.277 21.4583V38.0527C116.277 42.9835 112.421 46.9802 107.664 46.9802C102.907 46.9802 99.0518 42.9835 99.0518 38.0527V21.4583C99.0518 16.5276 102.907 12.5308 107.664 12.5308C112.421 12.5305 116.277 16.5276 116.277 21.4583Z" fill="#D8AA5E"/>
<path d="M91.4993 36.3805H38.5V32.1857C38.5 30.1117 40.1812 28.4304 42.2553 28.4304H87.7443C89.8183 28.4304 91.4996 30.1117 91.4996 32.1857V36.3805H91.4993Z" fill="#D7D0D6"/>
<path d="M43.9513 73.4799C41.1826 73.6632 38.4941 71.2797 38.5 68.3314V36.3805H49.0998V68.3317C49.0998 71.1749 46.7948 73.4799 43.9513 73.4799Z" fill="#E8AD8C"/>
<path d="M50.4546 65.5302H37.1452C36.4298 65.5302 35.8501 64.9502 35.8501 64.235V58.8754C35.8501 58.16 36.4301 57.5803 37.1452 57.5803H50.4546C51.17 57.5803 51.7497 58.1603 51.7497 58.8754V64.235C51.7497 64.9502 51.17 65.5302 50.4546 65.5302Z" fill="#D7D0D6"/>
<path d="M86.3509 73.4799C83.5823 73.6632 80.8938 71.2797 80.8994 68.3314V36.3805H91.4992V68.3317C91.4994 71.1749 89.1944 73.4799 86.3509 73.4799Z" fill="#E8AD8C"/>
<path d="M92.8545 65.5302H79.5451C78.8297 65.5302 78.25 64.9502 78.25 64.235V58.8754C78.25 58.16 78.83 57.5803 79.5451 57.5803H92.8545C93.5699 57.5803 94.1496 58.1603 94.1496 58.8754V64.235C94.1496 64.9502 93.5699 65.5302 92.8545 65.5302Z" fill="#D7D0D6"/>
<path d="M96.1939 100.285V117.713C96.1939 119.628 94.6416 121.181 92.7264 121.181H37.6218C35.7066 121.181 34.1543 119.628 34.1543 117.713V100.285C34.1543 91.3347 41.4086 84.0804 50.3592 84.0804H79.989C88.9396 84.0804 96.1939 91.3347 96.1939 100.285Z" fill="#9CF8D2"/>
<path d="M96.1939 106.69V117.713C96.1939 119.628 94.6416 121.181 92.7264 121.181H37.6218C35.7066 121.181 34.1543 119.628 34.1543 117.713V106.69C34.1543 97.7394 41.4086 90.4851 50.3592 90.4851H79.989C88.9396 90.4851 96.1939 97.7394 96.1939 106.69Z" fill="#C2FAE3"/>
<path d="M65.2876 107.237H83.8374V114.062H65.2876V107.237Z" fill="#FFF6CE"/>
<path d="M98.0809 99.0883C97.4623 89.6444 89.5869 82.1492 79.9893 82.1492H50.3593C40.7838 82.1492 32.9231 89.6101 32.2726 99.0234C32.1928 99.3774 32.2237 99.9411 32.2237 100.285V117.713C32.2237 120.689 34.645 123.11 37.6211 123.11H92.727C95.7033 123.11 98.1244 120.689 98.1244 117.713V100.285C98.1249 99.954 98.1537 99.4268 98.0809 99.0883ZM50.3593 86.0106H79.9893C86.9292 86.0106 92.7254 90.9899 93.9999 97.5628L45.0486 97.527C44.9964 97.5226 44.9441 97.519 44.8908 97.519C44.8391 97.519 44.7881 97.5229 44.7374 97.5267L36.3561 97.5206C37.6474 90.9683 43.4343 86.0106 50.3593 86.0106ZM92.7272 119.249H37.6214C36.7742 119.249 36.0853 118.559 36.0853 117.713V101.382L42.9601 101.387V107.066C42.9601 108.133 43.8245 108.997 44.8908 108.997C45.9571 108.997 46.8215 108.133 46.8215 107.066V101.39L94.2635 101.424V117.713C94.2635 118.56 93.5744 119.249 92.7272 119.249Z" fill="black"/>
<path d="M16.5607 104.129C17.605 104.129 18.4515 103.282 18.4515 102.238C18.4515 101.194 17.605 100.347 16.5607 100.347C15.5165 100.347 14.6699 101.194 14.6699 102.238C14.6699 103.282 15.5165 104.129 16.5607 104.129Z" fill="black"/>
<path d="M119.647 92.4939L106.681 83.0957V74.5248C106.681 73.4585 105.817 72.5941 104.751 72.5941C103.685 72.5941 102.82 73.4585 102.82 74.5248L102.819 123.624C102.805 125.013 101.726 126.139 100.4 126.139H29.6002C28.2686 126.139 27.1848 125.003 27.181 123.606L27.1807 59.5117H33.9196V64.2349C33.9196 65.8168 35.0651 67.1335 36.5695 67.4062C36.1347 77.9238 50.7128 77.8206 51.0307 68.3314V67.4062C52.5351 67.1335 53.6806 65.8168 53.6806 64.2349V59.5117H76.3189V64.2349C76.3189 65.8168 77.4644 67.1335 78.9688 67.4062V68.3314C79.562 78.2067 93.2521 77.2401 93.43 68.3314V67.4062C94.9344 67.1335 96.0799 65.8168 96.0799 64.2349V59.5117H102.82V65.5149C102.82 66.5811 103.684 67.4455 104.751 67.4455C105.817 67.4455 106.681 66.5811 106.681 65.5149V48.9109C112.74 49.4167 118.244 44.4034 118.207 38.0524V21.4582C118.207 15.471 113.478 10.5998 107.664 10.5998H82.8302V6.83079C82.8307 3.0644 79.7663 0 76 0H54.0003C50.234 0 47.1696 3.0644 47.1696 6.83079V10.5998H22.3357C17.4304 10.5998 13.297 14.0675 12.1252 18.7478C11.9081 19.6146 11.7926 20.5228 11.7926 21.4582V38.0524C11.7926 41.5521 13.4102 44.6683 15.9139 46.6553C16.7472 47.3056 17.7334 47.918 19.2038 48.4215C20.1908 48.7358 21.5196 48.9701 23.3193 48.9106V83.0947L10.3525 92.4941C8.5163 93.8268 7.41992 95.9614 7.41992 98.2038V118.794C7.41992 122.708 10.6637 125.892 14.6505 125.892H23.7381C24.6453 128.292 26.9302 129.999 29.6005 129.999H100.4C103.071 129.999 105.356 128.292 106.263 125.892H115.349C119.336 125.892 122.58 122.708 122.58 118.794V98.2038C122.58 95.9616 121.484 93.8273 119.647 92.4939ZM30.389 14.4611H99.6113C98.0598 16.3525 97.1217 18.7941 97.1217 21.4582V38.0527C97.1217 40.7168 98.0598 43.1582 99.6113 45.0495H93.4305V36.3804V32.1859C93.4305 29.0508 90.8797 26.5002 87.7445 26.5002H58.6101C57.5438 26.5002 56.6794 27.3646 56.6794 28.4309C56.6794 29.4971 57.5438 30.3616 58.6101 30.3616H87.7448C88.7508 30.3616 89.5694 31.1799 89.5694 32.1859V34.4497H40.4312V32.1859C40.4312 31.1799 41.2498 30.3616 42.2558 30.3616H49.6002C50.6664 30.3616 51.5309 29.4971 51.5309 28.4309C51.5309 27.3646 50.6664 26.5002 49.6002 26.5002H42.2558C39.1206 26.5002 36.5698 29.0508 36.5698 32.1859V36.3804V45.0495H30.389C31.9405 43.1582 32.8786 40.7168 32.8786 38.0527V21.4582C32.8786 18.7941 31.9405 16.3525 30.389 14.4611ZM78.9694 38.3111V45.0495H51.0309V38.3111H78.9694ZM89.5691 38.3111V55.6495H82.8307V38.3111H89.5691ZM40.4312 38.3111H47.1696V55.6495H40.4312V38.3111ZM51.0309 55.6503V48.9109H78.9694V55.6503H51.0309ZM47.1696 68.3314C46.7636 73.2237 39.7529 72.1461 40.4312 67.4607H47.1696V68.3314ZM49.8198 63.5993H49.1005H38.5007H37.7815V59.5117H49.82V63.5993H49.8198ZM89.5691 68.3314C89.3861 72.6672 82.9904 72.4769 82.8307 68.3314V67.4607H89.5691V68.3314ZM92.2191 63.5993H91.4998H80.9001H80.1808V59.5117H92.2193V63.5993H92.2191ZM102.82 55.6503H93.4305V48.9109H102.82V55.6503ZM114.346 21.4582V38.0524C113.741 47.7836 101.197 46.8157 100.983 38.0524V21.4582C100.983 17.6002 103.98 14.4611 107.665 14.4611C111.349 14.4611 114.346 17.6002 114.346 21.4582ZM51.0309 6.83079C51.0309 5.19356 52.3631 3.86139 54.0003 3.86139H75.9997C77.6369 3.86139 78.9691 5.19356 78.9691 6.83079V10.5998H51.0307V6.83079H51.0309ZM21.9923 45.0405C18.4668 44.8528 15.6539 41.7902 15.6539 38.0527V21.4582C15.6539 17.6002 18.6514 14.4611 22.3357 14.4611C26.02 14.4611 29.0172 17.6002 29.0172 21.4582V38.0527C29.0308 41.9015 25.822 45.2457 21.9923 45.0405ZM36.5698 48.9109V55.6503H27.181V48.9109H36.5698ZM12.6199 95.62L23.3196 87.864V104.613C19.2533 106.623 14.2852 108.175 11.2816 105.89V98.2041C11.2813 97.1944 11.782 96.2281 12.6199 95.62ZM11.2813 118.795V110.26C14.9648 111.615 19.4026 110.557 23.3193 108.866V122.031H14.6508C12.7929 122.031 11.2813 120.579 11.2813 118.795ZM117.38 95.6195C118.218 96.2281 118.719 97.1944 118.719 98.2043V105.89C115.716 108.176 110.748 106.624 106.682 104.614V87.8651L117.38 95.6195ZM118.719 118.795C118.719 120.579 117.207 122.031 115.35 122.031H106.682V108.866C110.599 110.557 115.037 111.615 118.719 110.259V118.795H118.719Z" fill="black"/>
<path d="M113.53 104.129C114.575 104.129 115.421 103.282 115.421 102.238C115.421 101.194 114.575 100.347 113.53 100.347C112.486 100.347 111.64 101.194 111.64 102.238C111.64 103.282 112.486 104.129 113.53 104.129Z" fill="black"/>
<path d="M83.838 105.306H65.2881C64.2219 105.306 63.3574 106.17 63.3574 107.237V114.062C63.3574 115.128 64.2219 115.993 65.2881 115.993H83.838C84.9042 115.993 85.7687 115.128 85.7687 114.062V107.237C85.7687 106.17 84.9042 105.306 83.838 105.306ZM81.9073 112.132H67.2188V109.167H81.9073V112.132Z" fill="black"/>
</g>
<defs>
<clipPath id="clip0">
<rect width="130" height="130" fill="white"/>
</clipPath>
</defs>
</svg>
