<svg width="130" height="130" viewBox="0 0 130 130" fill="none" xmlns="http://www.w3.org/2000/svg">
<path d="M95.4688 77.9822V97.2537C95.4686 100.013 94.3726 102.658 92.4218 104.609C90.4709 106.56 87.8251 107.656 85.0662 107.656H16.4963C13.7374 107.656 11.0916 106.56 9.14075 104.609C7.18993 102.658 6.0939 100.013 6.09375 97.2537V94.7807C6.0935 65.7845 12.3019 37.1243 24.3014 10.7275L26.4062 6.09375H75.5244C77.7526 6.09371 79.9189 6.82647 81.6895 8.1791C83.4602 9.53173 84.7368 11.4291 85.3227 13.5789L88.3111 24.5375C93.0616 41.9551 95.4687 59.9284 95.4688 77.9822Z" fill="#EEDC9A"/>
<path d="M88.3111 24.5375L85.3227 13.5789C84.8116 11.7042 83.7735 10.0155 82.3316 8.713C80.8896 7.41053 79.1043 6.54899 77.1875 6.23061V6.09375H58.9062V22.3438H68.2038C59.3728 45.4733 54.845 70.0226 54.8438 94.7807V97.2537C54.8438 100.013 55.9398 102.659 57.8906 104.609C59.8415 106.56 62.4874 107.656 65.2463 107.656H85.0662C87.8251 107.656 90.471 106.56 92.4219 104.609C94.3727 102.659 95.4687 100.013 95.4687 97.2537V77.9822C95.4687 59.9284 93.0616 41.9551 88.3111 24.5375Z" fill="#E88604"/>
<path d="M65 24.375C65 25.9912 65.642 27.5411 66.7848 28.6839C67.9276 29.8267 69.4776 30.4688 71.0938 30.4688H16.25C14.6338 30.4688 13.0839 29.8267 11.9411 28.6839C10.7983 27.5411 10.1562 25.9912 10.1562 24.375V16.25C10.1562 13.5564 11.2263 10.9731 13.1309 9.06845C15.0356 7.16378 17.6189 6.09375 20.3125 6.09375H75.1562C72.4626 6.09375 69.8794 7.16378 67.9747 9.06845C66.07 10.9731 65 13.5564 65 16.25V24.375Z" fill="#ECE9C0"/>
<path d="M65 18.2812H77.1875V24.375C77.1875 25.9912 76.5455 27.5411 75.4027 28.6839C74.2599 29.8267 72.7099 30.4688 71.0938 30.4688C69.4776 30.4688 67.9276 29.8267 66.7848 28.6839C65.642 27.5411 65 25.9912 65 24.375V18.2812Z" fill="#EEBE33"/>
<path d="M26.4063 71.0938C26.4062 75.1211 27.1552 79.1134 28.6149 82.8669L35.5888 100.8C37.0722 104.614 39.6735 107.892 43.0516 110.203C46.4298 112.514 50.4272 113.75 54.5201 113.75H95.7924C99.8853 113.75 103.883 112.514 107.261 110.203C110.639 107.892 113.24 104.614 114.724 100.8L121.698 82.8669C123.157 79.1134 123.906 75.1211 123.906 71.0938H26.4063Z" fill="#379EC3"/>
<path d="M123.906 71.0938C123.906 74.7525 119.166 78.0889 111.376 80.6102C102.454 83.4971 89.5324 85.3125 75.1562 85.3125C60.7801 85.3125 47.8588 83.4971 38.9365 80.6102C31.1467 78.0889 26.4062 74.7525 26.4062 71.0938C26.4062 63.2404 48.232 56.875 75.1562 56.875C102.08 56.875 123.906 63.2404 123.906 71.0938Z" fill="#8ACCE7"/>
<path d="M111.719 79.2188C111.715 79.703 111.597 80.1795 111.376 80.6102C102.454 83.4971 89.5324 85.3125 75.1562 85.3125C60.7801 85.3125 47.8588 83.4971 38.9365 80.6102C38.7152 80.1795 38.5978 79.703 38.5938 79.2188C38.5938 73.6099 54.9631 69.0625 75.1562 69.0625C95.3494 69.0625 111.719 73.6099 111.719 79.2188Z" fill="#EEDC9A"/>
<path d="M92.4885 41.6245L108.656 15.1684C109.471 13.8354 110.779 12.8782 112.296 12.5055C113.813 12.1328 115.416 12.3746 116.756 13.1784C117.426 13.5806 118.01 14.1115 118.474 14.7406C118.938 15.3696 119.273 16.0843 119.46 16.8435C119.646 17.6026 119.681 18.3912 119.561 19.1637C119.441 19.9361 119.17 20.6773 118.762 21.3443L102.595 47.8004C101.78 49.1334 100.472 50.0906 98.9544 50.4633C97.4373 50.836 95.8343 50.5942 94.4947 49.7904C93.8244 49.3882 93.2403 48.8573 92.7762 48.2283C92.3121 47.5992 91.9772 46.8845 91.7907 46.1254C91.6041 45.3662 91.5698 44.5777 91.6895 43.8052C91.8093 43.0327 92.0808 42.2915 92.4885 41.6245Z" fill="#A6B2BC"/>
<path d="M83.2812 107.656L99.5563 106.177C100.326 106.107 101.103 106.198 101.835 106.445C102.568 106.691 103.242 107.088 103.813 107.609C104.384 108.131 104.84 108.766 105.152 109.473C105.464 110.181 105.625 110.945 105.625 111.719C105.625 112.492 105.464 113.257 105.152 113.964C104.84 114.672 104.384 115.307 103.813 115.828C103.242 116.349 102.568 116.746 101.835 116.993C101.103 117.24 100.326 117.331 99.5563 117.261L83.2812 115.781V107.656Z" fill="#966342"/>
<path d="M85.3125 99.5312H26.4062C19.6753 99.5312 14.2188 104.988 14.2188 111.719V111.719C14.2188 118.45 19.6753 123.906 26.4062 123.906H85.3125C92.0435 123.906 97.5 118.45 97.5 111.719C97.5 104.988 92.0435 99.5312 85.3125 99.5312Z" fill="#723024"/>
<path d="M26.4062 123.906C33.1372 123.906 38.5938 118.45 38.5938 111.719C38.5938 104.988 33.1372 99.5312 26.4062 99.5312C19.6753 99.5312 14.2188 104.988 14.2188 111.719C14.2188 118.45 19.6753 123.906 26.4062 123.906Z" fill="#984E3C"/>
<path d="M24.3917 116.149L12.1625 117.261C11.3924 117.331 10.6161 117.24 9.88328 116.993C9.15042 116.746 8.47702 116.349 7.90602 115.828C7.33502 115.307 6.87896 114.672 6.56693 113.964C6.2549 113.257 6.09375 112.492 6.09375 111.719C6.09375 110.945 6.2549 110.181 6.56694 109.473C6.87897 108.766 7.33502 108.131 7.90602 107.609C8.47702 107.088 9.15042 106.691 9.88329 106.445C10.6161 106.198 11.3924 106.107 12.1625 106.177L24.3917 107.288C25.4972 107.389 26.5253 107.899 27.2739 108.719C28.0224 109.539 28.4375 110.609 28.4375 111.719C28.4375 112.829 28.0224 113.899 27.2739 114.719C26.5253 115.538 25.4972 116.048 24.3917 116.149Z" fill="#AD7D4D"/>
<path d="M8.87743 100.721C8.38028 99.6329 8.1238 98.4501 8.1255 97.2535V94.7801C8.12037 73.6286 11.4582 52.6093 18.0154 32.5H62.4955C60.6289 38.3612 59.013 44.3502 57.6837 50.3413L61.6498 51.2213C63.0462 44.9273 64.7687 38.6376 66.7672 32.5H71.0942C73.2484 32.4976 75.3136 31.6408 76.8368 30.1176C78.36 28.5944 79.2168 26.5291 79.2192 24.375V18.2813C79.2193 18.0145 79.1667 17.7504 79.0646 17.5039C78.9626 17.2575 78.8129 17.0335 78.6243 16.8449C78.4357 16.6563 78.2118 16.5067 77.9653 16.4046C77.7189 16.3025 77.4547 16.25 77.188 16.25H67.0317C67.0342 14.0959 67.891 12.0306 69.4142 10.5074C70.9374 8.98422 73.0026 8.12742 75.1567 8.125H75.5245C77.3061 8.12796 79.0376 8.71517 80.4535 9.79662C81.8693 10.8781 82.8914 12.394 83.3631 14.1121L86.3522 25.0721C87.0611 27.6711 87.7271 30.3232 88.3318 32.9549L92.2912 32.0451C91.6743 29.3604 90.9948 26.6547 90.2716 24.0032L87.2825 13.0432C86.575 10.4661 85.0418 8.19213 82.918 6.56997C80.7942 4.94781 78.1969 4.06697 75.5245 4.0625H20.313C17.0818 4.06615 13.984 5.35136 11.6992 7.63617C9.41436 9.92098 8.12915 13.0188 8.1255 16.25V24.375C8.12768 26.1119 8.68543 27.8026 9.71721 29.1998C10.749 30.597 12.2007 31.6275 13.8601 32.1407C7.36237 52.3853 4.05708 73.5183 4.063 94.7801V97.2535C4.06043 99.0307 4.44141 100.787 5.17992 102.404L8.87743 100.721ZM75.1567 20.3125V24.375C75.1567 25.4524 74.7287 26.4858 73.9669 27.2476C73.205 28.0095 72.1717 28.4375 71.0942 28.4375C70.0168 28.4375 68.9835 28.0095 68.2216 27.2476C67.4598 26.4858 67.0317 25.4524 67.0317 24.375V20.3125H75.1567ZM12.188 24.375V16.25C12.1904 14.0959 13.0472 12.0306 14.5704 10.5074C16.0936 8.98422 18.1589 8.12742 20.313 8.125H66.0801C64.0749 10.3559 62.9667 13.2503 62.9692 16.25V24.375C62.9675 25.8017 63.3437 27.2034 64.0596 28.4375H16.2505C15.1734 28.4363 14.1408 28.0079 13.3792 27.2463C12.6176 26.4847 12.1892 25.4521 12.188 24.375Z" fill="black"/>
<path d="M106.087 58.0155L105.163 61.9714C117.498 64.8556 121.875 68.6882 121.875 71.0937C121.875 73.1618 118.94 75.5617 113.512 77.6822C112.564 74.6611 108.748 72.1632 102.129 70.2423L100.996 74.1439C106.638 75.7809 109.376 77.7567 109.661 79.0069C101.591 81.4626 89.8055 83.2812 75.1563 83.2812C60.5063 83.2812 48.7208 81.4624 40.6504 79.0065C41.0563 77.0895 46.8494 73.8324 59.1838 72.1309L58.6287 68.1066C52.4401 68.9603 47.1807 70.2844 43.4193 71.9358C39.7128 73.563 37.4957 75.4909 36.8008 77.6825C31.373 75.5619 28.4375 73.1619 28.4375 71.0937C28.4375 70.2374 29.1354 67.1951 38.1156 63.9997C44.9563 61.5656 54.5486 59.865 65.1254 59.2113L64.8747 55.1565C53.9293 55.833 43.9424 57.6144 36.7537 60.1723C26.5225 63.8129 24.375 68.1208 24.375 71.0937C24.3719 75.3732 25.1678 79.6157 26.7218 83.603L30.8325 94.1736L34.6188 92.7013L30.5081 82.1307C30.0441 80.9366 29.6556 79.7145 29.3451 78.4716C31.9502 80.2126 35.5561 81.7679 40.1161 83.0978C49.5034 85.8359 61.9475 87.3437 75.1563 87.3437C88.365 87.3437 100.809 85.8359 110.196 83.0978C114.756 81.7679 118.362 80.2126 120.967 78.4716C120.657 79.7145 120.268 80.9366 119.804 82.1307L112.831 100.063C112.17 101.764 111.259 103.355 110.126 104.786L113.311 107.308C114.695 105.56 115.81 103.614 116.617 101.536L123.591 83.603C125.145 79.6157 125.941 75.3732 125.938 71.0937C125.938 63.753 113.501 59.749 106.087 58.0155Z" fill="black"/>
<path d="M89.9631 42.2939C79.9856 45.9224 71.7706 53.2245 66.9973 62.7077L61.1523 74.395L64.7859 76.2121L70.6311 64.5242C74.6868 56.4679 81.5053 50.1396 89.8412 46.6951C89.9429 47.0906 90.0746 47.4779 90.2351 47.8535C84.6321 52.5708 79.5971 59.0008 75.9456 66.1422L69.966 77.7584L73.578 79.6178L79.5602 67.9967C82.9494 61.3682 87.591 55.4175 92.7424 51.0541C92.9696 51.2258 93.2057 51.3854 93.4498 51.5322C93.7202 51.6931 94 51.8378 94.2877 51.9654C93.4746 53.4884 92.6267 55.0729 91.7441 56.7187C89.5287 60.8537 87.2463 65.1404 84.8969 69.5786L80.2907 78.2673L83.8801 80.1702L88.4892 71.4759C90.826 67.0347 93.1046 62.7552 95.3249 58.6372C96.3749 56.6775 97.3844 54.7931 98.3368 53.0064C98.7512 59.9655 97.1956 66.9004 93.8484 73.0157L90.9958 78.2461L94.5623 80.1914L97.4147 74.9614C101.401 67.6806 103.093 59.3641 102.266 51.1045C103.093 50.4975 103.793 49.7349 104.328 48.8596L120.495 22.4034C121.594 20.6036 121.934 18.4409 121.439 16.391C120.944 14.3411 119.654 12.5717 117.855 11.4721C116.056 10.3724 113.893 10.0324 111.843 10.527C109.793 11.0215 108.023 12.31 106.923 14.1092L90.7553 40.5654C90.4236 41.1081 90.1576 41.6883 89.9631 42.2939ZM94.2218 42.6837L110.389 16.2276C110.656 15.7912 111.005 15.4115 111.418 15.1103C111.831 14.8091 112.299 14.5923 112.796 14.4721C113.293 14.352 113.809 14.3309 114.314 14.4102C114.819 14.4894 115.303 14.6674 115.739 14.934C116.176 15.2005 116.555 15.5504 116.856 15.9637C117.157 16.3769 117.373 16.8454 117.493 17.3423C117.613 17.8393 117.633 18.355 117.554 18.8599C117.474 19.3649 117.296 19.8491 117.029 20.2851L100.861 46.7412C100.595 47.1776 100.246 47.5572 99.8326 47.8584C99.4195 48.1597 98.9512 48.3765 98.4544 48.4967C97.9575 48.6168 97.4418 48.6378 96.9368 48.5586C96.4318 48.4794 95.9474 48.3014 95.5112 48.0348C95.0751 47.7683 94.6957 47.4184 94.3948 47.0051C94.0939 46.5919 93.8774 46.1234 93.7576 45.6264C93.6379 45.1295 93.6172 44.6138 93.6969 44.1089C93.7765 43.6039 93.9549 43.1196 94.2218 42.6837Z" fill="black"/>
<path d="M105.184 106.111C104.404 105.4 103.484 104.859 102.484 104.522C101.484 104.185 100.424 104.059 99.3729 104.153L97.4546 104.327C96.1861 102.244 94.403 100.521 92.2767 99.3256C90.1503 98.1299 87.7522 97.5013 85.3127 97.5H26.4064C23.9661 97.5007 21.5669 98.1291 19.4396 99.3248C17.3123 100.52 15.5283 102.243 14.2591 104.328L12.3466 104.154C11.3241 104.061 10.2934 104.176 9.3167 104.493C8.34001 104.809 7.43762 105.32 6.66405 105.995C5.89049 106.67 5.26181 107.495 4.81599 108.42C4.37017 109.345 4.11647 110.351 4.07021 111.376C4.02396 112.402 4.18611 113.426 4.54687 114.388C4.90762 115.349 5.4595 116.227 6.16916 116.969C6.87882 117.711 7.73152 118.301 8.67576 118.705C9.62 119.108 10.6362 119.315 11.6629 119.315C11.8901 119.315 12.1185 119.304 12.3465 119.284L14.2589 119.11C15.5342 121.189 17.3196 122.907 19.4456 124.102C21.5716 125.297 23.9676 125.929 26.4064 125.937H85.3127C87.1805 125.943 89.0309 125.578 90.7566 124.863C92.4823 124.148 94.049 123.098 95.3658 121.773C96.1681 120.972 96.8722 120.078 97.4633 119.111L99.3755 119.285C99.6043 119.305 99.837 119.316 100.067 119.316C101.598 119.314 103.093 118.85 104.356 117.984C105.618 117.119 106.59 115.892 107.143 114.464C107.696 113.036 107.805 111.475 107.456 109.984C107.106 108.494 106.314 107.144 105.184 106.111ZM11.9786 115.238C11.5036 115.281 11.0247 115.227 10.5708 115.08C10.117 114.933 9.6976 114.696 9.33794 114.383C8.97828 114.069 8.68579 113.686 8.4781 113.257C8.27041 112.828 8.15182 112.36 8.12947 111.884C8.10713 111.407 8.18149 110.931 8.34807 110.484C8.51466 110.037 8.77003 109.629 9.09878 109.283C9.42753 108.937 9.82287 108.662 10.261 108.473C10.699 108.284 11.1708 108.186 11.6479 108.185C11.7575 108.185 11.8678 108.19 11.9788 108.2L24.2079 109.311C24.8087 109.366 25.3673 109.643 25.7741 110.089C26.1809 110.534 26.4064 111.116 26.4064 111.719C26.4064 112.322 26.1809 112.903 25.7741 113.349C25.3673 113.794 24.8087 114.072 24.2079 114.126H24.208L11.9786 115.238ZM19.0223 118.677L24.5758 118.172H24.5759C26.1862 118.026 27.6836 117.282 28.774 116.088C29.8643 114.894 30.4689 113.336 30.4688 111.719C30.4688 110.102 29.8643 108.543 28.7739 107.349C27.6835 106.155 26.1861 105.412 24.5758 105.265L19.0117 104.76C19.0824 104.685 19.1529 104.61 19.226 104.537C20.4071 103.356 21.8612 102.485 23.4594 102C25.0577 101.515 26.7508 101.432 28.3889 101.758C30.0269 102.084 31.5592 102.809 32.8502 103.869C34.1411 104.928 35.1508 106.29 35.7898 107.833C36.4289 109.376 36.6775 111.053 36.5137 112.715C36.3499 114.377 35.7788 115.973 34.8508 117.362C33.9229 118.75 32.6668 119.889 31.1939 120.676C29.7209 121.463 28.0766 121.875 26.4064 121.875C25.0232 121.87 23.6554 121.584 22.3861 121.034C21.1167 120.484 19.9723 119.682 19.0223 118.677ZM92.4931 118.901C91.5526 119.847 90.4336 120.597 89.201 121.108C87.9685 121.618 86.6468 121.879 85.3127 121.875H36.3439C37.699 120.553 38.7758 118.974 39.5111 117.23C40.2464 115.485 40.6252 113.612 40.6252 111.719C40.6252 109.826 40.2464 107.952 39.5111 106.208C38.7758 104.464 37.699 102.884 36.3439 101.562H85.3127C87.3215 101.562 89.2852 102.158 90.9555 103.274C92.6257 104.39 93.9275 105.976 94.6961 107.832C95.4647 109.688 95.6657 111.731 95.2736 113.701C94.8814 115.671 93.9138 117.481 92.4931 118.901ZM100.067 115.253C99.9577 115.253 99.847 115.248 99.7408 115.239L99.1093 115.181C99.6742 112.907 99.6721 110.53 99.1032 108.257L99.7397 108.199C100.215 108.156 100.694 108.209 101.148 108.356C101.602 108.503 102.022 108.741 102.382 109.054C102.742 109.368 103.034 109.751 103.242 110.181C103.45 110.611 103.568 111.078 103.59 111.555C103.612 112.032 103.538 112.508 103.371 112.955C103.204 113.402 102.948 113.811 102.619 114.157C102.289 114.502 101.894 114.777 101.455 114.966C101.017 115.154 100.544 115.252 100.067 115.253L100.067 115.253Z" fill="black"/>
</svg>
