<svg width="130" height="104" viewBox="0 0 130 104" fill="none" xmlns="http://www.w3.org/2000/svg">
<path d="M125.302 12.5312H119.655V85.9342C119.655 85.9342 112.062 88.1256 94.1258 82.7687C82.0322 79.1569 72.9852 83.5148 68.3743 86.7371C67.3934 87.4226 66.228 88.5559 65.0278 88.5559H64.9529H64.878C63.678 88.5559 62.5123 87.4228 61.5317 86.7374C56.9205 83.5148 47.8736 79.1569 35.7799 82.7687C17.8434 88.1259 10.2511 85.9342 10.2511 85.9342V12.5312H4.60369C3.08685 12.5312 1.85718 13.7499 1.85718 15.2531V91.7838C1.85718 93.2872 3.08685 94.5059 4.60395 94.5059H53.9447C55.4004 94.5059 56.7532 95.3131 57.3753 96.6173C58.7169 99.4305 61.6049 101.377 64.9531 101.377C68.3011 101.377 71.1893 99.4305 72.531 96.6173C73.1531 95.3131 74.5056 94.5059 75.9615 94.5059H125.302C126.819 94.5059 128.049 93.2872 128.049 91.784V15.2534C128.048 13.7499 126.819 12.5312 125.302 12.5312Z" fill="#F87C68"/>
<path d="M15.9066 91.7838V86.37C12.032 86.4485 10.2511 85.9344 10.2511 85.9344V12.5312H4.60369C3.08685 12.5312 1.85718 13.7499 1.85718 15.2531V91.7838C1.85718 93.287 3.08685 94.5059 4.60369 94.5059H18.6531C17.1366 94.5056 15.9066 93.287 15.9066 91.7838Z" fill="#EC625E"/>
<path d="M117.963 6.67339C114.304 6.96428 106.492 6.85935 94.1254 3.16571C76.1891 -2.19118 64.9527 9.9838 64.9527 9.9838L62.9956 12.5315V85.8539L64.9527 88.4568V88.5562H65.0274C66.2276 88.5562 67.393 88.1777 68.3739 87.4923C72.9851 84.2697 82.0318 79.9118 94.1254 83.5239C112.062 88.8808 120.416 86.6893 120.416 86.6893V8.92244C120.416 7.60668 119.286 6.56821 117.963 6.67339Z" fill="#DBEDFF"/>
<path d="M72.4021 4.76331C67.6101 7.1052 64.9527 9.98382 64.9527 9.98382L62.9956 12.5315V85.854L64.9527 88.4568V88.5562H65.0274C66.2276 88.5562 67.393 88.1777 68.3739 87.4923C69.4707 86.7256 70.8218 85.8955 72.4021 85.123V4.76331Z" fill="#B5DCFF"/>
<path d="M11.9425 6.67327C15.6013 6.96415 23.4128 6.85922 35.7798 3.16559C53.7163 -2.1913 64.9528 9.98368 64.9528 9.98368V88.556H64.8779C63.6776 88.556 62.5122 88.1776 61.5314 87.4922C56.9201 84.2696 47.8734 79.9116 35.7798 83.5238C17.8433 88.8806 9.48926 86.6892 9.48926 86.6892V8.92232C9.48926 7.60656 10.6191 6.56809 11.9425 6.67327Z" fill="#DBEDFF"/>
<path d="M17.8682 6.66235C15.2895 6.83598 13.321 6.78288 11.9428 6.67317C10.6191 6.56799 9.48926 7.60621 9.48926 8.92222V86.6891C9.48926 86.6891 12.2096 87.3995 17.8682 87.0193V6.66235Z" fill="#B5DCFF"/>
<path d="M111.751 17.853C106.688 17.4677 100.959 16.3279 94.7224 14.4656C87.2304 12.2276 79.958 12.5731 73.1066 15.4917C72.1403 15.9034 71.6939 17.0133 72.109 17.971C72.5244 18.9282 73.6431 19.3715 74.6108 18.9596C80.6159 16.4013 87.0131 16.1049 93.6235 18.0794C100.122 20.0205 106.123 21.2102 111.459 21.6163C111.509 21.6203 111.558 21.6218 111.607 21.6218C112.593 21.6218 113.427 20.8692 113.504 19.8791C113.584 18.8399 112.799 17.9327 111.751 17.853Z" fill="black"/>
<path d="M111.75 25.8737C106.689 25.4887 100.96 24.3491 94.7224 22.4863C87.2304 20.2484 79.958 20.5939 73.1066 23.5125C72.1403 23.9241 71.6939 25.0341 72.109 25.9917C72.5244 26.9492 73.6431 27.3923 74.6108 26.9804C80.6159 24.4221 87.0131 24.1257 93.6235 26.1002C100.124 28.0415 106.124 29.2314 111.459 29.637C111.509 29.6411 111.558 29.6426 111.607 29.6426C112.593 29.6426 113.427 28.89 113.504 27.8996C113.584 26.8604 112.799 25.9535 111.75 25.8737Z" fill="black"/>
<path d="M111.751 65.9772C106.687 65.5919 100.958 64.452 94.7224 62.5895C87.2309 60.3516 79.9588 60.6973 73.1066 63.6159C72.1403 64.0276 71.6939 65.1375 72.109 66.0952C72.5244 67.0524 73.6431 67.4957 74.6108 67.0838C80.6162 64.5255 87.0133 64.2296 93.6235 66.2034C100.122 68.1444 106.123 69.3343 111.459 69.7405C111.509 69.7445 111.558 69.746 111.607 69.746C112.593 69.746 113.427 68.9934 113.504 68.0032C113.584 66.964 112.799 66.0569 111.751 65.9772Z" fill="black"/>
<path d="M111.751 73.9979C106.688 73.6127 100.959 72.4728 94.7224 70.6105C87.2304 68.3728 79.958 68.718 73.1066 71.6366C72.1403 72.0483 71.6939 73.1582 72.109 74.1159C72.5244 75.0733 73.6431 75.5165 74.6108 75.1046C80.6159 72.5463 87.0131 72.2499 93.6235 74.2244C100.122 76.1654 106.123 77.3551 111.459 77.7612C111.509 77.7652 111.558 77.7668 111.607 77.7668C112.593 77.7668 113.427 77.0141 113.504 76.024C113.584 74.9848 112.799 74.0777 111.751 73.9979Z" fill="black"/>
<path d="M111.751 33.8945C106.687 33.5092 100.958 32.3694 94.7224 30.5068C87.2309 28.2691 79.9588 28.6144 73.1066 31.5332C72.1403 31.9449 71.6939 33.0548 72.109 34.0125C72.5244 34.9697 73.6431 35.4128 74.6108 35.0011C80.6162 32.4429 87.0133 32.1467 93.6235 34.1207C100.122 36.0617 106.123 37.2517 111.459 37.6578C111.509 37.6618 111.558 37.6633 111.607 37.6633C112.593 37.6633 113.427 36.9107 113.504 35.9206C113.584 34.8814 112.799 33.9742 111.751 33.8945Z" fill="black"/>
<path d="M111.75 49.9356C106.689 49.5509 100.96 48.4113 94.7224 46.5485C87.2309 44.3105 79.9583 44.656 73.1066 47.5746C72.1403 47.9863 71.6939 49.0962 72.109 50.0539C72.5244 51.0113 73.6431 51.4544 74.6108 51.0425C80.6157 48.4845 87.0131 48.1881 93.6235 50.1623C100.124 52.1036 106.124 53.2935 111.459 53.6994C111.509 53.7032 111.558 53.7047 111.607 53.7047C112.593 53.7047 113.427 52.9521 113.504 51.9617C113.584 50.9225 112.799 50.0156 111.75 49.9356Z" fill="black"/>
<path d="M111.751 41.9151C106.688 41.5299 100.959 40.39 94.7224 38.5277C87.2312 36.2898 79.9583 36.6352 73.1066 39.5539C72.1403 39.9655 71.6939 41.0754 72.109 42.0331C72.5244 42.9903 73.6431 43.4337 74.6108 43.0218C80.6167 40.4635 87.0133 40.1673 93.6235 42.1416C100.122 44.0826 106.123 45.2723 111.459 45.6784C111.509 45.6824 111.558 45.684 111.607 45.684C112.593 45.684 113.427 44.9313 113.504 43.9412C113.584 42.902 112.799 41.9949 111.751 41.9151Z" fill="black"/>
<path d="M111.75 57.9561C106.688 57.5714 100.959 56.4315 94.7224 54.569C87.2309 52.3313 79.9588 52.6765 73.1066 55.5954C72.1403 56.007 71.6939 57.1169 72.109 58.0746C72.5244 59.0318 73.6431 59.4749 74.6108 59.0633C80.6162 56.505 87.0133 56.2091 93.6235 58.1828C100.123 60.1241 106.123 61.3141 111.459 61.7199C111.509 61.7237 111.558 61.7252 111.607 61.7252C112.593 61.7252 113.427 60.9726 113.504 59.9822C113.584 58.943 112.799 58.0361 111.75 57.9561Z" fill="black"/>
<path d="M18.3931 21.6218C18.4419 21.6218 18.4914 21.62 18.5409 21.6163C23.8772 21.2104 29.8778 20.0205 36.3765 18.0794C42.9869 16.1052 49.3838 16.4011 55.3892 18.9596C56.3553 19.3713 57.4755 18.9284 57.8909 17.971C58.3063 17.0133 57.8597 15.9034 56.8933 15.4917C50.0419 12.5728 42.7693 12.2279 35.2776 14.4656C29.0411 16.3278 23.3123 17.4677 18.2494 17.853C17.2008 17.9325 16.4159 18.8398 16.4967 19.879C16.5731 20.8692 17.4077 21.6218 18.3931 21.6218Z" fill="black"/>
<path d="M18.3931 29.6423C18.4419 29.6423 18.4914 29.6406 18.5406 29.6368C23.8757 29.2314 29.8765 28.0412 36.3765 26.0999C42.9869 24.1257 49.3838 24.4213 55.3892 26.9801C56.3553 27.3915 57.4755 26.9489 57.8909 25.9915C58.3063 25.0338 57.8597 23.9239 56.8933 23.5122C50.0419 20.5934 42.7693 20.2486 35.2776 22.4861C29.0401 24.3489 23.311 25.4885 18.2496 25.8735C17.2008 25.953 16.4159 26.8601 16.4967 27.8993C16.5731 28.8897 17.4077 29.6423 18.3931 29.6423Z" fill="black"/>
<path d="M18.3931 69.746C18.4419 69.746 18.4914 69.7442 18.5409 69.7405C23.8775 69.3346 29.878 68.1444 36.3765 66.2034C42.9872 64.2286 49.3838 64.5255 55.3892 67.0838C56.3553 67.4952 57.4755 67.0526 57.8909 66.0952C58.3063 65.1375 57.8597 64.0276 56.8933 63.6159C50.042 60.697 42.7693 60.352 35.2776 62.5895C29.0414 64.452 23.3125 65.5919 18.2494 65.9772C17.2008 66.0567 16.4159 66.964 16.4967 68.0032C16.5731 68.9934 17.4077 69.746 18.3931 69.746Z" fill="black"/>
<path d="M18.3931 77.7666C18.4419 77.7666 18.4914 77.7648 18.5409 77.761C23.8772 77.3552 29.8778 76.1652 36.3765 74.2242C42.9869 72.2499 49.3838 72.5456 55.3892 75.1044C56.3553 75.5155 57.4755 75.0732 57.8909 74.1157C58.3063 73.158 57.8597 72.0481 56.8933 71.6365C50.042 68.7176 42.7693 68.3726 35.2776 70.6103C29.0411 72.4726 23.3123 73.6125 18.2494 73.9977C17.2008 74.0772 16.4159 74.9846 16.4967 76.0238C16.5731 77.014 17.4077 77.7666 18.3931 77.7666Z" fill="black"/>
<path d="M18.3931 37.6632C18.4419 37.6632 18.4914 37.6615 18.5409 37.6577C23.8775 37.2518 29.878 36.0616 36.3765 34.1206C42.9872 32.1461 49.3838 32.4428 55.3892 35.001C56.3553 35.4124 57.4755 34.9698 57.8909 34.0124C58.3063 33.0547 57.8597 31.9448 56.8933 31.5331C50.0419 28.6143 42.7693 28.2693 35.2776 30.5067C29.0414 32.3693 23.3125 33.5091 18.2494 33.8944C17.2008 33.9739 16.4159 34.8813 16.4967 35.9205C16.5731 36.9106 17.4077 37.6632 18.3931 37.6632Z" fill="black"/>
<path d="M18.3931 53.7046C18.4419 53.7046 18.4914 53.7028 18.5406 53.6993C23.8757 53.2937 29.8765 52.1035 36.3765 50.1622C42.9869 48.188 49.3838 48.4836 55.3892 51.0424C56.3553 51.4538 57.4755 51.0112 57.8909 50.0538C58.3063 49.0961 57.8597 47.9862 56.8933 47.5745C50.0422 44.6559 42.7698 44.3107 35.2776 46.5484C29.0401 48.4112 23.311 49.5508 18.2496 49.9355C17.2008 50.0153 16.4159 50.9224 16.4967 51.9616C16.5731 52.952 17.4077 53.7046 18.3931 53.7046Z" fill="black"/>
<path d="M18.3931 45.6842C18.4419 45.6842 18.4914 45.6824 18.5409 45.6786C23.8772 45.2727 29.8778 44.0828 36.3765 42.1418C42.9867 40.1678 49.3836 40.4632 55.3892 43.022C56.3553 43.4331 57.4755 42.9907 57.8909 42.0333C58.3063 41.0756 57.8597 39.9657 56.8933 39.554C50.0414 36.6352 42.7693 36.2897 35.2776 38.5279C29.0411 40.3902 23.3123 41.5301 18.2494 41.9153C17.2008 41.9948 16.4159 42.9022 16.4967 43.9414C16.5731 44.9315 17.4077 45.6842 18.3931 45.6842Z" fill="black"/>
<path d="M18.3931 61.7252C18.4419 61.7252 18.4914 61.7235 18.5406 61.7199C23.8767 61.3143 29.8773 60.1241 36.3765 58.1828C42.9872 56.2081 49.3838 56.505 55.3892 59.0633C56.3553 59.4749 57.4755 59.0321 57.8909 58.0746C58.3063 57.1169 57.8597 56.007 56.8933 55.5954C50.042 52.6765 42.7693 52.3313 35.2776 54.569C29.0411 56.4315 23.3118 57.5714 18.2496 57.9561C17.2008 58.0359 16.4159 58.943 16.4967 59.9822C16.5731 60.9726 17.4077 61.7252 18.3931 61.7252Z" fill="black"/>
<path d="M125.349 10.731H122.368V9.00906C122.368 6.59596 120.291 4.68712 117.858 4.87911C115.048 5.1018 108.895 5.11539 99.2562 2.69322C98.2362 2.43631 97.2003 3.04852 96.9423 4.05855C96.6836 5.06909 97.3006 6.09573 98.32 6.35163C107.982 8.77958 114.444 8.93735 118.162 8.64119C118.379 8.62609 118.559 8.79292 118.559 9.00906V85.1656C111.345 85.9368 101.709 83.8903 94.7221 81.8038C79.1167 77.1429 69.0282 85.1505 66.9041 86.2913V10.856C68.9617 8.94339 77.2551 2.16908 89.5983 4.13731C90.636 4.30439 91.6138 3.60336 91.7811 2.5742C91.9485 1.5453 91.2423 0.576785 90.2039 0.410963C77.2432 -1.65842 68.2995 4.61565 64.9952 7.47288C57.4188 0.961271 46.5816 -1.93118 35.2776 1.44565C23.1452 5.06909 15.5742 5.15086 12.1421 4.87936C9.70611 4.68561 7.63245 6.60049 7.63245 9.00906V10.731H4.65082C2.08636 10.731 0 12.7983 0 15.34V91.8707C0 94.4123 2.08661 96.4797 4.65107 96.4797H53.9919C54.7312 96.4797 55.4018 96.8841 55.7004 97.5106C59.3963 105.26 70.5898 105.288 74.2991 97.5106C74.598 96.8846 75.2685 96.4797 76.0079 96.4797H125.349C127.913 96.4797 129.999 94.4121 129.999 91.8707V56.0805C129.999 55.038 129.147 54.1933 128.095 54.1933C127.043 54.1933 126.191 55.038 126.191 56.0805V91.8704C126.191 92.3306 125.813 92.7051 125.349 92.7051H76.0082C73.8032 92.7051 71.7811 93.9579 70.8561 95.8975C68.5283 100.778 61.4803 100.797 59.1439 95.8977C58.2192 93.9584 56.197 92.7051 53.9919 92.7051H4.65107C4.18642 92.7051 3.80861 92.3306 3.80861 91.8704V15.34C3.80861 14.8798 4.18642 14.5054 4.65082 14.5054H7.63245V86.7762C7.63245 87.6325 8.21415 88.3816 9.04951 88.6005C9.41158 88.6956 18.1338 90.8664 36.3768 85.4177C45.2034 82.7816 53.7225 84.3981 60.4817 89.1219C63.0952 90.948 66.7334 91.0687 69.519 89.1216C73.6011 86.2687 82.1598 81.9945 93.6237 85.4177C111.867 90.8662 120.589 88.6954 120.951 88.6005C121.786 88.3816 122.368 87.6325 122.368 86.7762V14.5054H125.349C125.814 14.5054 126.191 14.8798 126.191 15.34V47.2735C126.191 48.316 127.044 49.1607 128.096 49.1607C129.148 49.1607 130 48.316 130 47.2735V15.34C130 12.7983 127.913 10.731 125.349 10.731ZM11.4411 9.00906C11.4411 8.79745 11.6155 8.62584 11.8377 8.64119C15.5371 8.93609 23.6456 8.86161 36.3768 5.05927C46.6872 1.98087 56.5373 4.77166 63.0957 10.8575V86.2913C62.0034 85.7053 51.2956 77.0191 35.2776 81.8041C34.2506 82.1108 33.1217 82.4294 32.0771 82.7059C32.0644 82.7092 32.0517 82.7127 32.0393 82.716C25.9074 84.3369 17.7504 85.8399 11.4408 85.1666C11.4411 79.9211 11.4411 10.4157 11.4411 9.00906Z" fill="black"/>
</svg>
