<svg width="130" height="130" viewBox="0 0 130 130" fill="none" xmlns="http://www.w3.org/2000/svg">
<path d="M117.812 115.781H12.1875C7.70047 115.781 4.0625 112.143 4.0625 107.656V46.7188C4.0625 42.2317 7.70047 38.5938 12.1875 38.5938H117.812C122.3 38.5938 125.938 42.2317 125.938 46.7188V107.656C125.938 112.143 122.3 115.781 117.812 115.781Z" fill="#D8923E"/>
<path d="M4.0625 95.4688H125.938V103.594H4.0625V95.4688Z" fill="#8F6128"/>
<path d="M4.0625 95.4688H125.938V99.5312H4.0625V95.4688Z" fill="#BC7F35"/>
<path d="M125.938 56.875L110.327 69.6455C105.972 73.2103 100.52 75.1563 94.8919 75.1563H35.1081C29.4816 75.1563 24.0277 73.2103 19.6727 69.6455L4.0625 56.875V46.7188C4.0625 42.2317 7.70047 38.5938 12.1875 38.5938H117.812C122.3 38.5938 125.938 42.2317 125.938 46.7188V56.875Z" fill="#BC7F35"/>
<path d="M48.75 75.1562V67.0312C48.75 58.0572 56.0259 50.7812 65 50.7812C73.9741 50.7812 81.25 58.0572 81.25 67.0312V75.1562" fill="#8F6128"/>
<path d="M71.0938 87.3438H58.9062C57.785 87.3438 56.875 86.4338 56.875 85.3125V65C56.875 63.8788 57.785 62.9688 58.9062 62.9688H71.0938C72.215 62.9688 73.125 63.8788 73.125 65V85.3125C73.125 86.4338 72.215 87.3438 71.0938 87.3438Z" fill="#F2C351"/>
<path d="M99.5312 30.4688V26.4062C99.5312 19.6747 94.0753 14.2188 87.3438 14.2188H42.6562C35.9247 14.2188 30.4688 19.6747 30.4688 26.4062V30.4688H38.5938V26.4062C38.5938 24.1617 40.4117 22.3438 42.6562 22.3438H87.3438C89.5883 22.3438 91.4062 24.1617 91.4062 26.4062V30.4688H99.5312Z" fill="#8F6128"/>
<path d="M28.4375 38.5938V32.5C28.4375 31.3788 29.3475 30.4688 30.4688 30.4688H38.5938C39.715 30.4688 40.625 31.3788 40.625 32.5V38.5938" fill="#F2C351"/>
<path d="M89.375 38.5938V32.5C89.375 31.3788 90.285 30.4688 91.4062 30.4688H99.5312C100.653 30.4688 101.562 31.3788 101.562 32.5V38.5938" fill="#F2C351"/>
<path d="M67.0292 77.1856V73.123H62.9688V77.1856H56.875V81.246H73.123V77.1856H67.0292Z" fill="#F7D881"/>
<path d="M38.6222 30.4748C38.612 30.4748 38.6039 30.4688 38.5938 30.4688H30.4688C29.3475 30.4688 28.4375 31.3788 28.4375 32.5V38.5938H34.7161C36.9891 36.5848 38.4617 33.7066 38.6222 30.4748Z" fill="#F7D881"/>
<path d="M99.5597 30.4748C99.5495 30.4748 99.5414 30.4688 99.5312 30.4688H91.4062C90.285 30.4688 89.375 31.3788 89.375 32.5V38.5938H95.6536C97.9266 36.5848 99.3992 33.7066 99.5597 30.4748Z" fill="#F7D881"/>
<path d="M117.812 36.5606H103.594V32.5001C103.594 31.003 102.771 29.7071 101.562 29.0023V26.4023C101.562 18.5637 95.1844 12.1855 87.3438 12.1855H42.6562C34.8156 12.1855 28.4375 18.5637 28.4375 26.4023V29.0023C27.2289 29.7071 26.4062 31.003 26.4062 32.5001V36.5606H12.1875C6.58734 36.5606 2.03125 41.1166 2.03125 46.7168V107.656C2.03125 113.256 6.58734 117.813 12.1875 117.813H117.812C123.413 117.813 127.969 113.256 127.969 107.656V46.7168C127.969 41.1166 123.411 36.5606 117.812 36.5606ZM6.09172 97.5001H123.904V101.559H6.09172V97.5001ZM6.09172 93.4356V61.157L18.3848 71.2157C23.0912 75.067 29.0306 77.1876 35.1061 77.1876H54.8438V85.3085C54.8438 87.551 56.6658 89.371 58.9062 89.371H71.0938C73.3342 89.371 75.1562 87.551 75.1562 85.3085V77.1876H94.8939C100.969 77.1876 106.909 75.067 111.613 71.2177L123.906 61.159V93.4356H6.09172ZM79.2167 73.1251H75.1542V64.9981C75.1542 62.7556 73.3322 60.9356 71.0917 60.9356H58.9042C56.6637 60.9356 54.8417 62.7556 54.8417 64.9981V73.1251H50.7792V67.0273C50.7812 59.1907 57.1594 52.8126 65 52.8126C72.8386 52.8126 79.2167 59.1907 79.2167 67.0273V73.1251ZM71.0958 85.3085H58.9062V81.246H71.0958V85.3085ZM62.9688 73.1231V77.1856H58.9062V64.9981H71.0938L71.0958 77.1856H67.0312V73.1231H62.9688ZM91.4062 36.5606V32.5001H99.5312V36.5606H91.4062ZM40.625 29.0023V26.4043C40.625 25.283 41.535 24.373 42.6562 24.373H87.3438C88.465 24.373 89.375 25.283 89.375 26.4043V29.0023C88.1664 29.7071 87.3438 31.001 87.3438 32.5001V36.5606H42.6562V32.5001C42.6542 31.003 41.8316 29.7071 40.625 29.0023ZM42.6562 16.248H87.3438C92.9439 16.248 97.5 20.8021 97.5 26.4023V28.4376H93.4375V26.4043C93.4375 23.0446 90.7034 20.3105 87.3438 20.3105H42.6562C39.2966 20.3105 36.5625 23.0446 36.5625 26.4043V28.4376H32.5V26.4023C32.5 20.8021 37.0541 16.248 42.6562 16.248ZM30.4688 32.5001H38.5938V36.5606H30.4688V32.5001ZM12.1855 40.6231H117.81C121.17 40.6231 123.904 43.3591 123.904 46.7168V55.9102L109.04 68.0734C105.058 71.3295 100.035 73.1251 94.8919 73.1251H83.2792V67.0273C83.2792 56.9482 75.0791 48.7501 64.998 48.7501C54.9169 48.7501 46.7167 56.9482 46.7167 67.0273V73.1251H35.1041C29.963 73.1251 24.9377 71.3295 20.9564 68.0734L6.09172 55.9102V46.7168C6.09172 43.3591 8.82578 40.6231 12.1855 40.6231ZM117.812 113.75H12.1875C8.82781 113.75 6.09375 111.014 6.09375 107.656V105.623H123.906V107.656C123.906 111.014 121.17 113.75 117.812 113.75Z" fill="black"/>
</svg>
