<svg width="130" height="86" viewBox="0 0 130 86" fill="none" xmlns="http://www.w3.org/2000/svg">
<path d="M124.025 2.29297H5.97492C3.72684 2.29297 1.9043 4.11551 1.9043 6.36359V79.6361C1.9043 81.8842 3.72684 83.7067 5.97492 83.7067H124.025C126.273 83.7067 128.095 81.8842 128.095 79.6361V6.36385C128.096 4.11551 126.273 2.29297 124.025 2.29297Z" fill="#5055A0"/>
<path d="M8.01023 67.4242V2.29297H5.97492C3.72684 2.29297 1.9043 4.11551 1.9043 6.36359V79.6361C1.9043 81.8842 3.72709 83.7067 5.97492 83.7067H124.025C126.273 83.7067 128.095 81.8842 128.095 79.6361V77.6008H18.187C12.5757 77.6008 8.01023 73.0356 8.01023 67.4242Z" fill="#3F3F8F"/>
<path d="M124.025 0.388916H22.2572C21.2055 0.388916 20.3529 1.24128 20.3529 2.29321C20.3529 3.34489 21.2055 4.19751 22.2572 4.19751H124.025C125.22 4.19751 126.191 5.16921 126.191 6.36384V79.6361C126.191 80.8307 125.219 81.8024 124.025 81.8024H5.97492C4.78029 81.8024 3.80859 80.8307 3.80859 79.6361V6.36384C3.80859 5.16921 4.78055 4.19751 5.97492 4.19751H14.1167C15.1684 4.19751 16.021 3.34489 16.021 2.29321C16.021 1.24128 15.1684 0.388916 14.1167 0.388916H5.97492C2.68049 0.388916 0 3.06915 0 6.36384V79.6361C0 82.9308 2.68049 85.611 5.97492 85.611H124.025C127.32 85.611 130 82.9308 130 79.6361V6.36384C130 3.06915 127.32 0.388916 124.025 0.388916Z" fill="black"/>
<path d="M36.6362 40.3789L35.7397 40.0877C34.7393 39.7629 33.6653 40.3101 33.3403 41.3102C33.2768 41.5057 33.2466 41.7038 33.2466 41.8988C33.2463 42.7016 33.758 43.4484 34.5631 43.7099L35.4596 44.0011L34.9056 44.7636C34.6598 45.1018 34.5415 45.4939 34.5418 45.8821C34.5418 46.4706 34.8142 47.0511 35.3268 47.4235C36.1777 48.0418 37.3688 47.8529 37.9868 47.0023L38.541 46.2396L39.0951 47.0021C39.4678 47.5149 40.0485 47.7871 40.6373 47.7871C41.0253 47.7871 41.417 47.6688 41.755 47.4233C42.2676 47.0508 42.5398 46.4704 42.5401 45.8818C42.5401 45.4936 42.422 45.1016 42.1762 44.7634L41.6219 44.0009L42.5185 43.7097C43.3234 43.4481 43.835 42.7014 43.8347 41.8985C43.8347 41.7035 43.8045 41.5055 43.741 41.3102C43.416 40.3101 42.3418 39.7627 41.3414 40.0877L40.4451 40.3787V39.4362C40.4451 38.3842 39.5925 37.5319 38.5408 37.5319C37.4891 37.5319 36.6365 38.3842 36.6365 39.4362V40.3789H36.6362Z" fill="#FFE07D"/>
<path d="M52.3638 15.0583C51.3121 15.0583 50.4595 15.911 50.4595 16.9626V17.9054L49.5629 17.6142C48.5628 17.2892 47.4885 17.8366 47.1635 18.8367C47.1 19.0322 47.0698 19.2303 47.0698 19.425C47.0696 20.2279 47.5812 20.9746 48.3863 21.2361L49.2829 21.5274L48.7289 22.2899C48.4831 22.6281 48.3647 23.0198 48.365 23.4083C48.365 23.9969 48.6374 24.5773 49.1501 24.9498C50.0007 25.568 51.1917 25.3791 51.81 24.5285L52.3643 23.7658L52.9183 24.5285C53.291 25.0414 53.8717 25.3136 54.4605 25.3136C54.8485 25.3136 55.2403 25.1956 55.5782 24.9498C56.0909 24.5773 56.363 23.9969 56.3633 23.4083C56.3633 23.0201 56.2452 22.6281 55.9995 22.2901L55.4452 21.5274L56.3417 21.2361C57.1466 20.9746 57.6582 20.2279 57.658 19.425C57.658 19.23 57.6278 19.032 57.5643 18.8367C57.2393 17.8366 56.1653 17.2889 55.1646 17.6142L54.2683 17.9054V16.9629C54.2681 15.911 53.4155 15.0583 52.3638 15.0583Z" fill="#FFE07D"/>
<path d="M57.6577 65.0508C57.6577 64.8558 57.6275 64.6577 57.564 64.4625C57.239 63.4623 56.165 62.9149 55.1644 63.2399L54.2681 63.5311V62.5886C54.2681 61.5369 53.4155 60.6843 52.3638 60.6843C51.3121 60.6843 50.4595 61.5369 50.4595 62.5886V63.5311L49.5629 63.2399C48.5628 62.9149 47.4885 63.4623 47.1635 64.4625C47.1 64.658 47.0698 64.856 47.0698 65.051C47.0696 65.8539 47.5812 66.6006 48.3863 66.8621L49.2829 67.1534L48.7289 67.9158C48.4831 68.254 48.3647 68.6458 48.365 69.0343C48.365 69.6229 48.6374 70.2033 49.1501 70.5758C50.0007 71.194 51.1917 71.0051 51.81 70.1545L52.3643 69.392L52.9183 70.1545C53.291 70.6677 53.8717 70.9399 54.4605 70.9399C54.8485 70.9399 55.2403 70.8215 55.5782 70.576C56.0909 70.2035 56.363 69.6234 56.3633 69.0346C56.3633 68.6461 56.2452 68.2543 55.9995 67.9161L55.4452 67.1536L56.3417 66.8624C57.1463 66.6003 57.658 65.8536 57.6577 65.0508Z" fill="#FFE07D"/>
<path d="M42.187 24.3871C41.1353 24.3871 40.2827 25.2397 40.2827 26.2914V27.2339L39.3864 26.9427C38.3858 26.6174 37.312 27.1651 36.9868 28.1652C36.9233 28.3607 36.8931 28.5588 36.8931 28.7535C36.8928 29.5564 37.4044 30.3034 38.2093 30.5646L39.1059 30.8559L38.5518 31.6186C38.3063 31.9568 38.188 32.3486 38.188 32.7368C38.1882 33.3253 38.4604 33.9058 38.9731 34.2783C39.8239 34.8968 41.0147 34.7076 41.633 33.857L42.187 33.0945L42.7413 33.857C43.1138 34.3702 43.6945 34.6424 44.2835 34.6421C44.6715 34.6421 45.0633 34.5238 45.4012 34.2783C45.9138 33.9058 46.186 33.3253 46.1863 32.7368C46.1863 32.3486 46.0682 31.9565 45.8224 31.6186L45.2684 30.8559L46.165 30.5649C46.9698 30.3034 47.4817 29.5566 47.4815 28.7538C47.4815 28.5588 47.4512 28.3607 47.3878 28.1652C47.0628 27.1651 45.9877 26.6177 44.9884 26.9427L44.0918 27.2339V26.2914C44.0913 25.2397 43.2387 24.3871 42.187 24.3871Z" fill="#FFE07D"/>
<path d="M47.481 55.5526C47.481 55.3576 47.4507 55.1595 47.3873 54.9643C47.0623 53.9642 45.9872 53.4167 44.9879 53.7417L44.0913 54.033V53.0902C44.0913 52.0385 43.2387 51.1859 42.187 51.1859C41.1353 51.1859 40.2827 52.0385 40.2827 53.0902V54.033L39.3864 53.7417C38.3858 53.417 37.312 53.9642 36.9868 54.9643C36.9233 55.1598 36.8931 55.3578 36.8931 55.5526C36.8928 56.3554 37.4044 57.1022 38.2093 57.3637L39.1059 57.6549L38.5518 58.4174C38.3063 58.7556 38.188 59.1474 38.188 59.5359C38.1882 60.1244 38.4604 60.7049 38.9731 61.0773C39.8239 61.6958 41.0147 61.5067 41.633 60.6561L42.187 59.8936L42.7413 60.6561C43.1138 61.169 43.6945 61.4412 44.2835 61.4412C44.6715 61.4412 45.0633 61.3229 45.4012 61.0773C45.9138 60.7049 46.186 60.1244 46.1863 59.5359C46.1863 59.1477 46.0682 58.7556 45.8224 58.4174L45.2684 57.6549L46.165 57.3637C46.9696 57.1022 47.4812 56.3554 47.481 55.5526Z" fill="#FFE07D"/>
<path d="M91.459 37.5321C90.4073 37.5321 89.5547 38.3845 89.5547 39.4364V40.3789L88.6584 40.0879C87.6577 39.7629 86.5837 40.3103 86.2587 41.3105C86.1953 41.5057 86.165 41.704 86.165 41.8988C86.1648 42.7016 86.6764 43.4484 87.4813 43.7099L88.3778 44.0011L87.8236 44.7636C87.578 45.1018 87.4597 45.4936 87.4597 45.8821C87.46 46.4706 87.7321 47.0511 88.2448 47.4235C88.5827 47.6691 88.9745 47.7874 89.3625 47.7874C89.9513 47.7874 90.532 47.5152 90.9047 47.0023L91.4587 46.2398L92.013 47.0026C92.6313 47.8534 93.8221 48.0421 94.6729 47.4238C95.1858 47.0513 95.458 46.4709 95.458 45.8823C95.458 45.4941 95.3399 45.1021 95.0942 44.7639L94.5401 44.0014L95.4367 43.7102C96.2416 43.4486 96.7534 42.7019 96.7532 41.899C96.7532 41.704 96.723 41.506 96.6595 41.3105C96.3345 40.3103 95.2592 39.7632 94.2601 40.0879L93.3635 40.3792V39.4367C93.3633 38.3845 92.5109 37.5321 91.459 37.5321Z" fill="#FFE07D"/>
<path d="M65 11.0725C63.9483 11.0725 63.0957 11.9251 63.0957 12.9768V13.9196L62.1992 13.6283C61.1985 13.3031 60.1247 13.8508 59.7997 14.8509C59.7363 15.0464 59.7061 15.2444 59.7061 15.4392C59.7058 16.242 60.2174 16.9888 61.0226 17.2503L61.9191 17.5415L61.3651 18.304C61.1193 18.6422 61.001 19.034 61.0012 19.4225C61.0012 20.011 61.2737 20.5915 61.7863 20.9639C62.6371 21.5822 63.828 21.3933 64.4462 20.5427L65 19.7802L65.5543 20.543C65.9268 21.0558 66.5074 21.328 67.0965 21.328C67.4845 21.328 67.8762 21.2097 68.2142 20.9642C68.7271 20.5917 68.9993 20.0113 68.9993 19.4227C68.9993 19.0345 68.8812 18.6425 68.6354 18.3043L68.0814 17.5418L68.9779 17.2506C69.7828 16.989 70.2947 16.2423 70.2944 15.4394C70.2944 15.2444 70.2642 15.0464 70.2008 14.8511C69.8758 13.8507 68.801 13.3031 67.8013 13.6286L66.9048 13.9198V12.9771C66.9043 11.9251 66.0517 11.0725 65 11.0725Z" fill="#FFE07D"/>
<path d="M77.6357 15.0583C76.5841 15.0583 75.7314 15.911 75.7314 16.9626V17.9051L74.8352 17.6139C73.8343 17.2889 72.7605 17.8363 72.4355 18.8365C72.372 19.0317 72.3418 19.23 72.3418 19.4248C72.3415 20.2276 72.8532 20.9744 73.6581 21.2359L74.5546 21.5271L74.0003 22.2899C73.7548 22.6281 73.6365 23.0198 73.6365 23.4081C73.6367 23.9966 73.9089 24.577 74.4215 24.9495C74.7595 25.1951 75.1513 25.3134 75.5392 25.3134C76.128 25.3134 76.7087 25.0412 77.0815 24.5283L77.6355 23.7656L78.1898 24.5283C78.808 25.3794 79.9988 25.5678 80.8497 24.9495C81.3626 24.577 81.6348 23.9966 81.6348 23.4081C81.6348 23.0198 81.5167 22.6278 81.2709 22.2896L80.7169 21.5271L81.6134 21.2359C82.4183 20.9744 82.9302 20.2276 82.9299 19.4248C82.9299 19.2298 82.8997 19.0317 82.8362 18.8365C82.5112 17.8363 81.4365 17.2887 80.4368 17.6139L79.5403 17.9051V16.9624C79.54 15.911 78.6874 15.0583 77.6357 15.0583Z" fill="#FFE07D"/>
<path d="M87.813 24.3871C86.7613 24.3871 85.9087 25.2397 85.9087 26.2914V27.2339L85.0121 26.9427C84.0115 26.6179 82.9377 27.1651 82.6127 28.1652C82.5493 28.3607 82.519 28.5588 82.519 28.7538C82.5188 29.5566 83.0304 30.3034 83.8356 30.5649L84.7321 30.8559L84.1781 31.6186C83.9323 31.9568 83.814 32.3486 83.8142 32.7368C83.8142 33.3253 84.0867 33.9058 84.5993 34.2783C84.9375 34.524 85.329 34.6421 85.717 34.6421C86.3058 34.6421 86.8865 34.3699 87.2592 33.857L87.8135 33.0945L88.3675 33.857C88.986 34.7081 90.1766 34.8968 91.0274 34.2783C91.5401 33.9058 91.8123 33.3253 91.8125 32.7368C91.8125 32.3486 91.6944 31.9568 91.4487 31.6186L90.8946 30.8559L91.7912 30.5646C92.5961 30.3031 93.1077 29.5564 93.1074 28.7535C93.1074 28.5585 93.0772 28.3605 93.0137 28.1652C92.6887 27.1651 91.6142 26.6177 90.6141 26.9427L89.7178 27.2339V26.2914C89.7173 25.2397 88.8647 24.3871 87.813 24.3871Z" fill="#FFE07D"/>
<path d="M61.022 70.1695L61.9186 70.4605L61.3646 71.2232C61.1188 71.5614 61.0005 71.9532 61.0007 72.3414C61.0007 72.93 61.2731 73.5104 61.7858 73.8829C62.6369 74.5012 63.8277 74.3122 64.4457 73.4617L65 72.6992L65.5543 73.4617C65.9267 73.9748 66.5074 74.247 67.0965 74.2467C67.4845 74.2467 67.8762 74.1284 68.2142 73.8829C68.7268 73.5104 68.999 72.93 68.9993 72.3414C68.9993 71.9532 68.8812 71.5612 68.6354 71.2232L68.0814 70.4605L68.9779 70.1695C69.7828 69.908 70.2947 69.1612 70.2944 68.3584C70.2944 68.1634 70.2642 67.9653 70.2008 67.7698C69.8758 66.7697 68.801 66.2223 67.8013 66.5473L66.9048 66.8385V65.896C66.9048 64.8443 66.0522 63.9917 65.0005 63.9917C63.9488 63.9917 63.0962 64.8443 63.0962 65.896V66.8385L62.1997 66.5473C61.199 66.2225 60.1252 66.7699 59.8002 67.7698C59.7368 67.9653 59.7065 68.1634 59.7065 68.3584C59.7053 69.1612 60.2172 69.908 61.022 70.1695Z" fill="#FFE07D"/>
<path d="M73.6583 66.8618L74.5548 67.153L74.0005 67.9155C73.755 68.2537 73.6367 68.6455 73.6367 69.0339C73.637 69.6225 73.9091 70.2029 74.4218 70.5754C74.7597 70.8209 75.1515 70.9392 75.5395 70.9392C76.1283 70.9392 76.709 70.6668 77.0817 70.1539L77.6357 69.3914L78.19 70.1539C78.8083 71.0048 79.9991 71.1934 80.8499 70.5751C81.3628 70.2027 81.635 69.6222 81.635 69.0337C81.635 68.6454 81.5169 68.2534 81.2712 67.9152L80.7171 67.1527L81.6137 66.8615C82.4186 66.6 82.9304 65.8532 82.9302 65.0504C82.9302 64.8554 82.9 64.6573 82.8365 64.4618C82.5115 63.4617 81.4367 62.9143 80.4371 63.2393L79.5405 63.5305V62.588C79.5405 61.5363 78.6879 60.6837 77.6362 60.6837C76.5846 60.6837 75.7319 61.5363 75.7319 62.588V63.5305L74.8356 63.2393C73.8347 62.9143 72.761 63.4617 72.436 64.4618C72.3725 64.6573 72.3423 64.8554 72.3423 65.0501C72.3418 65.8535 72.8534 66.6002 73.6583 66.8618Z" fill="#FFE07D"/>
<path d="M93.1069 55.5526C93.1069 55.3576 93.0767 55.1596 93.0133 54.9643C92.6883 53.9642 91.6137 53.4167 90.6136 53.7417L89.7173 54.033V53.0902C89.7173 52.0385 88.8647 51.1859 87.813 51.1859C86.7613 51.1859 85.9087 52.0385 85.9087 53.0902V54.033L85.0121 53.7417C84.0115 53.4167 82.9377 53.9642 82.6127 54.9643C82.5493 55.1598 82.519 55.3578 82.519 55.5526C82.5188 56.3554 83.0304 57.1024 83.8356 57.3637L84.7321 57.6549L84.1781 58.4174C83.9323 58.7556 83.814 59.1474 83.8142 59.5359C83.8142 60.1244 84.0867 60.7049 84.5993 61.0773C84.9375 61.3229 85.329 61.4412 85.717 61.4412C86.3058 61.4412 86.8865 61.169 87.2592 60.6561L87.8135 59.8936L88.3675 60.6561C88.986 61.507 90.1766 61.6956 91.0274 61.0773C91.5401 60.7049 91.8123 60.1244 91.8125 59.5359C91.8125 59.1477 91.6945 58.7556 91.4487 58.4174L90.8947 57.6549L91.7912 57.3637C92.5956 57.1022 93.1072 56.3554 93.1069 55.5526Z" fill="#FFE07D"/>
</svg>
