<svg width="35" height="35" viewBox="0 0 35 35" fill="none" xmlns="http://www.w3.org/2000/svg">
<g clip-path="url(#clip0)">
<path d="M33.1212 0.848633H2.87312C1.83734 0.849152 0.997665 1.68935 0.997925 2.72539V32.9734C0.998444 34.0092 1.83864 34.8489 2.87468 34.8486H33.1212C34.1575 34.8489 34.9977 34.009 34.9979 32.9727C34.9979 32.9724 34.9979 32.9721 34.9979 32.9719V2.72383C34.9974 1.68805 34.1572 0.848373 33.1212 0.848633Z" fill="#4267B2"/>
<path d="M24.4725 34.8486V21.7001H28.9052L29.5692 16.5537H24.4725V13.2759C24.4725 11.7893 24.8852 10.7763 27.017 10.7763H29.7186V6.18573C29.2486 6.12321 27.6359 5.9834 25.7594 5.9834C21.8414 5.9834 19.16 8.37402 19.16 12.7662V16.5537H14.744V21.7001H19.16V34.8486H24.4725Z" fill="white"/>
</g>
<defs>
<clipPath id="clip0">
<rect width="34" height="34" fill="white" transform="translate(0.997925 0.848633)"/>
</clipPath>
</defs>
</svg>
