<svg width="63" height="63" viewBox="0 0 63 63" fill="none" xmlns="http://www.w3.org/2000/svg">
<g clip-path="url(#clip0)">
<path d="M22.4087 51.4296C24.7843 51.4296 26.7169 49.4949 26.7169 47.1169C26.7169 44.7389 24.7843 42.8042 22.4087 42.8042C20.0331 42.8042 18.1005 44.7389 18.1005 47.1169C18.1005 49.4949 20.0331 51.4296 22.4087 51.4296ZM22.4087 44.6444C23.7706 44.6444 24.8786 45.7535 24.8786 47.1169C24.8786 48.4802 23.7706 49.5894 22.4087 49.5894C21.0468 49.5894 19.9388 48.4802 19.9388 47.1169C19.9388 45.7535 21.0468 44.6444 22.4087 44.6444Z" fill="#F2F2F2"/>
<path d="M62.3796 53.2289L58.2613 37.5019C58.1327 37.0105 57.6302 36.7165 57.1391 36.8452C56.648 36.9741 56.3544 37.477 56.4831 37.9686L60.6014 53.6956C61.0084 55.2499 60.7684 56.8591 59.9254 58.2266C59.0824 59.5942 57.7534 60.5307 56.183 60.8637C53.4885 61.4351 50.7395 60.0136 49.6446 57.4846L49.5374 57.2369C49.3356 56.7707 48.7944 56.5564 48.3286 56.7585C47.8629 56.9606 47.6489 57.5023 47.8507 57.9686L47.958 58.2163C49.1853 61.052 51.993 62.8294 54.9897 62.8294C55.511 62.8294 56.0383 62.7755 56.5639 62.6641C58.6308 62.2258 60.3803 60.9931 61.4897 59.1931C62.5992 57.3932 62.9154 55.2748 62.3796 53.2289Z" fill="#F2F2F2"/>
<path d="M3.12826 46.9184C3.20645 46.9389 3.28476 46.9487 3.36197 46.9487C3.76971 46.9487 4.14227 46.675 4.25048 46.2617L8.1267 31.4595C8.47278 30.1378 9.66767 29.2149 11.0325 29.2149H17.753C18.5554 29.2149 19.3097 29.5277 19.8772 30.0956C20.3394 30.5584 20.9542 30.8133 21.6079 30.8133H41.2972C41.9509 30.8133 42.5656 30.5584 43.0278 30.0956C43.5953 29.5277 44.3496 29.2149 45.152 29.2149H51.8725C53.2373 29.2149 54.4322 30.1378 54.7783 31.4595L55.4815 34.1447C55.6102 34.6361 56.1125 34.9303 56.6037 34.8014C57.0948 34.6726 57.3884 34.1696 57.2598 33.678L56.5565 30.9928C56.1333 29.3764 54.9218 28.1305 53.4011 27.6233V26.2373C53.4011 25.1206 52.4934 24.212 51.378 24.212H46.2561C45.1405 24.212 44.233 25.1206 44.233 26.2373V27.4621C43.2899 27.6425 42.4221 28.0997 41.7282 28.7944C41.6131 28.9096 41.46 28.9731 41.2973 28.9731H35.138L34.3886 22.953C34.2733 22.0267 33.4831 21.3282 32.5507 21.3282H32.4332V7.57956C32.4332 6.27216 33.4957 5.20853 34.8017 5.20853C36.1078 5.20853 37.1703 6.27216 37.1703 7.57956V15.3445C37.1703 17.4515 38.8827 19.1657 40.9876 19.1657C43.0924 19.1657 44.8049 17.4515 44.8049 15.3445V0.939387C44.8049 0.431246 44.3933 0.0192871 43.8857 0.0192871C43.3781 0.0192871 42.9666 0.431246 42.9666 0.939387V15.3445C42.9666 16.4368 42.0788 17.3255 40.9876 17.3255C39.8964 17.3255 39.0086 16.4368 39.0086 15.3445V7.57956C39.0086 5.25748 37.1214 3.36833 34.8017 3.36833C32.4821 3.36833 30.5949 5.25748 30.5949 7.57956V21.3282H30.4774C29.545 21.3282 28.7547 22.0266 28.6394 22.953L27.89 28.973H21.6079C21.4451 28.973 21.2922 28.9094 21.177 28.7942C20.4829 28.0995 19.6153 27.6424 18.6721 27.4619V26.2372C18.6721 25.1205 17.7645 24.2119 16.649 24.2119H11.5272C10.4116 24.2119 9.50407 25.1205 9.50407 26.2372V27.6231C7.98331 28.1304 6.77188 29.3762 6.34858 30.9927L2.47224 45.795C2.34356 46.2866 2.63732 46.7894 3.12826 46.9184ZM46.2561 26.0522H51.378C51.4799 26.0522 51.5628 26.1353 51.5628 26.2373V27.3747H46.0712V26.2373C46.0713 26.1353 46.1542 26.0522 46.2561 26.0522ZM30.4634 23.1805C30.4642 23.1735 30.4701 23.1684 30.4771 23.1684H32.5506C32.5576 23.1684 32.5634 23.1735 32.5643 23.1805L33.2854 28.9731H29.7423L30.4634 23.1805ZM11.5272 26.0522H16.649C16.751 26.0522 16.8338 26.1353 16.8338 26.2373V27.3747H11.3422V26.2373C11.3422 26.1353 11.4252 26.0522 11.5272 26.0522Z" fill="#F2F2F2"/>
<path d="M40.4966 51.4296C42.8722 51.4296 44.8048 49.4949 44.8048 47.1169C44.8048 44.7389 42.8722 42.8042 40.4966 42.8042C38.1211 42.8042 36.1884 44.7389 36.1884 47.1169C36.1884 49.4949 38.1211 51.4296 40.4966 51.4296ZM40.4966 44.6444C41.8585 44.6444 42.9665 45.7535 42.9665 47.1169C42.9665 48.4802 41.8585 49.5894 40.4966 49.5894C39.1347 49.5894 38.0267 48.4802 38.0267 47.1169C38.0267 45.7535 39.1347 44.6444 40.4966 44.6444Z" fill="#F2F2F2"/>
<path d="M47.9702 53.6152L47.102 51.6096C47.6213 50.843 48.0152 49.9766 48.2478 49.0344C48.3696 48.5412 48.0688 48.0423 47.5761 47.9204C47.0833 47.7983 46.585 48.0995 46.4632 48.5928C45.7832 51.3466 43.3297 53.27 40.4967 53.27C38.6044 53.27 36.8441 52.4129 35.6674 50.9187C35.1242 50.2291 34.742 49.4465 34.5312 48.5928C34.4094 48.0995 33.9112 47.7983 33.4183 47.9205C32.9255 48.0425 32.6248 48.5413 32.7467 49.0346C32.8786 49.5685 33.0634 50.0803 33.2968 50.5682H29.6094C29.8433 50.0799 30.0282 49.5681 30.16 49.0344C30.2818 48.5412 29.9812 48.0425 29.4883 47.9204C28.9954 47.7983 28.4973 48.0995 28.3754 48.5928C28.1648 49.4452 27.7822 50.2276 27.2381 50.9186C26.0613 52.4128 24.3012 53.2698 22.4088 53.2698C19.5757 53.2698 17.1222 51.3466 16.4423 48.5927C16.3206 48.0994 15.8226 47.7982 15.3294 47.9203C14.8366 48.0422 14.5359 48.5409 14.6577 49.0343C14.8903 49.9766 15.2842 50.843 15.8034 51.6095L13.2605 57.4845C12.1657 60.0137 9.41612 61.4347 6.72229 60.8636C5.1519 60.5307 3.82281 59.5941 2.9799 58.2266C2.13698 56.8591 1.8969 55.2499 2.3039 53.6955L3.25503 50.0635C3.38371 49.5719 3.09007 49.069 2.599 48.9401C2.10794 48.8112 1.60559 49.1054 1.47679 49.5968L0.525659 53.2289C-0.0101413 55.2748 0.305922 57.3929 1.41539 59.1928C2.52486 60.9928 4.2743 62.2255 6.34127 62.6638C6.86702 62.7752 7.39387 62.8291 7.91546 62.8291C10.9119 62.8289 13.7199 61.0515 14.9472 58.2161L17.1476 53.1324C18.5644 54.3746 20.4136 55.1099 22.4087 55.1099C24.7155 55.1099 26.8703 54.1308 28.3893 52.4081H34.5159C36.0349 54.1308 38.1898 55.1099 40.4966 55.1099C42.4916 55.1099 44.3408 54.3746 45.7576 53.1324L46.2832 54.3466C46.4851 54.8129 47.0264 55.0271 47.4921 54.8251C47.9581 54.6231 48.172 54.0814 47.9702 53.6152Z" fill="#F2F2F2"/>
<path d="M29.8364 46.7297H33.0688C34.0957 46.7297 34.9311 45.8934 34.9311 44.8653V43.397C34.9311 42.369 34.0957 41.5326 33.0688 41.5326H29.8364C28.8095 41.5326 27.9741 42.3689 27.9741 43.397V44.8653C27.9741 45.8933 28.8095 46.7297 29.8364 46.7297ZM29.8123 43.3968C29.8123 43.3836 29.8231 43.3727 29.8364 43.3727H33.0688C33.082 43.3727 33.0928 43.3835 33.0928 43.3968V44.8652C33.0928 44.8785 33.082 44.8894 33.0688 44.8894H29.8364C29.8231 44.8894 29.8123 44.8786 29.8123 44.8652V43.3968Z" fill="#F2F2F2"/>
<path d="M28.2807 38.1887C28.2807 37.6806 27.8692 37.2687 27.3616 37.2687H26.7054C26.1978 37.2687 25.7862 37.6806 25.7862 38.1887C25.7862 38.6969 26.1978 39.1088 26.7054 39.1088H27.3616C27.8692 39.1088 28.2807 38.6969 28.2807 38.1887Z" fill="#F2F2F2"/>
<path d="M36.1998 39.1088C36.7074 39.1088 37.1189 38.6969 37.1189 38.1887C37.1189 37.6806 36.7074 37.2687 36.1998 37.2687H35.5436C35.036 37.2687 34.6245 37.6806 34.6245 38.1887C34.6245 38.6969 35.036 39.1088 35.5436 39.1088H36.1998Z" fill="#F2F2F2"/>
<path d="M40.1769 35.6229C40.6845 35.6229 41.096 35.2109 41.096 34.7028C41.096 34.1946 40.6845 33.7827 40.1769 33.7827H22.8509C22.3432 33.7827 21.9317 34.1946 21.9317 34.7028C21.9317 35.2109 22.3432 35.6229 22.8509 35.6229H40.1769Z" fill="#F2F2F2"/>
<path d="M12.3101 43.6957H14.9582C15.7431 43.6957 16.3814 43.0567 16.3814 42.271V41.2118H17.4396C18.2243 41.2118 18.8628 40.5727 18.8628 39.7871V37.1362C18.8628 36.3507 18.2244 35.7116 17.4396 35.7116H16.3814V34.6523C16.3814 33.8668 15.7431 33.2277 14.9582 33.2277H12.3101C11.5254 33.2277 10.8869 33.8667 10.8869 34.6523V35.7116H9.8288C9.04409 35.7116 8.40559 36.3506 8.40559 37.1362V39.7871C8.40559 40.5726 9.04397 41.2118 9.8288 41.2118H10.8869V42.271C10.8869 43.0567 11.5254 43.6957 12.3101 43.6957ZM10.244 39.3716V37.5518H11.8062C12.3138 37.5518 12.7253 37.1398 12.7253 36.6317V35.0679H14.5433V36.6317C14.5433 37.1398 14.9548 37.5518 15.4624 37.5518H17.0246V39.3716H15.4624C14.9548 39.3716 14.5433 39.7836 14.5433 40.2917V41.8555H12.7253V40.2917C12.7253 39.7836 12.3138 39.3716 11.8062 39.3716H10.244Z" fill="#F2F2F2"/>
<path d="M50.399 35.1591V34.9469C50.399 34.4387 49.9875 34.0268 49.4799 34.0268C48.9723 34.0268 48.5608 34.4387 48.5608 34.9469V35.1591C48.5608 35.6672 48.9723 36.0792 49.4799 36.0792C49.9875 36.0792 50.399 35.6672 50.399 35.1591Z" fill="#F2F2F2"/>
<path d="M52.4821 36.8893C51.9745 36.8893 51.563 37.3012 51.563 37.8093C51.563 38.3175 51.9745 38.7294 52.4821 38.7294H52.6941C53.2017 38.7294 53.6132 38.3175 53.6132 37.8093C53.6132 37.3012 53.2017 36.8893 52.6941 36.8893H52.4821Z" fill="#F2F2F2"/>
<path d="M49.8346 41.9468C50.3422 41.9468 50.7537 41.5349 50.7537 41.0268V40.8145C50.7537 40.3064 50.3422 39.8945 49.8346 39.8945C49.327 39.8945 48.9155 40.3064 48.9155 40.8145V41.0268C48.9155 41.5349 49.327 41.9468 49.8346 41.9468Z" fill="#F2F2F2"/>
<path d="M46.6205 37.2444C46.1129 37.2444 45.7014 37.6563 45.7014 38.1644C45.7014 38.6726 46.1129 39.0845 46.6205 39.0845H46.8325C47.3401 39.0845 47.7516 38.6726 47.7516 38.1644C47.7516 37.6563 47.3401 37.2444 46.8325 37.2444H46.6205Z" fill="#F2F2F2"/>
</g>
<defs>
<clipPath id="clip0">
<rect width="62.7446" height="62.8098" fill="white" transform="translate(0.0803528 0.0192871)"/>
</clipPath>
</defs>
</svg>
