<svg width="96" height="96" viewBox="0 0 96 96" fill="none" xmlns="http://www.w3.org/2000/svg">
<g clip-path="url(#clip0)">
<path d="M6.3999 43.2002H89.5999V94.4002H6.3999V43.2002Z" fill="#A2DAE7"/>
<path d="M6.3999 43.2002H89.5999V49.6002H6.3999V43.2002Z" fill="#8DD3E7"/>
<path d="M1.6001 27.2002H94.4001V43.2002H1.6001V27.2002Z" fill="#A2DAE7"/>
<path d="M41.5996 27.2002H54.3996V94.4002H41.5996V27.2002Z" fill="#FC5B68"/>
<path d="M41.5998 27.2002L25.5998 62.4002L20.7998 56.0002H12.7998L27.1998 27.2002H41.5998Z" fill="#FC5B68"/>
<path d="M46.56 9.2689C44.5208 4.6087 39.9156 1.5983 34.8288 1.6001H22.0288C27.1064 1.6291 31.6964 4.6295 33.76 9.2689L41.6 27.2001H54.4L46.56 9.2689Z" fill="#F04855"/>
<path d="M20.8 14.4001C20.801 9.5853 23.5066 5.1791 27.8 3.0001C26.013 2.0863 24.0358 1.6067 22.0288 1.6001H20.8C13.7308 1.6001 8 7.3309 8 14.4001C8 21.4693 13.7308 27.2001 20.8 27.2001H33.6C26.5308 27.2001 20.8 21.4693 20.8 14.4001Z" fill="#FC5B68"/>
<path d="M49.4401 9.2689C51.4793 4.6087 56.0845 1.5983 61.1713 1.6001H73.9713C68.8937 1.6291 64.3037 4.6295 62.2401 9.2689L54.4001 27.2001H41.6001L49.4401 9.2689Z" fill="#FC5B68"/>
<path d="M75.1999 14.4001C75.1989 9.5853 72.4933 5.1791 68.1999 3.0001C69.9869 2.0863 71.9641 1.6067 73.9711 1.6001H75.1999C82.2691 1.6001 87.9999 7.3309 87.9999 14.4001C87.9999 21.4693 82.2691 27.2001 75.1999 27.2001H62.3999C69.4691 27.2001 75.1999 21.4693 75.1999 14.4001Z" fill="#FC5B68"/>
<path d="M54.3999 27.2002L70.3999 62.4002L75.1999 56.0002H83.1999L68.7999 27.2002H54.3999Z" fill="#FC5B68"/>
<path d="M41.6001 27.2002H54.4001V35.2002H41.6001V27.2002Z" fill="#F04855"/>
<path d="M94.4 25.6H84.2304C90.4222 20.6188 91.4036 11.5614 86.4224 5.3696C83.6886 1.9714 79.5612 -0.00339552 75.2 4.47489e-06H61.1712C55.4668 0.00200447 50.3014 3.371 48 8.5904C45.6986 3.371 40.5332 0.00200447 34.8288 4.47489e-06H20.8C12.8532 -0.00619552 6.4062 6.431 6.4 14.3776C6.3966 18.7388 8.3714 22.8662 11.7696 25.6H1.6C0.7164 25.6 0 26.3164 0 27.2V43.2C0 44.0836 0.7164 44.8 1.6 44.8H4.8V94.4C4.8 95.2836 5.5164 96 6.4 96H89.6C90.4836 96 91.2 95.2836 91.2 94.4V44.8H94.4C95.2836 44.8 96 44.0836 96 43.2V27.2C96 26.3164 95.2836 25.6 94.4 25.6ZM86.4 14.4C86.393 20.5826 81.3826 25.593 75.2 25.6H71.4416C77.6272 20.6154 78.6008 11.5602 73.6162 5.3746C73.0522 4.6746 72.4238 4.0292 71.7392 3.4464C71.9456 3.4032 72.1536 3.3648 72.3632 3.3328C72.4928 3.3136 72.6208 3.288 72.7504 3.272C73.1556 3.2256 73.5632 3.2016 73.9712 3.2H75.2C81.3826 3.207 86.393 8.2174 86.4 14.4ZM80.6112 54.4H75.2C74.6964 54.4 74.2222 54.6372 73.92 55.04L70.7392 59.28L63.1312 42.544L56.8848 28.8H67.8112L75.368 43.9152L80.6112 54.4ZM56 34.5856L59.1888 41.6H56V34.5856ZM68.2112 4.8688C73.4902 8.0638 75.1796 14.9334 71.9844 20.2124C69.9554 23.5648 66.3186 25.6092 62.4 25.6H56.8464L63.7104 9.9104C64.654 7.8054 66.2264 6.0442 68.2112 4.8688ZM61.1712 3.2H64.96C63.1508 4.6458 61.7188 6.5086 60.7872 8.6288L53.3536 25.6H44.0464L50.9104 9.9104C52.694 5.834 56.7216 3.2 61.1712 3.2ZM25.2608 59.28L22.08 55.04C21.7778 54.6372 21.3036 54.4 20.8 54.4H15.3888L20.64 43.9152L28.1888 28.8H39.1152L32.8752 42.5376L25.2608 59.28ZM40 34.5856V41.6H36.8112L40 34.5856ZM34.8288 3.2C39.2784 3.2 43.306 5.834 45.0896 9.9104L46.2528 12.5712L41.6 23.208L35.2208 8.6288C34.2892 6.5086 32.8572 4.6458 31.048 3.2H34.8288ZM32.2896 9.9104L39.1536 25.6H33.6C27.4294 25.6144 22.4156 20.6238 22.4012 14.4532C22.392 10.5346 24.4364 6.8978 27.7888 4.8688C29.7736 6.0442 31.346 7.8054 32.2896 9.9104ZM9.6 14.4C9.607 8.2174 14.6174 3.207 20.8 3.2H22.0288C22.4368 3.2016 22.8444 3.2256 23.2496 3.272C23.3792 3.288 23.5072 3.3136 23.6368 3.3328C23.8464 3.3648 24.0544 3.4032 24.2608 3.4464C18.2114 8.5954 17.4814 17.6736 22.6302 23.723C23.2128 24.4076 23.8584 25.036 24.5584 25.6H20.8C14.6174 25.593 9.607 20.5826 9.6 14.4ZM3.2 28.8H24.6112L18.2112 41.6H3.2V28.8ZM8 44.8H16.6112L11.368 55.2848C10.973 56.0752 11.2936 57.0362 12.084 57.4312C12.3064 57.5422 12.5514 57.6 12.8 57.6H20L24.32 63.36C24.6222 63.7628 25.0964 64 25.6 64C25.6578 64 25.7154 63.9968 25.7728 63.9904C26.3332 63.9282 26.8194 63.5756 27.0528 63.0624L35.36 44.8H40V92.8H8V44.8ZM43.2 92.8V28.8H52.8V92.8H43.2ZM88 92.8H56V44.8H60.64L68.944 63.0624C69.1774 63.5756 69.6636 63.9282 70.224 63.9904C70.2824 63.997 70.3412 64.0002 70.4 64C70.9036 64 71.3778 63.7628 71.68 63.36L76 57.6H83.2C84.0836 57.6048 84.804 56.8924 84.8088 56.0088C84.8102 55.7576 84.7524 55.5096 84.64 55.2848L79.3888 44.8H88V92.8ZM92.8 41.6H77.7888L71.3888 28.8H92.8V41.6Z" fill="black"/>
</g>
<defs>
<clipPath id="clip0">
<rect width="96" height="96" fill="white"/>
</clipPath>
</defs>
</svg>
