<svg width="95" height="95" viewBox="0 0 95 95" fill="none" xmlns="http://www.w3.org/2000/svg">
<g clip-path="url(#clip0)">
<path d="M78.7534 47.4242C74.4495 47.4242 70.9282 43.8992 70.9282 39.5909C70.9282 35.2826 74.4495 31.7576 78.7534 31.7576C83.0572 31.7576 86.5786 35.2826 86.5786 39.5909C86.5786 43.8992 83.0572 47.4242 78.7534 47.4242ZM78.7534 35.6742C76.4058 35.6742 74.8408 37.2409 74.8408 39.5909C74.8408 41.9409 76.4058 43.5076 78.7534 43.5076C81.1009 43.5076 82.666 41.9409 82.666 39.5909C82.666 37.2409 81.1009 35.6742 78.7534 35.6742Z" fill="#F2F2F2"/>
<path d="M92.4475 67.0075C91.2737 67.0075 90.4912 66.2242 90.4912 65.0492V61.1325C90.4912 57.9992 87.7523 55.2575 84.6223 55.2575H72.8845C71.7107 55.2575 70.9282 54.4742 70.9282 53.2992C70.9282 52.1242 71.7107 51.3408 72.8845 51.3408H84.6223C90.0999 51.3408 94.4037 55.6492 94.4037 61.1325V65.0492C94.4037 66.2242 93.6212 67.0075 92.4475 67.0075Z" fill="#F2F2F2"/>
<path d="M16.1519 47.4242C11.8481 47.4242 8.32674 43.8992 8.32674 39.5909C8.32674 35.2826 11.8481 31.7576 16.1519 31.7576C20.4558 31.7576 23.9771 35.2826 23.9771 39.5909C23.9771 43.8992 20.4558 47.4242 16.1519 47.4242ZM16.1519 35.6742C13.8044 35.6742 12.2393 37.2409 12.2393 39.5909C12.2393 41.9409 13.8044 43.5076 16.1519 43.5076C18.4995 43.5076 20.0645 41.9409 20.0645 39.5909C20.0645 37.2409 18.4995 35.6742 16.1519 35.6742Z" fill="#F2F2F2"/>
<path d="M2.45785 67.0075C1.28407 67.0075 0.501556 66.2242 0.501556 65.0492V61.1325C0.501556 55.6492 4.80541 51.3408 10.283 51.3408H22.0208C23.1946 51.3408 23.9771 52.1242 23.9771 53.2992C23.9771 54.4742 23.1946 55.2575 22.0208 55.2575H10.283C7.15296 55.2575 4.41415 57.9992 4.41415 61.1325V65.0492C4.41415 66.2242 3.63163 67.0075 2.45785 67.0075Z" fill="#F2F2F2"/>
<path d="M47.4526 49.3826C40.8012 49.3826 35.7149 44.2909 35.7149 37.6326C35.7149 30.9742 40.8012 25.8826 47.4526 25.8826C54.1041 25.8826 59.1904 30.9742 59.1904 37.6326C59.1904 44.2909 54.1041 49.3826 47.4526 49.3826ZM47.4526 29.7992C43.1488 29.7992 39.6275 33.3242 39.6275 37.6326C39.6275 41.9409 43.1488 45.4659 47.4526 45.4659C51.7565 45.4659 55.2778 41.9409 55.2778 37.6326C55.2778 33.3242 51.7565 29.7992 47.4526 29.7992Z" fill="#F2F2F2"/>
<path d="M67.0156 74.8409C65.8418 74.8409 65.0593 74.0576 65.0593 72.8826V65.0492C65.0593 61.9159 62.3205 59.1742 59.1904 59.1742H35.7149C32.5848 59.1742 29.846 61.9159 29.846 65.0492V72.8826C29.846 74.0576 29.0635 74.8409 27.8897 74.8409C26.7159 74.8409 25.9334 74.0576 25.9334 72.8826V65.0492C25.9334 59.5659 30.2372 55.2576 35.7149 55.2576H59.1904C64.6681 55.2576 68.9719 59.5659 68.9719 65.0492V72.8826C68.9719 74.0576 68.1894 74.8409 67.0156 74.8409Z" fill="#F2F2F2"/>
</g>
<defs>
<clipPath id="clip0">
<rect width="93.9022" height="94" fill="white" transform="translate(0.501556 0.424194)"/>
</clipPath>
</defs>
</svg>
