<svg width="30" height="29" viewBox="0 0 30 29" fill="none" xmlns="http://www.w3.org/2000/svg">
<path d="M24.9609 28.123H5.03906C3.55289 28.123 2.34375 26.9139 2.34375 25.4277V11.2468C2.34375 10.7291 2.76346 10.3093 3.28125 10.3093C3.79904 10.3093 4.21875 10.7291 4.21875 11.2468V25.4277C4.21875 25.88 4.58672 26.248 5.03906 26.248H24.9609C25.4133 26.248 25.7812 25.88 25.7812 25.4277V11.2468C25.7812 10.7291 26.201 10.3093 26.7188 10.3093C27.2365 10.3093 27.6562 10.7291 27.6562 11.2468V25.4277C27.6562 26.9139 26.4472 28.123 24.9609 28.123Z" fill="#FDFDFD"/>
<path d="M29.0625 14.5278C28.8225 14.5278 28.5827 14.4363 28.3996 14.2531L16.7401 2.59377C15.7806 1.63424 14.2194 1.63424 13.2599 2.59377L1.60042 14.2532C1.23432 14.6194 0.640708 14.6194 0.274614 14.2532C-0.0915381 13.8871 -0.0915381 13.2935 0.274614 12.9274L11.9341 1.26791C13.6246 -0.422636 16.3754 -0.422636 18.0659 1.26791L29.7254 12.9274C30.0915 13.2935 30.0915 13.8871 29.7254 14.2531C29.5424 14.4363 29.3024 14.5278 29.0625 14.5278Z" fill="#FDFDFD"/>
<path d="M18.75 28.123H11.25C10.7322 28.123 10.3125 27.7033 10.3125 27.1855V18.8652C10.3125 17.2498 11.6268 15.9355 13.2422 15.9355H16.7578C18.3732 15.9355 19.6875 17.2498 19.6875 18.8652V27.1855C19.6875 27.7033 19.2678 28.123 18.75 28.123ZM12.1875 26.248H17.8125V18.8652C17.8125 18.2837 17.3394 17.8105 16.7578 17.8105H13.2422C12.6606 17.8105 12.1875 18.2837 12.1875 18.8652V26.248Z" fill="#FDFDFD"/>
</svg>
