<svg width="92" height="92" viewBox="0 0 92 92" fill="none" xmlns="http://www.w3.org/2000/svg">
<path d="M59.3555 32.246C59.3555 35.8862 58.0501 39.0371 55.4749 41.6127C52.8997 44.1879 49.7484 45.4933 46.1082 45.4933H46.1019C42.4664 45.4921 39.3171 44.1867 36.7419 41.6127C34.1663 39.0371 32.8613 35.8862 32.8613 32.246C32.8613 28.6071 34.1663 25.4558 36.7419 22.8806C39.3159 20.3063 42.4651 19.0013 46.1019 19H46.1082C49.7471 19 52.8984 20.3054 55.4749 22.8806C58.0501 25.4558 59.3555 28.6071 59.3555 32.246Z" fill="#FFBB85"/>
<path d="M69.3989 64.541C69.3989 67.4129 68.4854 69.738 66.6861 71.4504C64.9077 73.1427 62.5558 74 59.6961 74H33.2133C30.3536 74 28.0016 73.1427 26.2245 71.4504C24.424 69.7367 23.5117 67.412 23.5117 64.541C23.5117 63.4366 23.5482 62.3439 23.6212 61.2932C23.6955 60.219 23.8457 59.0499 24.0673 57.8167C24.2905 56.5733 24.5775 55.398 24.9212 54.3238C25.2779 53.2118 25.7604 52.1149 26.3576 51.0642C26.9778 49.9736 27.7062 49.0236 28.5228 48.2414C29.3788 47.4228 30.4253 46.7652 31.6351 46.286C32.8406 45.8093 34.1771 45.5676 35.6072 45.5676C36.1682 45.5676 36.7116 45.7972 37.759 46.4795C38.4144 46.907 39.1697 47.3938 40.0035 47.9267C40.7236 48.3858 41.6987 48.8163 42.9043 49.2053C43.9638 49.5481 45.0393 49.7395 46.1018 49.7726C46.2189 49.7768 46.3359 49.7789 46.453 49.7789C47.633 49.7789 48.8264 49.5855 50.003 49.2053C51.2085 48.8163 52.185 48.3858 52.9046 47.9267C53.7472 47.3883 54.5025 46.902 55.1483 46.4807C56.1965 45.7972 56.7391 45.5676 57.3014 45.5676C58.7301 45.5676 60.0666 45.8093 61.273 46.286C62.4828 46.7652 63.5293 47.424 64.3845 48.2414C65.2023 49.0236 65.9308 49.9736 66.5505 51.0642C67.1481 52.1157 67.6315 53.2118 67.9869 54.3225C68.331 55.398 68.6188 56.5733 68.8421 57.8175C69.0624 59.052 69.213 60.2211 69.2869 61.2923C69.3611 62.3397 69.3976 63.4324 69.3989 64.541Z" fill="#6AA9FF"/>
<path d="M46.1079 45.4933H46.1016V19H46.1079C49.7468 19 52.8981 20.3054 55.4745 22.8806C58.0497 25.4558 59.3552 28.6071 59.3552 32.246C59.3552 35.8862 58.0497 39.0371 55.4745 41.6127C52.8994 44.1879 49.748 45.4933 46.1079 45.4933Z" fill="#FFBB85"/>
<path d="M69.3987 64.541C69.3987 67.4129 68.4852 69.738 66.6859 71.4504C64.9075 73.1427 62.5556 74 59.6959 74H46.1016V49.7726C46.2186 49.7768 46.3357 49.7789 46.4528 49.7789C47.6327 49.7789 48.8261 49.5855 50.0027 49.2053C51.2083 48.8163 52.1847 48.3858 52.9044 47.9267C53.747 47.3883 54.5023 46.902 55.1481 46.4807C56.1963 45.7972 56.7388 45.5676 57.3011 45.5676C58.7299 45.5676 60.0664 45.8093 61.2728 46.286C62.4826 46.7652 63.5291 47.424 64.3843 48.2414C65.2021 49.0236 65.9306 49.9736 66.5503 51.0642C67.1479 52.1157 67.6313 53.2118 67.9867 54.3225C68.3308 55.398 68.6186 56.5733 68.8419 57.8175C69.0622 59.052 69.2128 60.2211 69.2866 61.2923C69.3609 62.3397 69.3974 63.4324 69.3987 64.541Z" fill="#6AA9FF"/>
<circle cx="46" cy="46" r="44.5" stroke="#6AA9FF" stroke-width="3"/>
</svg>
