<svg width="128" height="128" viewBox="0 0 128 128" fill="none" xmlns="http://www.w3.org/2000/svg">
<path d="M35.4305 81.3117L27.932 78.4997C26.5067 77.9652 25.5623 76.6027 25.5623 75.0802V72.1334H14.6073V75.0804C14.6073 76.6027 13.663 77.9652 12.2378 78.4997L4.73925 81.3117C1.8885 82.3807 0 85.1057 0 88.1502V101.348C0 103.364 1.635 104.999 3.65175 104.999H40.1695V88.1502C40.1695 85.1057 38.281 82.3807 35.4305 81.3117Z" fill="#E6AF78"/>
<path d="M20.0848 77.6112C22.1351 77.6112 24.0906 77.2169 25.9021 76.5279C25.7038 76.0752 25.5623 75.5954 25.5623 75.0802V72.1334H14.6073V75.0804C14.6073 75.5954 14.4661 76.0752 14.2676 76.5277C16.0791 77.2169 18.0346 77.6112 20.0848 77.6112Z" fill="#D29B6E"/>
<path d="M3.65175 105H40.1695V88.1504C40.1695 85.1059 38.281 82.3809 35.4302 81.3119L28.2183 78.6074L22.667 84.1587C21.241 85.5847 18.9288 85.5847 17.5025 84.1587L11.9513 78.6074L4.739 81.3119C1.8885 82.3807 0 85.1057 0 88.1502V101.348C0 103.365 1.635 105 3.65175 105Z" fill="#DBD9DC"/>
<path d="M20.1555 73.9595H20.0145C12.9945 73.9595 7.30371 68.2687 7.30371 61.2487V55.6299C7.30371 48.6099 12.9945 42.9192 20.0145 42.9192H20.1555C27.1755 42.9192 32.8662 48.6099 32.8662 55.6299V61.2484C32.8662 68.2684 27.1755 73.9595 20.1555 73.9595Z" fill="#F0C087"/>
<path d="M14.6072 61.1782V55.7004C14.6072 49.9114 18.4585 45.0274 23.7367 43.4554C22.579 43.1107 21.3547 42.9192 20.085 42.9192C13.0262 42.9192 7.30371 48.6414 7.30371 55.7004V61.1782C7.30371 68.2369 13.0262 73.9595 20.085 73.9595C21.355 73.9595 22.579 73.7679 23.7367 73.4232C18.4582 71.8509 14.6072 66.9669 14.6072 61.1782Z" fill="#E6AF78"/>
<path d="M5.69925 88.7879L1.15275 84.2417C0.42475 85.3872 0 86.7297 0 88.1502V101.348C0 103.364 1.635 104.999 3.65175 104.999H7.3035V92.6612C7.3035 91.2084 6.7265 89.8152 5.69925 88.7879Z" fill="#EDEBED"/>
<path d="M18.2588 84.723V105H21.9105V84.723C20.7815 85.3783 19.3875 85.3783 18.2588 84.723Z" fill="#EDEBED"/>
<path d="M20.0847 50.2226C24.1178 50.2226 27.3872 46.9531 27.3872 42.9201C27.3872 38.887 24.1178 35.6176 20.0847 35.6176C16.0517 35.6176 12.7822 38.887 12.7822 42.9201C12.7822 46.9531 16.0517 50.2226 20.0847 50.2226Z" fill="#6E4B53"/>
<path d="M7.30371 55.7004V59.7979C9.32621 58.8399 11.8032 57.3294 13.6987 55.0817C14.2525 54.4249 15.1997 54.2894 15.9487 54.7102C18.3557 56.0624 24.0002 58.6379 32.8662 59.2207V55.7004C32.8662 48.6414 27.144 42.9192 20.085 42.9192C13.0262 42.9192 7.30371 48.6414 7.30371 55.7004Z" fill="#5C414B"/>
<path d="M13.1072 44.9998C9.61546 47.2813 7.30371 51.218 7.30371 55.7003V59.7978C9.32596 58.84 11.8035 57.3293 13.6987 55.0815C13.9892 54.737 14.3885 54.545 14.81 54.4925C13.4575 51.9223 12.401 48.57 13.1072 44.9998Z" fill="#503441"/>
<path d="M123.989 76.7617L114.81 72.5119C113.59 71.9474 112.804 70.6877 112.804 69.2974V62.7897H99.2973V69.2974C99.2973 70.6874 98.5116 71.9472 97.2921 72.5117L88.1123 76.7617C85.6733 77.8907 84.1016 80.4102 84.1016 83.1902V105H124.623C126.488 105 128 103.425 128 101.482V83.1904C128 80.4102 126.428 77.8907 123.989 76.7617Z" fill="#FAD7A5"/>
<path d="M123.989 76.7615L114.872 72.5408L108.439 78.9743C107.12 80.293 104.982 80.293 103.663 78.9743L97.2296 72.5405L88.1123 76.7615C85.6733 77.8908 84.1016 80.41 84.1016 83.1903V105L124.623 105C126.488 105 128 103.425 128 101.482V83.1903C128 80.41 126.428 77.8908 123.989 76.7615Z" fill="#DBD9DC"/>
<path d="M99.2975 62.7897V69.2974C99.2975 69.9417 99.1138 70.5494 98.811 71.0814C100.965 72.2534 103.432 72.9199 106.051 72.9199C108.671 72.9199 111.137 72.2537 113.291 71.0817C112.988 70.5497 112.804 69.9417 112.804 69.2974V62.7897H99.2975Z" fill="#F0C891"/>
<path d="M106.051 69.5432C99.5234 69.5432 94.2319 64.2517 94.2319 57.7245V47.594H117.869V57.7245C117.869 64.2517 112.578 69.5432 106.051 69.5432Z" fill="#FFE1B4"/>
<path d="M100.985 57.7245V47.594H94.2319V57.7245C94.2319 64.2517 99.5234 69.5432 106.051 69.5432C107.225 69.5432 108.357 69.3662 109.427 69.0472C104.547 67.5937 100.985 63.0775 100.985 57.7245Z" fill="#FAD7A5"/>
<path d="M107.739 39.1522H104.363C97.8354 39.1522 92.5439 44.4437 92.5439 50.971V53.672C92.5439 54.9232 93.8714 55.7727 94.9782 55.189C96.6912 54.2855 98.7002 52.6 100.05 50.7817C100.595 50.0475 101.644 49.9385 102.377 50.4855C107.734 54.4835 115.197 53.5645 118.213 52.9685C119 52.8132 119.558 52.1162 119.558 51.315V50.9707C119.558 44.4435 114.267 39.1522 107.739 39.1522Z" fill="#D59F63"/>
<path d="M94.9784 55.189C96.6914 54.2855 98.7004 52.6 100.05 50.7817C100.257 50.5035 100.545 50.3447 100.852 50.2477C98.4647 46.925 98.3019 43.221 98.5984 40.6582C94.9879 42.6807 92.5439 46.5382 92.5439 50.971V53.672C92.5439 54.923 93.8714 55.7725 94.9784 55.189Z" fill="#CD915A"/>
<path d="M119.558 90.2138C119.558 88.8703 120.091 87.582 121.041 86.632L127.392 80.2815C127.783 81.1785 128 82.166 128 83.1902V101.482C128 103.425 126.488 105 124.623 105H119.558V90.2138Z" fill="#EDEBED"/>
<path d="M104.362 79.4962V105H107.739V79.4962C106.695 80.1022 105.406 80.1022 104.362 79.4962Z" fill="#EDEBED"/>
<path d="M85.4149 69.835L73.9839 64.5428C72.4654 63.8398 71.4867 62.271 71.4867 60.54V52.436L54.6667 52.4363V60.5403C54.6667 62.2713 53.6882 63.8398 52.1694 64.5428L40.7382 69.835C37.7009 71.241 35.7437 74.3785 35.7437 77.8405V100.619C35.7437 103.039 37.6264 105 39.9487 105H86.2044C88.5269 105 90.4094 103.038 90.4094 100.619V77.8408C90.4094 74.3788 88.4521 71.2413 85.4149 69.835Z" fill="#B48764"/>
<path d="M39.9484 105L86.2042 104.999C88.5267 104.999 90.4092 103.038 90.4092 100.619V77.8407C90.4092 74.3785 88.4517 71.2412 85.4147 69.835L74.0614 64.579L66.0499 72.5905C64.4077 74.2327 61.7452 74.2327 60.1029 72.5905L52.0912 64.5787L40.7377 69.835C37.7004 71.241 35.7432 74.3782 35.7432 77.8405V100.619C35.7432 103.038 37.6259 105 39.9484 105Z" fill="#5D5360"/>
<path d="M54.6663 52.436V60.54C54.6663 61.3423 54.4373 62.0993 54.0605 62.7618C56.7423 64.2213 59.8143 65.0513 63.0766 65.0513C66.3386 65.0513 69.4103 64.2215 72.0923 62.762C71.7153 62.0995 71.4866 61.3423 71.4866 60.54V52.436H54.6663Z" fill="#966D50"/>
<path d="M63.0766 60.8462C54.9481 60.8462 48.3589 54.2567 48.3589 46.1284V33.5132H77.7946V46.1284C77.7944 54.2567 71.2049 60.8462 63.0766 60.8462Z" fill="#C39772"/>
<path d="M56.7686 46.1282V33.5129H48.3584V46.1282C48.3584 54.2567 54.9479 60.8459 63.0761 60.8459C64.5384 60.8459 65.9481 60.6254 67.2811 60.2284C61.2034 58.4182 56.7686 52.7944 56.7686 46.1282Z" fill="#B48764"/>
<path d="M65.1791 23.0002H60.9741C52.8456 23.0002 46.2563 29.5897 46.2563 37.718V41.0815C46.2563 42.6395 47.9096 43.6975 49.2876 42.9707C51.4206 41.8457 53.9226 39.7467 55.6038 37.4825C56.2828 36.568 57.5883 36.4325 58.5013 37.1137C65.1731 42.0922 74.4658 40.948 78.2226 40.206C79.2016 40.0127 79.8973 39.1447 79.8973 38.147V37.7182C79.8968 29.5897 73.3073 23.0002 65.1791 23.0002Z" fill="#5C414B"/>
<path d="M49.2874 42.9707C51.4204 41.8457 53.9221 39.7467 55.6034 37.4825C55.8606 37.136 56.2194 36.9382 56.6014 36.8175C53.6289 32.6797 53.4261 28.0672 53.7954 24.8757C49.2991 27.3945 46.2559 32.198 46.2559 37.7182V41.0817C46.2559 42.6397 47.9091 43.6977 49.2874 42.9707Z" fill="#503441"/>
<path d="M46.2559 86.5868C46.2559 84.9138 45.5914 83.3095 44.4084 82.1265L36.5002 74.2183C36.0127 75.3353 35.7432 76.565 35.7432 77.8403V100.619C35.7432 103.038 37.6259 105 39.9482 105H46.2559V86.5868Z" fill="#6F6571"/>
<path d="M79.8965 86.5868C79.8965 84.9138 80.561 83.3095 81.744 82.1265L89.6522 74.2183C90.1397 75.3353 90.4092 76.565 90.4092 77.8403V100.619C90.4092 103.038 88.5265 105 86.2042 105H79.8965V86.5868Z" fill="#6F6571"/>
<path d="M60.9736 73.2405V105L65.1786 104.999V73.2405C63.8789 73.995 62.2736 73.995 60.9736 73.2405Z" fill="#6F6571"/>
</svg>
