<svg width="130" height="130" viewBox="0 0 130 130" fill="none" xmlns="http://www.w3.org/2000/svg">
<path d="M80.2331 7.99709C77.7984 7.72973 75.3409 7.57637 72.8391 7.67108C53.3354 8.37413 36.249 19.9633 26.7611 30.5782L26.7573 83.0386L30.0675 83.4141C40.0463 84.5521 46.953 87.7248 50.6016 92.8499C54.6333 98.5144 53.5585 105.157 53.1345 107.061C51.7221 113.387 55.4516 119.826 61.8414 121.057C65.4529 121.749 69.0829 122.091 72.6868 122.091C75.2248 122.091 77.738 121.861 80.2333 121.528C108.446 117.763 130.231 93.7619 129.998 64.5425C129.743 33.4722 104.643 10.6755 80.2331 7.99709Z" fill="#FABE2C"/>
<path d="M129.998 64.5427C129.744 33.4722 104.643 10.6755 80.2334 7.99707V121.528C108.446 117.763 130.231 93.7621 129.998 64.5427Z" fill="#FF9100"/>
<path d="M86.0797 51.5401C81.6277 47.0808 81.6277 39.8318 86.0758 35.3761C90.5389 30.9204 97.7841 30.9204 102.24 35.3761C106.696 39.8318 106.696 47.0808 102.24 51.5363V51.5401C97.7848 55.9879 90.5357 55.9884 86.0797 51.5401Z" fill="#00C8C8"/>
<path d="M53.6959 38.5226C52.0747 32.5018 55.6106 26.1821 61.7741 24.5343C67.8439 22.9091 74.1333 26.5241 75.7659 32.6125C77.4018 38.7031 73.7923 44.9702 67.6877 46.6043C61.5694 48.244 55.3244 44.614 53.6959 38.5226Z" fill="#474F54"/>
<path d="M40.2288 68.1504C34.1404 66.5176 30.5177 60.2396 32.1503 54.1586C33.7728 48.09 40.0109 44.4343 46.1386 46.0804C52.2417 47.712 55.86 53.9687 54.2206 60.0722C52.5819 66.1948 46.3029 69.7777 40.2288 68.1504Z" fill="#FF435B"/>
<path d="M99.0903 83.92C93.0032 82.2907 89.3694 76.0432 91.0121 69.9282C92.6498 63.8101 98.9299 60.2205 105.004 61.85C111.092 63.4829 114.715 69.7609 113.082 75.8418C111.451 81.9454 105.179 85.5577 99.0903 83.92Z" fill="#99341F"/>
<path d="M23.1053 0.00109863C13.6622 0.00109863 11.6797 35.4655 11.6797 65.0002C11.6797 66.3276 11.6964 67.5456 11.7066 68.8087L19.7726 72.6173H23.1053H28.5005L34.5058 68.8087C34.5152 67.5451 34.5309 66.3489 34.5309 65.0002C34.5309 35.4652 32.5485 0.00109863 23.1053 0.00109863Z" fill="#B35324"/>
<path d="M34.506 68.8088C34.5154 67.5451 34.5311 66.3489 34.5311 65.0002C34.5311 35.4655 32.5486 0.00109863 23.1055 0.00109863V72.6173H28.5006L34.506 68.8088Z" fill="#99341F"/>
<path d="M23.1053 68.8087H11.7065C11.8426 85.6511 12.808 96.7154 12.8623 97.7335H23.1053H33.3482C33.4482 95.874 34.3798 86.3806 34.5057 68.8087H23.1053Z" fill="#FFF7E6"/>
<path d="M34.506 68.8087H23.1055V97.7335H33.3484C33.4482 95.8737 34.38 86.3803 34.506 68.8087Z" fill="#FFCCB3"/>
<path d="M23.1052 91.6599C14.7033 91.6599 7.87099 98.4922 7.87099 106.894V114.511C7.87099 118.71 4.19904 122.382 0 122.382V129.999H15.4881C18.1721 129.999 20.7109 129.449 23.1052 128.596C31.9524 125.441 38.3393 116.811 38.3393 106.894C38.3393 98.4922 31.5071 91.6599 23.1052 91.6599Z" fill="#474F54"/>
<path d="M38.3396 106.894C38.3396 98.4922 31.5074 91.6599 23.1055 91.6599V128.596C31.9527 125.441 38.3396 116.811 38.3396 106.894Z" fill="#32393F"/>
<path d="M80.2332 106.894C86.5434 106.894 91.6589 101.779 91.6589 95.4686C91.6589 89.1584 86.5434 84.043 80.2332 84.043C73.923 84.043 68.8076 89.1584 68.8076 95.4686C68.8076 101.779 73.923 106.894 80.2332 106.894Z" fill="#FFF7E6"/>
<path d="M91.659 95.4686C91.659 89.1583 86.5436 84.043 80.2334 84.043V106.894C86.5436 106.894 91.659 101.779 91.659 95.4686Z" fill="#FFE6CC"/>
</svg>
