<svg width="65" height="62" viewBox="0 0 65 62" fill="none" xmlns="http://www.w3.org/2000/svg">
<g clip-path="url(#clip0)">
<path d="M32.3965 5.57788C32.8063 5.57788 33.1384 5.25658 33.1384 4.86023C33.1384 4.46388 32.8063 4.14258 32.3965 4.14258C31.9868 4.14258 31.6547 4.46388 31.6547 4.86023C31.6547 5.25658 31.9868 5.57788 32.3965 5.57788Z" fill="#F2F2F2"/>
<path d="M49.0887 0.375H15.7043C13.1476 0.375 11.0676 2.38706 11.0676 4.86033V57.1294C11.0676 59.6027 13.1476 61.6147 15.7043 61.6147H49.0887C51.6455 61.6147 53.7255 59.6027 53.7255 57.1294V4.86033C53.7255 2.38706 51.6455 0.375 49.0887 0.375ZM51.8708 57.1294C51.8708 58.6134 50.6227 59.8206 49.0887 59.8206H15.7043C14.1704 59.8206 12.9223 58.6134 12.9223 57.1294V4.86033C12.9223 3.37635 14.1704 2.16913 15.7043 2.16913H49.0887C50.6227 2.16913 51.8708 3.37635 51.8708 4.86033V57.1294Z" fill="#F2F2F2"/>
<path d="M36.1059 52.644H28.6872C27.1532 52.644 25.9051 53.8513 25.9051 55.3352C25.9051 56.8192 27.1532 58.0264 28.6872 58.0264H36.1059C37.6399 58.0264 38.8879 56.8192 38.8879 55.3352C38.8879 53.8513 37.6399 52.644 36.1059 52.644ZM36.1059 56.2323H28.6872C28.1758 56.2323 27.7598 55.8299 27.7598 55.3352C27.7598 54.8405 28.1758 54.4382 28.6872 54.4382H36.1059C36.6173 54.4382 37.0333 54.8405 37.0333 55.3352C37.0333 55.8299 36.6173 56.2323 36.1059 56.2323Z" fill="#F2F2F2"/>
<path d="M49.0887 3.96338H37.6423C37.3964 3.96338 37.1606 4.05787 36.9865 4.22616L34.3652 6.76199C33.8364 7.27116 33.1372 7.55165 32.3965 7.55165C31.6555 7.55165 30.9577 7.27164 30.4314 6.76306C30.4271 6.75876 28.8045 5.19152 27.8065 4.22616C27.6326 4.05787 27.3967 3.96338 27.1507 3.96338H15.7043C15.1921 3.96338 14.777 4.36503 14.777 4.86045V25.6126C14.777 26.108 15.1921 26.5097 15.7043 26.5097C16.2166 26.5097 16.6317 26.108 16.6317 25.6126V5.75751H26.7667C26.7667 5.75751 29.017 7.93308 29.1253 8.02781L29.1206 8.03235C29.9972 8.8793 31.1604 9.34578 32.3965 9.34578C33.6309 9.34578 34.7948 8.87978 35.6752 8.03199L38.0264 5.75751H48.1614V49.0559H16.6317V29.2009C16.6317 28.7054 16.2166 28.3038 15.7043 28.3038C15.1921 28.3038 14.777 28.7054 14.777 29.2009V49.953C14.777 50.4484 15.1921 50.8501 15.7043 50.8501H49.0887C49.601 50.8501 50.0161 50.4484 50.0161 49.953V4.86045C50.0161 4.36503 49.601 3.96338 49.0887 3.96338Z" fill="#F2F2F2"/>
</g>
<defs>
<clipPath id="clip0">
<rect width="63.3067" height="61.2397" fill="white" transform="translate(0.743164 0.375)"/>
</clipPath>
</defs>
</svg>
