<svg width="54" height="55" viewBox="0 0 54 55" fill="none" xmlns="http://www.w3.org/2000/svg">
<g clip-path="url(#clip0)">
<path d="M52.5496 24.9216H32.5497C32.3287 24.9216 32.1168 25.0095 31.9605 25.166C31.8042 25.3224 31.7164 25.5346 31.7164 25.7558V28.7673C30.1951 27.8913 28.4715 27.4283 26.7165 27.4242H24.2165V25.7558C25.8576 24.5358 26.9935 22.7545 27.4081 20.7507H27.5498C28.1873 20.7471 28.8103 20.5606 29.3451 20.2133C29.8799 19.866 30.304 19.3725 30.5672 18.7913C30.8303 18.21 30.9214 17.5654 30.8297 16.9339C30.738 16.3024 30.4673 15.7105 30.0498 15.2283V12.4087C30.0498 9.53259 28.9084 6.77424 26.8768 4.7405C24.8452 2.70675 22.0897 1.56421 19.2165 1.56421C16.3434 1.56421 13.5879 2.70675 11.5563 4.7405C9.52464 6.77424 8.38329 9.53259 8.38329 12.4087V15.2283C7.96573 15.7105 7.69505 16.3024 7.60335 16.9339C7.51164 17.5654 7.60276 18.21 7.86588 18.7913C8.12901 19.3725 8.55312 19.866 9.08792 20.2133C9.62273 20.5606 10.2458 20.7471 10.8833 20.7507H11.0499C11.4581 22.7507 12.5848 24.5315 14.2166 25.7558V27.4242H11.7166C9.06445 27.4242 6.52093 28.4789 4.64558 30.3562C2.77023 32.2335 1.71667 34.7797 1.71667 37.4346V52.4501C1.71667 52.6713 1.80447 52.8835 1.96075 53.0399C2.11703 53.1964 2.32899 53.2842 2.55 53.2842H30.0498V51.6159H23.2582L20.8832 37.568L21.8915 35.5493L23.8082 36.5086C23.9343 36.5735 24.0748 36.605 24.2165 36.6004C24.3912 36.6008 24.5616 36.5463 24.7037 36.4445C24.8457 36.3427 24.9522 36.1988 25.0081 36.0331L27.3081 29.0926C28.9073 29.2125 30.438 29.7918 31.7164 30.761V52.4501C31.7164 52.6713 31.8042 52.8835 31.9605 53.0399C32.1168 53.1964 32.3287 53.2842 32.5497 53.2842H52.5496C52.7706 53.2842 52.9826 53.1964 53.1388 53.0399C53.2951 52.8835 53.3829 52.6713 53.3829 52.4501V25.7558C53.3829 25.5346 53.2951 25.3224 53.1388 25.166C52.9826 25.0095 52.7706 24.9216 52.5496 24.9216ZM27.5498 19.0823V15.7455C27.9918 15.7455 28.4157 15.9213 28.7283 16.2342C29.0409 16.5471 29.2164 16.9714 29.2164 17.4139C29.2164 17.8564 29.0409 18.2807 28.7283 18.5936C28.4157 18.9065 27.9918 19.0823 27.5498 19.0823ZM9.21661 17.4139C9.21661 16.9714 9.39221 16.5471 9.70476 16.2342C10.0173 15.9213 10.4412 15.7455 10.8833 15.7455V19.0823C10.4412 19.0823 10.0173 18.9065 9.70476 18.5936C9.39221 18.2807 9.21661 17.8564 9.21661 17.4139ZM10.8833 14.0771C10.6017 14.0814 10.3218 14.1207 10.0499 14.1939V12.4087C10.0499 9.97507 11.0157 7.64108 12.7348 5.92023C14.4538 4.19937 16.7854 3.2326 19.2165 3.2326C21.6477 3.2326 23.9792 4.19937 25.6983 5.92023C27.4174 7.64108 28.3831 9.97507 28.3831 12.4087V14.1939C28.1112 14.1207 27.8313 14.0814 27.5498 14.0771C27.5498 13.8559 27.462 13.6437 27.3057 13.4873C27.1494 13.3308 26.9375 13.2429 26.7165 13.2429C26.0696 13.2429 25.4317 13.0922 24.8531 12.8026C24.2745 12.513 23.7713 12.0926 23.3832 11.5745L22.3832 10.2398C22.3055 10.1362 22.2049 10.0521 22.0892 9.99422C21.9735 9.9363 21.8459 9.90615 21.7165 9.90615C21.5871 9.90615 21.4595 9.9363 21.3438 9.99422C21.2281 10.0521 21.1275 10.1362 21.0498 10.2398L20.0499 11.5745C19.6617 12.0926 19.1585 12.513 18.5799 12.8026C18.0014 13.0922 17.3634 13.2429 16.7165 13.2429H11.7166C11.4956 13.2429 11.2836 13.3308 11.1273 13.4873C10.9711 13.6437 10.8833 13.8559 10.8833 14.0771ZM12.5499 19.0823V14.9113H16.7165C17.6221 14.9113 18.5153 14.7003 19.3253 14.2948C20.1353 13.8894 20.8398 13.3008 21.3832 12.5756L21.7165 12.1334L22.0498 12.5756C22.9797 13.8086 24.3564 14.6265 25.8831 14.8529V19.0823C25.8831 20.8522 25.1808 22.5497 23.9305 23.8012C22.6803 25.0527 20.9846 25.7558 19.2165 25.7558C17.4484 25.7558 15.7528 25.0527 14.5025 23.8012C13.2523 22.5497 12.5499 20.8522 12.5499 19.0823ZM19.2165 27.4242C20.3642 27.4248 21.4994 27.1862 22.5498 26.7235V27.9581L19.2165 31.9622L15.8832 27.9581V26.7235C16.9337 27.1862 18.0689 27.4248 19.2165 27.4242ZM14.6999 34.59L12.8749 29.0926H14.6582L17.8999 32.9883L14.6999 34.59ZM3.38333 37.4346C3.378 35.321 4.17429 33.2843 5.61131 31.7358C7.04832 30.1874 9.01892 29.2427 11.1249 29.0926L13.4249 35.9997C13.475 36.1717 13.579 36.3229 13.7216 36.431C13.8641 36.5392 14.0377 36.5986 14.2166 36.6004C14.347 36.5996 14.4755 36.5681 14.5916 36.5086L16.5082 35.5493L17.5499 37.568L15.1749 51.6159H8.38329V39.9371H6.71663V51.6159H3.38333V37.4346ZM16.8665 51.6159L19.0915 38.2687H19.3415L21.5665 51.6159H16.8665ZM19.5332 36.6004H18.8999L17.9999 34.8068L19.2165 34.1979L20.4332 34.8068L19.5332 36.6004ZM23.6998 34.59L20.4999 32.9883L23.7748 29.0926H25.5581L23.6998 34.59ZM38.383 26.59H46.7163V28.2584H38.383V26.59ZM51.7163 51.6159H33.3831V26.59H36.7164V29.0926C36.7164 29.3139 36.8042 29.526 36.9605 29.6825C37.1167 29.8389 37.3287 29.9268 37.5497 29.9268H47.5496C47.7706 29.9268 47.9826 29.8389 48.1389 29.6825C48.2952 29.526 48.3829 29.3139 48.3829 29.0926V26.59H51.7163V51.6159Z" fill="#F2F2F2"/>
<path d="M38.4811 31.5952H35.1478C34.9268 31.5952 34.7148 31.6831 34.5585 31.8395C34.4022 31.996 34.3145 32.2082 34.3145 32.4294V35.7662C34.3145 35.9874 34.4022 36.1996 34.5585 36.3561C34.7148 36.5125 34.9268 36.6004 35.1478 36.6004H38.4811C38.7021 36.6004 38.9141 36.5125 39.0703 36.3561C39.2266 36.1996 39.3144 35.9874 39.3144 35.7662V32.4294C39.3144 32.2082 39.2266 31.996 39.0703 31.8395C38.9141 31.6831 38.7021 31.5952 38.4811 31.5952ZM37.6478 34.932H35.9811V33.2636H37.6478V34.932Z" fill="#F2F2F2"/>
<path d="M38.4811 38.2688H35.1478C34.9268 38.2688 34.7148 38.3567 34.5585 38.5131C34.4022 38.6696 34.3145 38.8818 34.3145 39.103V42.4398C34.3145 42.661 34.4022 42.8732 34.5585 43.0296C34.7148 43.1861 34.9268 43.274 35.1478 43.274H38.4811C38.7021 43.274 38.9141 43.1861 39.0703 43.0296C39.2266 42.8732 39.3144 42.661 39.3144 42.4398V39.103C39.3144 38.8818 39.2266 38.6696 39.0703 38.5131C38.9141 38.3567 38.7021 38.2688 38.4811 38.2688ZM37.6478 41.6056H35.9811V39.9372H37.6478V41.6056Z" fill="#F2F2F2"/>
<path d="M38.4811 44.9423H35.1478C34.9268 44.9423 34.7148 45.0301 34.5585 45.1866C34.4022 45.343 34.3145 45.5552 34.3145 45.7765V49.1132C34.3145 49.3345 34.4022 49.5467 34.5585 49.7031C34.7148 49.8595 34.9268 49.9474 35.1478 49.9474H38.4811C38.7021 49.9474 38.9141 49.8595 39.0703 49.7031C39.2266 49.5467 39.3144 49.3345 39.3144 49.1132V45.7765C39.3144 45.5552 39.2266 45.343 39.0703 45.1866C38.9141 45.0301 38.7021 44.9423 38.4811 44.9423ZM37.6478 48.279H35.9811V46.6106H37.6478V48.279Z" fill="#F2F2F2"/>
<path d="M40.981 31.5952H49.3143V33.2636H40.981V31.5952Z" fill="#F2F2F2"/>
<path d="M40.981 34.932H49.3143V36.6004H40.981V34.932Z" fill="#F2F2F2"/>
<path d="M40.981 38.2688H49.3143V39.9372H40.981V38.2688Z" fill="#F2F2F2"/>
<path d="M40.981 41.6055H49.3143V43.2739H40.981V41.6055Z" fill="#F2F2F2"/>
<path d="M40.981 44.9423H49.3143V46.6106H40.981V44.9423Z" fill="#F2F2F2"/>
<path d="M40.981 48.2791H49.3143V49.9474H40.981V48.2791Z" fill="#F2F2F2"/>
</g>
<defs>
<clipPath id="clip0">
<rect width="53.3329" height="53.3884" fill="white" transform="translate(0.148071 0.72998)"/>
</clipPath>
</defs>
</svg>
