<svg width="166" height="106" viewBox="0 0 166 106" fill="none" xmlns="http://www.w3.org/2000/svg">
<path d="M37.2662 106C58.3397 106 74.9792 88.9139 74.9792 67.8404C74.9792 46.7669 57.6716 29.6809 36.5981 29.6809C36.3873 29.6809 36.0693 29.7094 35.8585 29.713C44.1907 23.078 54.656 19.0798 66.111 19.0798C71.3812 19.0798 75.6223 14.8065 75.6223 9.53989C75.6223 4.27329 72.2315 0 66.9614 0C29.5557 0.00357819 -9.15527e-05 30.4348 -9.15527e-05 67.8404C-9.15527e-05 67.8476 -9.15527e-05 67.8547 -9.15527e-05 67.8654C-9.15527e-05 88.9282 16.1999 106 37.2662 106Z" fill="#333333" fill-opacity="0.05"/>
<path d="M126.645 106C147.718 106 164.386 88.9139 164.386 67.8404C164.386 46.7669 147.093 29.6809 126.016 29.6809C125.805 29.6809 125.494 29.7094 125.283 29.713C133.616 23.078 144.085 19.0798 155.54 19.0798C160.81 19.0798 165.054 14.8065 165.054 9.53989C165.054 4.27329 161.61 0 156.34 0C118.934 0.00357819 89.3249 30.4348 89.3249 67.8404C89.3249 67.8476 89.3249 67.8547 89.3249 67.8654C89.3249 88.9282 105.578 106 126.645 106Z" fill="#333333" fill-opacity="0.05"/>
</svg>
