<svg width="130" height="130" viewBox="0 0 130 130" fill="none" xmlns="http://www.w3.org/2000/svg">
<path d="M92.2497 2.50854C77.2017 2.50854 64.9999 8.13257 64.9999 15.081C64.9999 8.13257 52.7982 2.50854 37.7502 2.50854C22.7022 2.50854 10.5005 8.13257 10.5005 15.081V82.7206V83.205H10.5233H64.9771H65.0228H119.477H119.499V82.7206V15.081C119.499 8.13257 107.298 2.50854 92.2497 2.50854Z" fill="#FFE2E2"/>
<path d="M62.8037 82.0549H70.1558V104.118H62.8037V82.0549Z" fill="#87828E"/>
<path d="M64.4009 127.969H68.5731C71.3691 127.969 73.636 125.702 73.636 122.906V105.783C73.636 102.979 71.3625 100.705 68.5578 100.705H64.4009C61.5962 100.705 59.3228 102.979 59.3228 105.783V122.891C59.3228 125.695 61.5967 127.969 64.4009 127.969Z" fill="#87828E"/>
<path d="M119.499 15.082V83.205H111.882V15.082C111.882 8.72925 101.685 3.48354 88.4409 2.6355C89.6851 2.54917 90.9546 2.50854 92.2495 2.50854C107.296 2.50854 119.499 8.13003 119.499 15.082Z" fill="#FFCFCF"/>
<path d="M41.5593 2.6355C28.3155 3.48354 18.1187 8.72925 18.1187 15.082V83.205H10.5015V15.082C10.5015 8.13003 22.7042 2.50854 37.7507 2.50854C39.0456 2.50854 40.3151 2.54917 41.5593 2.6355Z" fill="#FFEFEE"/>
<path d="M119.499 82.7211C119.499 82.8801 119.492 83.0466 119.477 83.2056H65.0229C65.0076 83.0466 65 82.8801 65 82.7211C65 75.7798 77.2017 70.1482 92.2497 70.1482C107.298 70.1482 119.499 75.7798 119.499 82.7211Z" fill="#FFE2E2"/>
<path d="M64.9999 82.7211C64.9999 82.8801 64.9923 83.0466 64.9771 83.2056H10.5233C10.5081 83.0466 10.5005 82.8801 10.5005 82.7211C10.5005 75.7798 22.7022 70.1482 37.7502 70.1482C52.7982 70.1482 64.9999 75.7798 64.9999 82.7211Z" fill="#FFE2E2"/>
<path d="M119.499 82.7226C119.499 82.88 119.494 83.0476 119.478 83.205H111.861C111.876 83.0476 111.882 82.88 111.882 82.7226C111.882 76.3749 101.685 71.1292 88.4409 70.2761C89.6851 70.1898 90.9546 70.1492 92.2495 70.1492C107.296 70.1492 119.499 75.7808 119.499 82.7226Z" fill="#FFCFCF"/>
<path d="M18.1187 82.7226C18.1187 82.88 18.1237 83.0476 18.139 83.205H10.5218C10.5065 83.0476 10.5015 82.88 10.5015 82.7226C10.5015 75.7808 22.7042 70.1492 37.7507 70.1492C39.0456 70.1492 40.3151 70.1898 41.5593 70.2761C28.3155 71.1292 18.1187 76.3749 18.1187 82.7226Z" fill="#FFEFEE"/>
<path d="M65 91.231C78.7351 91.231 89.8696 80.0965 89.8696 66.3614C89.8696 52.6263 78.7351 41.4918 65 41.4918C51.2649 41.4918 40.1304 52.6263 40.1304 66.3614C40.1304 80.0965 51.2649 91.231 65 91.231Z" fill="#87828E"/>
<path d="M82.5855 83.9464C76.766 89.766 68.7578 92.0917 61.1914 90.9289C66.2391 90.157 71.0887 87.8261 74.9684 83.9464C84.6625 74.2523 84.6625 58.4746 74.9684 48.7753C71.0887 44.8956 66.2391 42.5699 61.1914 41.7929C68.7578 40.63 76.766 42.9609 82.5855 48.7753C92.2797 58.4746 92.2797 74.2523 82.5855 83.9464Z" fill="#796E84"/>
<path d="M55.0318 83.9464C58.9115 87.8261 63.7611 90.157 68.8088 90.9289C61.2424 92.0917 53.2342 89.766 47.4146 83.9464C37.7205 74.2523 37.7205 58.4746 47.4146 48.7753C53.2342 42.9609 61.2424 40.63 68.8088 41.7929C63.7611 42.5699 58.9115 44.8956 55.0318 48.7753C45.3377 58.4746 45.3377 74.2523 55.0318 83.9464Z" fill="#A4A4A5"/>
<path d="M65.0002 83.8983C74.6855 83.8983 82.537 76.0468 82.537 66.3615C82.537 56.6762 74.6855 48.8247 65.0002 48.8247C55.3149 48.8247 47.4634 56.6762 47.4634 66.3615C47.4634 76.0468 55.3149 83.8983 65.0002 83.8983Z" fill="#5FCDFF"/>
<path d="M77.4008 78.7617C72.998 83.1644 66.8484 84.7336 61.1914 83.4793C64.3398 82.7836 67.3359 81.2094 69.7836 78.7617C76.634 71.9113 76.634 60.8105 69.7836 53.9602C67.3359 51.5125 64.3398 49.9383 61.1914 49.2477C66.8484 47.9883 72.998 49.5625 77.4008 53.9602C84.2512 60.8105 84.2512 71.9113 77.4008 78.7617Z" fill="#30B6FF"/>
<path d="M60.2164 78.7617C62.6641 81.2094 65.6601 82.7836 68.8086 83.4793C63.1516 84.7336 57.0019 83.1644 52.5992 78.7617C45.7488 71.9113 45.7488 60.8105 52.5992 53.9602C57.0019 49.5625 63.1516 47.9883 68.8086 49.2477C65.6601 49.9383 62.6641 51.5125 60.2164 53.9602C53.366 60.8105 53.366 71.9113 60.2164 78.7617Z" fill="#73D7F9"/>
<path d="M69.7939 127.822C69.4028 127.918 68.9966 127.969 68.5751 127.969H64.4009C61.5978 127.969 59.3228 125.694 59.3228 122.891V105.782C59.3228 102.979 61.5978 100.704 64.4009 100.704H68.5599C68.9814 100.704 69.3927 100.755 69.7837 100.857C67.5696 101.4 65.9243 103.401 65.9243 105.782V122.891C65.9243 125.277 67.5747 127.283 69.7939 127.822Z" fill="#A4A4A5"/>
<path d="M92.2491 0.238647C79.7112 0.238647 69.2452 3.98123 64.9999 9.39451C60.7546 3.98123 50.2886 0.238647 37.7507 0.238647C21.3331 0.238647 8.47021 6.65232 8.47021 14.8433V82.9664C8.47021 84.0668 9.38732 84.9976 10.5218 84.9976H45.8351C45.8808 85.0484 45.9265 85.0941 45.9772 85.1449C50.1464 89.314 55.3515 91.8226 60.7698 92.6808V99.4347C58.6878 100.674 57.2913 102.949 57.2913 105.544V122.652C57.2913 126.572 60.4804 129.761 64.4007 129.761H68.5749C72.4851 129.761 75.669 126.577 75.669 122.667V105.544C75.669 102.949 74.2726 100.674 72.1854 99.4347V92.041C76.6836 90.8014 80.738 88.436 84.0226 85.1449C84.0733 85.0941 84.119 85.0484 84.1647 84.9976H119.478C119.544 84.9976 119.61 84.9926 119.671 84.9875C119.737 84.9824 119.798 84.9722 119.864 84.9621C120.814 84.7894 121.53 83.9617 121.53 82.9664V14.8433C121.53 6.65232 108.667 0.238647 92.2491 0.238647ZM64.8323 88.9484C52.8591 88.859 43.1843 79.6245 42.255 68.0469C41.056 53.9027 52.9028 42.1042 67.0312 43.3875C79.8036 44.4925 88.8981 55.9228 87.7448 68.0469C86.7967 79.8586 76.7883 89.0586 64.8323 88.9484ZM71.6065 122.667C71.6065 124.338 70.2456 125.699 68.5749 125.699H64.4007C62.7198 125.699 61.3538 124.333 61.3538 122.652C61.3538 122.415 61.3482 105.552 61.364 105.315C61.4351 104.315 61.9937 103.452 62.8011 102.954C63.2632 102.664 63.8116 102.497 64.4007 102.497H68.5597C69.1437 102.497 69.687 102.659 70.1542 102.954C70.9616 103.446 71.5202 104.31 71.5964 105.31C71.6121 105.548 71.6065 122.429 71.6065 122.667ZM68.1229 98.4343H64.8323V93.0058C64.8882 93.0109 64.944 93.0109 64.9999 93.0109C66.0409 93.0109 67.0819 92.95 68.1229 92.8281V98.4343ZM12.5327 14.8433C12.5327 9.85662 22.887 4.30115 37.7507 4.30115C52.6093 4.30115 62.9687 9.85662 62.9687 14.8433V39.3047C48.2467 40.3975 37.2104 53.1629 38.1722 67.8843C30.6819 67.6167 18.9149 69.5627 12.5327 74.9582V14.8433ZM12.8526 80.9351C15.6751 74.0538 30.5626 71.826 38.746 71.9519C39.4417 75.1004 40.7062 78.1523 42.5444 80.9351H12.8526ZM87.4554 80.9351C89.2937 78.1523 90.5581 75.1004 91.2538 71.9519C105.197 71.7371 115.258 76.3293 117.147 80.9351H87.4554ZM91.8276 67.8843C92.7899 53.1563 81.7465 40.397 67.0312 39.3047V14.8433C67.0312 9.85662 77.3905 4.30115 92.2491 4.30115C107.113 4.30115 117.467 9.85662 117.467 14.8433V74.9582C111.197 69.6576 99.5428 67.6086 91.8276 67.8843Z" fill="#5F266D"/>
<path d="M28.9402 23.4152H46.282C48.9658 23.4152 48.9698 19.3527 46.282 19.3527H28.9402C26.2549 19.3527 26.2564 23.4152 28.9402 23.4152Z" fill="#5F266D"/>
<path d="M22.0595 35.2523H53.163C55.8448 35.2523 55.8519 31.1898 53.163 31.1898H22.0595C19.3666 31.1898 19.3803 35.2523 22.0595 35.2523Z" fill="#5F266D"/>
<path d="M22.0593 47.0843H40.1323C42.8161 47.0843 42.8202 43.0219 40.1323 43.0219H22.0593C19.3755 43.0219 19.3714 47.0843 22.0593 47.0843Z" fill="#5F266D"/>
<path d="M33.6831 54.859H22.0593C19.3755 54.859 19.3714 58.9215 22.0593 58.9215H33.6831C36.3669 58.9215 36.371 54.859 33.6831 54.859Z" fill="#5F266D"/>
<path d="M106.732 54.859H95.1081C92.4243 54.859 92.4203 58.9215 95.1081 58.9215H106.732C109.415 58.9215 109.421 54.859 106.732 54.859Z" fill="#5F266D"/>
<path d="M83.581 23.4152H100.918C103.601 23.4152 103.606 19.3527 100.918 19.3527H83.581C80.8977 19.3527 80.8921 23.4152 83.581 23.4152Z" fill="#5F266D"/>
<path d="M107.803 31.1898H76.6998C74.0059 31.1898 74.0211 35.2523 76.6998 35.2523H107.803C110.484 35.2523 110.492 31.1898 107.803 31.1898Z" fill="#5F266D"/>
<path d="M107.803 43.0219H89.8674C87.1836 43.0219 87.1795 47.0843 89.8674 47.0843H107.803C110.489 47.0843 110.487 43.0219 107.803 43.0219Z" fill="#5F266D"/>
<path d="M84.434 68.387C85.7005 57.4315 77.7705 47.7724 67.0313 46.673C54.6915 45.374 44.1102 55.7989 45.5661 68.387C46.6218 77.8897 54.7067 85.6075 64.8325 85.6831H65.0001C75.4331 85.6831 83.393 77.7521 84.434 68.387ZM49.786 69.1234C47.7222 58.6944 56.5333 49.3791 67.0313 50.7609C75.8926 51.9167 81.9534 60.3382 80.2141 69.1234C76.9672 85.937 52.9436 85.4714 49.786 69.1234Z" fill="#5F266D"/>
<path d="M61.4148 58.4441C63.4633 56.713 60.8506 53.6133 58.7995 55.3363C56.8099 57.0171 52.4636 61.8662 53.2999 67.3613C53.7214 70.0527 57.7174 69.389 57.3167 66.7417C56.7668 63.5644 59.8588 59.6222 61.4148 58.4441Z" fill="#5F266D"/>
<path d="M61.2419 71.8808C61.0641 71.7589 60.8966 71.6421 60.729 71.5202C58.5535 69.9206 56.149 73.1737 58.3169 74.7905C58.5251 74.9429 58.7434 75.0952 58.9669 75.2476C61.2226 76.7522 63.4432 73.3631 61.2419 71.8808Z" fill="#5F266D"/>
</svg>
