<svg width="71" height="71" viewBox="0 0 71 71" fill="none" xmlns="http://www.w3.org/2000/svg">
<path d="M67.3531 5.61401H59.9667L58.6995 4.76718C55.1988 2.43205 51.1256 1.19769 46.9191 1.19769H38.6769C37.4603 1.19769 36.471 2.18805 36.471 3.40585C36.471 4.21404 36.7048 4.96261 37.0842 5.61512L30.9564 5.61401C29.1321 5.61401 27.6476 7.1001 27.6476 8.92625C27.6476 9.36236 27.7369 9.77639 27.8902 10.1584C27.2748 10.3251 26.7321 10.6608 26.3141 11.1201L25.1991 10.0038L23.5921 11.6114C22.9844 12.2208 22.0745 12.3975 21.2307 12.0442C20.4388 11.7163 19.9271 10.95 19.9271 10.0911V7.82217H13.3095V10.0911C13.3095 10.95 12.7977 11.7174 11.9606 12.0618C11.161 12.3997 10.2511 12.2208 9.64224 11.6114L8.03747 10.0038L3.35664 14.6896L4.9614 16.2971C5.56911 16.9065 5.74669 17.8174 5.39485 18.6609C5.06728 19.4537 4.30185 19.9671 3.44377 19.9671H1.17725V26.5915H3.44377C4.30185 26.5915 5.06838 27.1049 5.4136 27.9407C5.74779 28.7423 5.57022 29.6532 4.9625 30.2626L3.35664 31.869L8.03747 36.5548L9.64444 34.9472C10.2522 34.3378 11.161 34.1611 12.0047 34.5122C12.7966 34.8423 13.3095 35.6086 13.3095 36.4675V38.7364H14.4124V40.9733C14.4124 43.0865 14.6473 45.192 15.0841 47.25C14.0319 47.7258 13.0106 48.2812 12.0378 48.9304L10.7694 49.7772H3.38311C2.16657 49.7772 1.17725 50.7676 1.17725 51.9854V65.2343C1.17725 66.4521 2.16657 67.4425 3.38311 67.4425H10.0007C10.893 67.4425 11.6595 66.907 12.0069 66.1419C15.458 68.4119 19.5333 69.6507 23.6803 69.6507H33.1622C33.6166 69.6507 34.0501 69.5579 34.4449 69.3912C34.6357 69.4585 34.8254 69.5292 35.0185 69.5932L35.3681 69.7103L35.7177 69.5944C40.928 67.8565 45.4025 64.7872 48.847 60.8533C49.0621 60.8754 49.2804 60.9196 49.5043 61.0123C50.2962 61.3402 50.8091 62.1065 50.8091 62.9655V65.2343H57.4267V62.9655C57.4267 62.1065 57.9395 61.3391 58.7745 60.9936C59.5752 60.6601 60.484 60.8357 61.0928 61.4451L62.6987 63.0527L67.3795 58.367L65.7748 56.7594C65.167 56.15 64.9895 55.2391 65.3413 54.3956C65.6689 53.6029 66.4343 53.0895 67.2924 53.0895H69.5589V46.465H67.2924C66.4343 46.465 65.6678 45.9516 65.3226 45.1158C64.9884 44.3142 65.1659 43.4034 65.7737 42.7939L67.3784 41.1864L62.6976 36.5007L61.0906 38.1082C60.4829 38.7176 59.5741 38.8943 58.7292 38.541C57.9384 38.2142 57.4267 37.448 57.4267 36.589V34.3201H56.3238V23.3444C57.1543 22.9403 57.9572 22.4833 58.7281 21.9754C59.0745 22.7416 59.8421 23.2793 60.7355 23.2793H67.3531C68.5696 23.2793 69.5589 22.2889 69.5589 21.0711V7.82217C69.5589 6.60437 68.5696 5.61401 67.3531 5.61401ZM30.9564 7.82217L40.8827 7.82328V7.82217H44.379C45.0441 7.82217 45.6452 8.13021 46.0566 8.6425C45.5757 9.05764 45.1544 9.52687 44.7816 10.0303H30.9564C30.3486 10.0303 29.8534 9.53571 29.8534 8.92625C29.8534 8.3168 30.3486 7.82217 30.9564 7.82217ZM37.757 18.0261L35.7023 16.6548H43.0886V18.863H39.1577C38.6802 18.6046 38.2103 18.3297 37.757 18.0261ZM31.5784 18.863H30.9564C30.3486 18.863 29.8534 18.3683 29.8534 17.7589C29.8534 17.1494 30.3486 16.6548 30.9564 16.6548H35.0339L32.9802 18.0261C32.5258 18.3297 32.056 18.6046 31.5784 18.863ZM28.7505 12.2385H43.6015C43.3489 12.944 43.1923 13.6848 43.1316 14.4467H28.7505C28.1428 14.4467 27.6476 13.952 27.6476 13.3426C27.6476 12.7331 28.1428 12.2385 28.7505 12.2385ZM12.811 32.4575C11.1808 31.7774 9.32459 32.1417 8.08269 33.386L8.03747 33.4324L6.47572 31.869L6.52205 31.8227C7.76395 30.5784 8.12791 28.7202 7.43417 27.0552C6.76469 25.4323 5.19853 24.3834 3.44377 24.3834H3.38311V22.1752H3.44377C5.19853 22.1752 6.76469 21.1263 7.44851 19.468C8.12791 17.8373 7.76395 15.9802 6.52205 14.7359L6.47572 14.6896L8.03747 13.1262L8.0838 13.1725C9.3279 14.4191 11.1841 14.7812 12.8462 14.0856C14.4676 13.4154 15.5153 11.8476 15.5153 10.0911V10.0303H17.7212V10.0911C17.7212 11.8476 18.769 13.4165 20.4245 14.1C22.0524 14.7823 23.9097 14.4179 25.1527 13.1725L25.1991 13.1262L25.4439 13.3724C25.4572 14.8861 26.4928 16.148 27.8902 16.5278C27.7369 16.9088 27.6476 17.3228 27.6476 17.7589C27.6476 18.6841 28.0303 19.5199 28.6435 20.1216C27.1391 20.6207 25.5763 20.9188 23.9947 21.0137C23.0164 17.7975 20.0616 15.5507 16.6183 15.5507C12.361 15.5507 8.89776 19.0187 8.89776 23.2793C8.89776 26.7472 11.1687 29.7194 14.4124 30.681V33.587C13.9823 33.1089 13.4418 32.7192 12.811 32.4575ZM14.4124 19.7242V28.3205C12.4415 27.4604 11.1036 25.5206 11.1036 23.2782C11.1036 20.2342 13.5775 17.7578 16.6183 17.7578C18.833 17.7578 20.7509 19.0683 21.6234 21.0038C20.8723 20.9508 20.1234 20.8669 19.38 20.7189L14.4124 19.7242ZM10.0007 65.2343H3.38311V51.9854H10.0007V65.2343ZM33.1622 67.4425H23.6803C19.5477 67.4425 15.4988 66.0635 12.2065 63.5716V51.472L13.2609 50.7676C16.3966 48.6753 20.0473 47.5691 23.8171 47.5691H29.8534C29.8534 48.7869 28.8652 49.7772 27.652 49.7772H27.6476H24.3322V51.9854H27.6476H27.652H37.5739C38.1817 51.9854 38.6769 52.48 38.6769 53.0895C38.6769 53.6989 38.1817 54.1935 37.5739 54.1935H24.3388V56.4017H39.7798C40.3875 56.4017 40.8827 56.8963 40.8827 57.5058C40.8827 58.1152 40.3875 58.6099 39.7798 58.6099H24.3388V60.818H37.5739C38.1817 60.818 38.6769 61.3126 38.6769 61.9221C38.6769 62.5316 38.1817 63.0262 37.5739 63.0262H24.3388V65.2343H33.1622C33.7699 65.2343 34.2652 65.729 34.2652 66.3384C34.2652 66.9479 33.7699 67.4425 33.1622 67.4425ZM21.03 40.9733V27.6227C21.6653 27.6713 22.3017 27.6956 22.9325 27.6956C27.127 27.6956 30.9266 26.8355 34.2652 25.1518V49.7772H31.4461C31.8255 49.1247 32.0593 48.3772 32.0593 47.5691C32.0593 46.3513 31.07 45.3609 29.8534 45.3609H23.8171C23.0296 45.3609 22.2498 45.4183 21.4745 45.5044C21.1844 44.0161 21.03 42.4969 21.03 40.9733ZM43.0743 57.3611C43.0092 55.8993 42 54.6915 40.6401 54.3216C40.7934 53.9396 40.8827 53.5256 40.8827 53.0895C40.8827 51.2633 39.3982 49.7772 37.5739 49.7772H36.471V25.1518C39.8096 26.8366 43.6092 27.6956 47.8036 27.6956C48.4345 27.6956 49.0709 27.6713 49.7062 27.6227V40.9744C49.7062 47.1837 47.2852 53.021 43.0743 57.3611ZM36.407 66.9722C36.4468 66.7668 36.471 66.5548 36.471 66.3384C36.471 65.9498 36.3916 65.581 36.2681 65.2343H37.5739C39.332 65.2343 40.7614 63.8498 40.8629 62.1153C47.7882 57.307 51.912 49.457 51.912 40.9733V25.1452L50.6701 25.3042C49.7183 25.4256 48.7532 25.4875 47.8036 25.4875C43.3048 25.4875 39.3166 24.4286 35.9482 22.3397L35.3681 21.9798L34.7879 22.3397C31.4196 24.4286 27.4314 25.4875 22.9325 25.4875C21.9829 25.4875 21.019 25.4256 20.066 25.3042L18.8241 25.1452V40.9733C18.8241 42.6128 18.9874 44.2469 19.294 45.85C18.5738 46.0068 17.8657 46.2088 17.1653 46.4407C16.8091 44.6443 16.6183 42.8127 16.6183 40.9733V22.4181L18.9488 22.8851C20.2579 23.1468 21.5991 23.2793 22.9325 23.2793C26.956 23.2793 30.8538 22.099 34.2034 19.8633L35.3681 19.086L36.5328 19.8633C39.8824 22.099 43.779 23.2793 47.8036 23.2793C49.1371 23.2793 50.4782 23.1468 51.7885 22.8851L54.1179 22.4181V40.9744C54.1179 52.5297 47.0547 62.7833 36.407 66.9722ZM56.08 44.6322C58.1634 45.4371 59.6325 47.473 59.6325 49.7772C59.6325 52.8212 57.1587 55.2976 54.1179 55.2976C53.6635 55.2976 53.2212 55.2402 52.79 55.1331C54.5006 51.9103 55.6267 48.3618 56.08 44.6322ZM57.9241 40.5979C59.552 41.2802 61.4094 40.9159 62.6524 39.6705L62.6987 39.6241L64.2604 41.1875L64.2141 41.2338C62.9722 42.4781 62.6082 44.3363 63.302 46.0013C63.9715 47.6243 65.5376 48.6731 67.2924 48.6731H67.3531V50.8813H67.2924C65.5376 50.8813 63.9715 51.9302 63.2877 53.5885C62.6082 55.2192 62.9722 57.0763 64.2141 58.3206L64.2604 58.367L62.6987 59.9303L62.6524 59.884C61.4083 58.6386 59.552 58.2731 57.8888 58.9709C56.2686 59.6422 55.2208 61.2089 55.2208 62.9655V63.0262H53.015V62.9655C53.015 61.2276 51.9881 59.6786 50.3602 58.9808C50.8146 58.3692 51.2448 57.7409 51.6528 57.0962C52.4425 57.3645 53.2675 57.5058 54.1179 57.5058C58.3752 57.5058 61.8384 54.0379 61.8384 49.7772C61.8384 46.3347 59.5024 43.3106 56.2686 42.3622C56.2896 41.8996 56.3238 41.4403 56.3238 40.9733V39.4684C56.7539 39.9476 57.2943 40.3373 57.9241 40.5979ZM51.3562 20.72C49.3488 21.1208 47.2985 21.1506 45.2945 20.868V15.1367C45.2945 13.3437 46.0489 11.6644 47.3393 10.4687C48.4058 11.5827 49.8837 12.2385 51.4852 12.2385H51.912V10.0303H51.4852C50.1286 10.0303 48.911 9.27514 48.2955 8.04078C47.5499 6.54475 46.05 5.61401 44.379 5.61401H40.8783C39.6651 5.61401 38.6769 4.62365 38.6769 3.40585H46.9191C50.6889 3.40585 54.3396 4.51214 57.4752 6.60437L58.5296 7.30878V19.415C57.8282 19.9461 57.0914 20.4275 56.3238 20.8569V19.7242L51.3562 20.72ZM67.3531 21.0711H60.7355V7.82217H67.3531V21.0711Z" fill="#F2F2F2"/>
<path d="M52.822 14.7381C50.336 15.3597 48.3672 17.1848 47.5566 19.6182L49.6488 20.3171C50.2202 18.6024 51.6054 17.3184 53.3569 16.8801L54.3848 16.6228L53.8499 14.482L52.822 14.7381Z" fill="#F2F2F2"/>
<path d="M1.17725 43.1528H3.38311V45.3609H1.17725V43.1528Z" fill="#F2F2F2"/>
<path d="M5.58899 43.1527H7.79485V45.3609H5.58899V43.1527Z" fill="#F2F2F2"/>
<path d="M10.0007 43.1527H12.2065V45.3609H10.0007V43.1527Z" fill="#F2F2F2"/>
<path d="M58.5296 27.6956H60.7355V29.9038H58.5296V27.6956Z" fill="#F2F2F2"/>
<path d="M62.9413 27.6956H65.1472V29.9038H62.9413V27.6956Z" fill="#F2F2F2"/>
<path d="M67.353 27.6956H69.5589V29.9038H67.353V27.6956Z" fill="#F2F2F2"/>
</svg>
