<svg width="30" height="30" viewBox="0 0 30 30" fill="none" xmlns="http://www.w3.org/2000/svg">
<g clip-path="url(#clip0)">
<path d="M29.1211 14.1211H27.849L28.5305 12.9405C28.7732 12.5202 28.6292 11.9827 28.2088 11.74C27.7884 11.4971 27.2509 11.6412 27.0083 12.0616L25.8192 14.1211H22.3414L23.1305 12.303C23.2256 12.0838 23.2274 11.8352 23.1353 11.6146C23.0433 11.394 22.8654 11.2205 22.6426 11.1339L20.818 10.4248L23.2718 7.97104L25.5687 8.5865C25.645 8.60695 25.7214 8.61668 25.7968 8.61668C26.1848 8.61668 26.54 8.3577 26.6452 7.965C26.7708 7.49613 26.4926 7.0142 26.0237 6.88857L24.7071 6.53578L25.6065 5.63631C25.9498 5.29307 25.9498 4.7366 25.6065 4.39336C25.2633 4.05012 24.7068 4.05012 24.3636 4.39336L23.464 5.29289L23.1112 3.97611C22.9855 3.50725 22.5037 3.22893 22.0348 3.35467C21.5659 3.48029 21.2877 3.96223 21.4133 4.43109L22.0288 6.72814L19.5697 9.18732L18.8421 7.34379C18.7543 7.12148 18.5798 6.94447 18.3587 6.85359C18.1377 6.76266 17.8891 6.76576 17.6704 6.86209L15.8789 7.65088V4.18072L17.9383 2.99174C18.3587 2.74904 18.5027 2.2115 18.26 1.79115C18.0173 1.37074 17.4799 1.22672 17.0594 1.46947L15.8789 2.15104V0.878906C15.8789 0.393516 15.4854 0 15 0C14.5146 0 14.1211 0.393516 14.1211 0.878906V2.15104L12.9405 1.46947C12.5201 1.22666 11.9826 1.3708 11.74 1.79115C11.4973 2.2115 11.6413 2.74904 12.0616 2.99174L14.1211 4.18078V7.65861L12.303 6.86959C12.0837 6.77437 11.8352 6.77262 11.6146 6.86473C11.394 6.95678 11.2205 7.13467 11.1339 7.3575L10.4248 9.18199L7.97104 6.7282L8.5865 4.43121C8.71213 3.96234 8.43393 3.48041 7.96506 3.35479C7.49607 3.2291 7.01426 3.50742 6.88863 3.97623L6.53584 5.29295L5.63637 4.39342C5.29318 4.05018 4.73666 4.05018 4.39342 4.39342C4.05018 4.73666 4.05018 5.29313 4.39342 5.63637L5.29289 6.53584L3.97617 6.88863C3.5073 7.01426 3.2291 7.49619 3.35473 7.96506C3.4599 8.35775 3.81504 8.61674 4.20311 8.61674C4.2784 8.61674 4.35492 8.60695 4.43115 8.58656L6.7282 7.97109L9.18744 10.4303L7.34391 11.1579C7.1216 11.2457 6.94459 11.4202 6.85371 11.6413C6.76283 11.8624 6.76588 12.1109 6.86221 12.3296L7.65088 14.1211H4.18072L2.99168 12.0616C2.74898 11.6413 2.21145 11.4972 1.79109 11.74C1.37074 11.9827 1.22672 12.5202 1.46941 12.9405L2.15104 14.1211H0.878906C0.393516 14.1211 0 14.5146 0 15C0 15.4854 0.393516 15.8789 0.878906 15.8789H2.15098L1.46941 17.0594C1.22672 17.4797 1.37074 18.0173 1.79109 18.26C1.92949 18.3399 2.08061 18.3779 2.22973 18.3779C2.53348 18.3779 2.82891 18.2203 2.99168 17.9383L4.18072 15.8789H7.65855L6.86947 17.697C6.77432 17.9162 6.77256 18.1648 6.86461 18.3854C6.95666 18.606 7.13455 18.7795 7.35738 18.8661L9.18193 19.5752L6.7282 22.0289L4.43115 21.4134C3.96205 21.2876 3.48029 21.566 3.35473 22.0348C3.2291 22.5037 3.5073 22.9856 3.97617 23.1112L5.29295 23.4641L4.39342 24.3636C4.05018 24.7069 4.05018 25.2633 4.39342 25.6066C4.56504 25.7782 4.78998 25.864 5.01486 25.864C5.23975 25.864 5.46475 25.7783 5.63631 25.6066L6.53578 24.7071L6.88857 26.0238C6.99381 26.4165 7.34889 26.6754 7.73695 26.6754C7.81225 26.6754 7.88877 26.6657 7.965 26.6453C8.43387 26.5196 8.71213 26.0377 8.58645 25.5688L7.97098 23.2719L10.4302 20.8127L11.1578 22.6562C11.2456 22.8785 11.4201 23.0555 11.6412 23.1464C11.7483 23.1905 11.8618 23.2124 11.9754 23.2124C12.0962 23.2124 12.2168 23.1875 12.3295 23.1379L14.1211 22.3491V25.8193L12.0616 27.0083C11.6413 27.251 11.4973 27.7886 11.74 28.2089C11.9027 28.4909 12.1982 28.6485 12.5019 28.6485C12.651 28.6485 12.8021 28.6105 12.9405 28.5306L14.1211 27.849V29.1211C14.1211 29.6065 14.5146 30 15 30C15.4854 30 15.8789 29.6065 15.8789 29.1211V27.849L17.0594 28.5306C17.1978 28.6105 17.3489 28.6485 17.498 28.6485C17.8018 28.6485 18.0972 28.4909 18.26 28.2089C18.5027 27.7886 18.3587 27.251 17.9383 27.0083L15.8789 25.8193V22.3414L17.697 23.1304C17.9162 23.2256 18.1648 23.2273 18.3854 23.1353C18.606 23.0432 18.7795 22.8653 18.8661 22.6425L19.5752 20.818L22.0289 23.2717L21.4134 25.5688C21.2878 26.0377 21.566 26.5196 22.0349 26.6452C22.1111 26.6657 22.1876 26.6754 22.2629 26.6754C22.651 26.6754 23.0061 26.4164 23.1113 26.0237L23.4642 24.7069L24.3637 25.6065C24.5353 25.7781 24.7603 25.8639 24.9851 25.8639C25.21 25.8639 25.435 25.7781 25.6066 25.6065C25.9498 25.2632 25.9498 24.7068 25.6066 24.3635L24.7071 23.464L26.0238 23.1111C26.4926 22.9855 26.7708 22.5036 26.6452 22.0347C26.5195 21.5659 26.0377 21.2874 25.5688 21.4133L23.2718 22.0287L20.8126 19.5696L22.6562 18.8419C22.8785 18.7542 23.0555 18.5797 23.1463 18.3586C23.2372 18.1375 23.2342 17.889 23.1379 17.6702L22.3491 15.8789H25.8193L27.0083 17.9383C27.171 18.2203 27.4665 18.3779 27.7702 18.3779C27.9193 18.3779 28.0704 18.3399 28.2088 18.26C28.6292 18.0173 28.7732 17.4797 28.5305 17.0594L27.849 15.8789H29.1211C29.6065 15.8789 30 15.4854 30 15C30 14.5146 29.6065 14.1211 29.1211 14.1211ZM21.1542 12.4414L20.4252 14.1211H17.1219L19.46 11.783L21.1542 12.4414ZM17.5424 8.8391L18.2147 10.5424L15.8789 12.8781V9.57152L17.5424 8.8391ZM12.4414 8.84578L14.1211 9.57481V12.8781L11.783 10.54L12.4414 8.84578ZM8.8391 12.4576L10.5424 11.7853L12.8781 14.1211H9.57152L8.8391 12.4576ZM8.84578 17.5586L9.57481 15.8789H12.8781L10.54 18.217L8.84578 17.5586ZM12.4576 21.1609L11.7853 19.4576L14.1211 17.1219V20.4285L12.4576 21.1609ZM17.5586 21.1542L15.8789 20.4252V17.1219L18.217 19.46L17.5586 21.1542ZM21.1609 17.5424L19.4576 18.2147L17.1219 15.8789H20.4285L21.1609 17.5424Z" fill="#FDFDFD"/>
</g>
<defs>
<clipPath id="clip0">
<rect width="30" height="30" fill="white"/>
</clipPath>
</defs>
</svg>
