<svg width="130" height="130" viewBox="0 0 130 130" fill="none" xmlns="http://www.w3.org/2000/svg">
<g clip-path="url(#clip0)">
<path d="M127.84 65.5764L114.249 77.7629C114.021 77.9678 113.935 78.2884 114.03 78.5802L119.715 95.9288C119.858 96.3673 119.589 96.8333 119.138 96.9277L101.264 100.665C100.963 100.728 100.728 100.963 100.665 101.264L96.9278 119.137C96.8334 119.589 96.3675 119.858 95.929 119.715L78.5806 114.03C78.2888 113.934 77.9681 114.02 77.7632 114.249L65.5768 127.84C65.269 128.183 64.7318 128.183 64.424 127.84L52.2375 114.249C52.0326 114.02 51.7119 113.934 51.4202 114.03L34.0716 119.714C33.6331 119.858 33.1671 119.589 33.0727 119.137L29.3357 101.264C29.2727 100.963 29.0374 100.727 28.7365 100.664L10.863 96.9275C10.4113 96.833 10.1422 96.3671 10.2859 95.9286L15.9706 78.5802C16.0663 78.2884 15.9802 77.9678 15.7517 77.7629L2.15986 65.5764C1.81683 65.2686 1.81683 64.7314 2.15986 64.4236L15.7512 52.2372C15.9797 52.0323 16.0655 51.7116 15.9701 51.4198L10.2856 34.0712C10.1419 33.6327 10.4113 33.1668 10.8628 33.0723L28.7362 29.3353C29.0374 29.2724 29.2725 29.037 29.3354 28.7361L33.0724 10.8626C33.1669 10.4109 33.6328 10.1418 34.0713 10.2855L51.4197 15.9702C51.7114 16.0659 52.0321 15.9799 52.237 15.7513L64.4238 2.15974C64.7315 1.81671 65.2688 1.81671 65.5765 2.15974L77.763 15.7511C77.9679 15.9796 78.2886 16.0654 78.5803 15.97L95.929 10.2855C96.3675 10.1418 96.8334 10.4112 96.9278 10.8626L100.665 28.7361C100.728 29.0372 100.963 29.2724 101.264 29.3353L119.138 33.0723C119.589 33.1668 119.858 33.6327 119.715 34.0712L114.03 51.4196C113.934 51.7113 114.02 52.032 114.249 52.2369L127.84 64.4234C128.184 64.7314 128.184 65.2686 127.84 65.5764Z" fill="#FECE85"/>
<path d="M43.8452 13.78L33.4226 10.3632C33.6077 10.2489 33.8436 10.2111 34.0718 10.2845L44.4944 13.6988C44.3017 13.8204 44.0659 13.8509 43.8452 13.78Z" fill="#FEC165"/>
<path d="M71.6458 111.611L78.3601 113.996C78.1369 113.986 77.9163 114.077 77.7639 114.249L65.5759 127.84C65.269 128.183 64.7312 128.183 64.4242 127.84L60.2693 123.206L70.8287 111.83C71.0344 111.601 71.3541 111.515 71.6458 111.611Z" fill="#FEC165"/>
<path d="M94.8827 27.5709L91.4204 11.761L95.9278 10.2848C96.3665 10.1428 96.8332 10.4117 96.9271 10.8632L100.663 28.7356C100.689 28.8626 100.747 28.9766 100.828 29.0705L95.4811 28.1702C95.182 28.1062 94.9462 27.8728 94.8827 27.5709Z" fill="#FEC165"/>
<path d="M114.249 77.7639C114.021 77.9668 113.935 78.289 114.031 78.5807L119.716 95.9281C119.857 96.3668 119.589 96.8335 119.137 96.9275L101.265 100.664C100.963 100.727 100.727 100.963 100.663 101.265L96.9272 119.137C96.8332 119.589 96.3666 119.858 95.9278 119.716L90.3906 117.902C90.5376 117.793 90.6468 117.633 90.6874 117.438L94.6621 96.8005C94.7256 96.4986 94.9589 96.2627 95.2608 96.1993L110.985 93.224C111.436 93.13 111.705 92.6634 111.561 92.2272L106.457 76.389C106.361 76.0973 106.447 75.7776 106.675 75.5722L118.363 65.5756C118.706 65.2687 118.706 64.7309 118.363 64.4242L106.269 52.2895C106.041 52.0841 105.955 51.7644 106.049 51.4727L112.142 31.8805C112.169 31.7916 112.182 31.703 112.18 31.6167L119.137 33.0726C119.589 33.1665 119.858 33.6332 119.716 34.072L114.031 51.4193C113.935 51.7111 114.021 52.0333 114.249 52.2362L127.84 64.4242C128.183 64.7311 128.183 65.2689 127.84 65.5756L114.249 77.7639Z" fill="#FEC165"/>
<path d="M64.9999 104.671C86.9094 104.671 104.67 86.9095 104.67 65C104.67 43.0906 86.9094 25.3295 64.9999 25.3295C43.0905 25.3295 25.3293 43.0906 25.3293 65C25.3293 86.9095 43.0905 104.671 64.9999 104.671Z" fill="#FDB441"/>
<path d="M104.672 65C104.672 86.9106 86.9108 104.671 65.0002 104.671C60.5487 104.671 56.2694 103.938 52.2744 102.584C54.8566 103.114 57.53 103.39 60.2694 103.39C82.18 103.39 99.9407 85.6297 99.9407 63.7216C99.9407 46.2628 88.6632 31.4392 72.9952 26.1354C91.0731 29.8335 104.672 45.8289 104.672 65Z" fill="#FEA613"/>
<path d="M43.9449 75.1337C47.0001 75.1337 49.4768 72.657 49.4768 69.6018C49.4768 66.5466 47.0001 64.0699 43.9449 64.0699C40.8898 64.0699 38.4131 66.5466 38.4131 69.6018C38.4131 72.657 40.8898 75.1337 43.9449 75.1337Z" fill="#FB8801"/>
<path d="M86.0548 75.1337C89.11 75.1337 91.5867 72.657 91.5867 69.6018C91.5867 66.5466 89.11 64.0699 86.0548 64.0699C82.9996 64.0699 80.5229 66.5466 80.5229 69.6018C80.5229 72.657 82.9996 75.1337 86.0548 75.1337Z" fill="#FB8801"/>
<path d="M33.1983 85.3832C32.6306 84.4991 31.4535 84.2431 30.5696 84.8106C29.6855 85.3786 29.4293 86.5555 29.9971 87.4393C37.693 99.4201 50.778 106.573 64.9998 106.573C87.9233 106.573 106.573 87.9232 106.573 65.0001C106.573 42.0769 87.9233 23.4272 64.9998 23.4272C42.0764 23.4272 23.427 42.0767 23.427 65.0001C23.427 69.8657 24.2603 74.6323 25.9036 79.1668C26.2619 80.1545 27.3524 80.6648 28.3403 80.3071C29.328 79.9491 29.8386 78.858 29.4806 77.8703C27.9882 73.7527 27.2315 69.4226 27.2315 65.0001C27.2315 44.1747 44.1742 27.232 64.9996 27.232C85.8252 27.232 102.768 44.1747 102.768 65.0001C102.768 85.8255 85.8255 102.768 64.9998 102.768C52.0793 102.768 40.1909 96.2691 33.1983 85.3832Z" fill="black"/>
<path d="M129.11 63.0071L116.067 51.3124L121.523 34.6638C121.759 33.9414 121.677 33.1495 121.297 32.4914C120.916 31.833 120.271 31.3661 119.527 31.2104L102.376 27.6242L101.815 24.9399C101.599 23.9114 100.59 23.2525 99.5632 23.467C98.5347 23.6821 97.8753 24.6898 98.0901 25.7184L98.8028 29.1266C99.0209 30.1671 99.8344 30.9801 100.875 31.1975L117.514 34.6765L112.223 50.827C111.892 51.835 112.189 52.9443 112.979 53.6534L125.633 65L112.979 76.3463C112.189 77.055 111.892 78.1643 112.222 79.1725L117.514 95.3233L100.874 98.8023C99.8331 99.0199 99.0199 99.8334 98.8023 100.874L95.323 117.514L79.1725 112.222C78.1643 111.892 77.0542 112.189 76.3466 112.979L65 125.634L53.6537 112.979C52.9453 112.189 51.8355 111.892 50.8275 112.223L34.6767 117.514L31.1977 100.875C30.9801 99.8334 30.1666 99.0199 29.1256 98.8023L12.4858 95.3233L17.7778 79.1728C18.1083 78.1643 17.8113 77.0547 17.0211 76.3463L4.36643 65L17.0209 53.6537C17.811 52.9453 18.1081 51.836 17.7775 50.8275L12.4856 34.6767L29.1253 31.1977C30.1666 30.9801 30.9801 30.1666 31.1977 29.1256L34.6767 12.4858L50.8272 17.7778C51.8365 18.1083 52.9453 17.8113 53.6537 17.0211L65 4.36643L76.3466 17.0214C77.0552 17.8115 78.165 18.1086 79.1725 17.7775L95.3235 12.4856L96.2856 17.0899C96.5009 18.1185 97.5112 18.7784 98.537 18.5628C99.5655 18.3478 100.225 17.3398 100.01 16.3114L98.7898 10.4736C98.6342 9.72918 98.1675 9.08426 97.5091 8.70365C96.8513 8.3233 96.0591 8.24078 95.3365 8.47768L78.6876 13.9329L66.9929 0.889688C66.4859 0.324238 65.7594 0 65 0C64.2406 0 63.5141 0.324238 63.0071 0.889688L51.3124 13.9329L34.6638 8.47768C33.9417 8.24104 33.1495 8.3233 32.4914 8.70365C31.833 9.084 31.3663 9.72893 31.2104 10.4731L27.6245 27.6242L10.4731 31.2102C9.72893 31.3661 9.08375 31.8327 8.7034 32.4911C8.32305 33.1492 8.24078 33.9412 8.47742 34.6635L13.9326 51.3122L0.889434 63.0071C0.324238 63.5141 0 64.2406 0 65C0 65.7594 0.324238 66.4859 0.889687 66.9929L13.9329 78.6876L8.47768 95.3362C8.24078 96.0586 8.3233 96.8505 8.70365 97.5086C9.084 98.167 9.72893 98.6337 10.4734 98.7896L27.6245 102.376L31.2104 119.527C31.3663 120.271 31.833 120.916 32.4914 121.296C33.1497 121.677 33.9414 121.759 34.6638 121.522L51.3124 116.067L63.0073 129.11C63.5144 129.676 64.2406 130 65 130C65.7594 130 66.4859 129.676 66.9929 129.11L78.6878 116.067L95.336 121.522C96.0588 121.759 96.8508 121.676 97.5089 121.296C98.167 120.916 98.6339 120.271 98.7893 119.527L102.376 102.376L119.527 98.7893C120.271 98.6337 120.916 98.1668 121.297 97.5086C121.677 96.8503 121.759 96.0586 121.523 95.3362L116.068 78.6876L129.11 66.9932C129.676 66.4861 130 65.7597 130 65C130 64.2403 129.676 63.5139 129.11 63.0071Z" fill="black"/>
<path d="M53.431 60.4706V55.6753C53.431 54.6247 52.5791 53.7731 51.5287 53.7731C50.4783 53.7731 49.6262 54.6247 49.6262 55.6753V60.4706C49.6262 61.5213 50.4781 62.3729 51.5287 62.3729C52.5794 62.3729 53.431 61.5213 53.431 60.4706Z" fill="black"/>
<path d="M80.3739 60.4706V55.6753C80.3739 54.6247 79.5223 53.7731 78.4714 53.7731C77.4204 53.7731 76.5691 54.6247 76.5691 55.6753V60.4706C76.5691 61.5213 77.4207 62.3729 78.4714 62.3729C79.522 62.3729 80.3739 61.5213 80.3739 60.4706Z" fill="black"/>
<path d="M65 85.818C69.8326 85.818 74.1093 82.7407 75.6419 78.1604C75.9753 77.1641 75.4378 76.086 74.4415 75.7527C73.4461 75.4193 72.367 75.9565 72.0337 76.9531C71.0208 79.9797 68.1941 82.0132 64.9997 82.0132C61.8051 82.0132 58.9783 79.9794 57.966 76.9526C57.6326 75.9563 56.5545 75.4188 55.5582 75.7519C54.5619 76.0853 54.0244 77.1631 54.3575 78.1597C55.8903 82.7404 60.1671 85.818 65 85.818Z" fill="black"/>
</g>
<defs>
<clipPath id="clip0">
<rect width="130" height="130" fill="white"/>
</clipPath>
</defs>
</svg>
