<svg xmlns="http://www.w3.org/2000/svg"  viewBox="0 0 333333 333333" shape-rendering="geometricPrecision" text-rendering="geometricPrecision" image-rendering="optimizeQuality" fill-rule="evenodd" clip-rule="evenodd"><path d="M302077 0H31255C14069 0 1 14068 1 31256v270822c0 17186 14068 31254 31254 31254h270822c17186 0 31254-14068 31254-31254l2-270824C333333 14068 319265 0 302079 0h-2zm-33691 111998c1470-4920 0-8563-7029-8563h-23324c-5943 0-8627 3131-10161 6582 0 0-11822 28884-28628 47671-5431 5432-7924 7157-10863 7157-1470 0-3706-1726-3706-6646v-46138c0-5943-1662-8563-6582-8563h-36616c-3706 0-5943 2748-5943 5368 0 5623 8371 6902 9266 22685v34316c0 7541-1342 8883-4345 8883-7924 0-27095-29012-38533-62241-2237-6454-4473-9074-10416-9074H68182c-6646 0-7988 3131-7988 6582 0 6198 7924 36808 36808 77258 19235 27670 46393 42623 71060 42623 14825 0 16615-3323 16615-9074v-20896c0-6646 1406-7988 6071-7988 3450 0 9394 1725 23196 15081 15784 15784 18404 22877 27287 22877h23324c6646 0 9969-3323 8052-9905-2109-6518-9649-16039-19682-27287-5432-6390-13548-13356-16040-16806-3450-4473-2492-6391 0-10352 0 0 28373-40003 31376-53550h128z" fill="#45668e"/></svg>