<svg width="50" height="50" viewBox="0 0 50 50" fill="none" xmlns="http://www.w3.org/2000/svg">
<g clip-path="url(#clip0)">
<path d="M48.9884 13.5861C48.4235 11.487 46.7685 9.83238 44.6698 9.26714C40.8353 8.21777 25.4974 8.21777 25.4974 8.21777C25.4974 8.21777 10.16 8.21777 6.3255 9.22714C4.26714 9.79201 2.57179 11.4874 2.00692 13.5861C0.997925 17.4202 0.997925 25.3717 0.997925 25.3717C0.997925 25.3717 0.997925 33.3633 2.00692 37.1574C2.57216 39.2561 4.22677 40.9111 6.32587 41.4763C10.2003 42.5257 25.4978 42.5257 25.4978 42.5257C25.4978 42.5257 40.8353 42.5257 44.6698 41.5163C46.7689 40.9515 48.4235 39.2965 48.9887 37.1978C49.9977 33.3633 49.9977 25.4121 49.9977 25.4121C49.9977 25.4121 50.0381 17.4202 48.9884 13.5861Z" fill="#FF0000"/>
<path d="M20.614 32.7178L33.3683 25.3718L20.614 18.0259V32.7178Z" fill="white"/>
</g>
<defs>
<clipPath id="clip0">
<rect width="49" height="49" fill="white" transform="translate(0.997925 0.848633)"/>
</clipPath>
</defs>
</svg>
