<svg width="130" height="129" viewBox="0 0 130 129" fill="none" xmlns="http://www.w3.org/2000/svg">
<path d="M114.147 124.77H15.8533C10.0164 124.77 5.28442 120.08 5.28442 114.293V43.8323H124.716V114.293C124.716 120.08 119.984 124.77 114.147 124.77Z" fill="#636363"/>
<path d="M118.902 43.8323H5.28442V74.0999C6.00548 74.3536 6.75034 74.5601 7.519 74.7085L56.0597 83.6254H73.9413L118.902 75.3663V114.293C118.902 120.08 114.171 124.77 108.334 124.77H114.147C119.984 124.77 124.716 120.08 124.716 114.293V43.8323H118.902Z" fill="#494949"/>
<path d="M73.4552 78.3867V89.9111H56.5447V78.3867H73.4552Z" fill="#C9D2E3"/>
<path d="M56.5447 78.3867H73.4552V83.6254H56.5447V78.3867Z" fill="#ADBBD5"/>
<path d="M64.9999 78.3868H73.4551L121.464 69.5682C126.423 68.6037 130 64.2952 130 59.2867V41.9986C130 36.2123 125.268 31.5204 119.431 31.5204H10.5688C4.73197 31.5204 0 36.2123 0 41.9986V59.2867C0 64.2952 3.5765 68.6037 8.5356 69.5682L56.5446 78.3868H64.9999Z" fill="#636363"/>
<path d="M119.431 31.5204H113.089C118.926 31.5204 123.658 36.2123 123.658 41.9986V61.9267C123.658 65.0474 122.27 67.8949 120.025 69.8318L121.464 69.5683C126.423 68.6038 130 64.2953 130 59.2867V41.9986C130 36.2123 125.268 31.5204 119.431 31.5204Z" fill="#494949"/>
<path d="M65.7885 103.026L71.6005 101.225C72.7044 100.884 73.4552 99.8712 73.4552 98.7248V89.9111H56.5447V98.7248C56.5447 99.8712 57.2955 100.884 58.3994 101.225L64.2115 103.026C64.7252 103.186 65.2747 103.186 65.7885 103.026Z" fill="#FFD664"/>
<path d="M69.2271 89.9111V101.961L71.6005 101.225C72.7044 100.884 73.4552 99.8712 73.4552 98.7248V89.9111H69.2271Z" fill="#F9C646"/>
<path d="M49.1467 31.5203H33.2925V26.2817C33.2925 24.8353 34.4757 23.6624 35.9347 23.6624H46.5045C47.9635 23.6624 49.1467 24.8353 49.1467 26.2817V31.5203Z" fill="#FFD664"/>
<path d="M45.7111 23.6624V25.7586C45.7111 27.2049 44.5288 28.3779 43.0699 28.3779H33.2925V31.5213H49.1467V26.2827C49.1467 24.8353 47.9635 23.6624 46.5045 23.6624H45.7111Z" fill="#F9C646"/>
<path d="M96.7073 31.5203H80.853V26.2817C80.853 24.8353 82.0363 23.6624 83.4952 23.6624H94.0651C95.524 23.6624 96.7073 24.8353 96.7073 26.2817V31.5203Z" fill="#FFD664"/>
<path d="M93.2726 23.6624V25.7586C93.2726 27.2049 92.0894 28.3779 90.6304 28.3779H80.854V31.5213H96.7073V26.2827C96.7073 24.8353 95.524 23.6624 94.0651 23.6624H93.2726Z" fill="#F9C646"/>
<path d="M93.008 23.6625H84.5528V18.9479C84.5528 15.4821 81.7082 12.6612 78.211 12.6612H51.7889C48.2918 12.6612 45.4472 15.4811 45.4472 18.9479V23.6625H36.9919V18.9479C36.9919 10.8599 43.6292 4.27917 51.7879 4.27917H78.211C86.3698 4.27917 93.008 10.8599 93.008 18.9479V23.6625Z" fill="#C9D2E3"/>
<path d="M41.7478 18.948V23.6626H45.4473V18.948C45.4473 15.4821 48.2918 12.6613 51.789 12.6613H48.0895C44.5933 12.6613 41.7478 15.4811 41.7478 18.948Z" fill="#ADBBD5"/>
<path d="M78.2112 4.27917H74.5127C82.6714 4.27917 89.3087 10.8589 89.3087 18.9479V23.6625H93.0082V18.9479C93.0082 10.8599 86.3709 4.27917 78.2112 4.27917Z" fill="#ADBBD5"/>
</svg>
