<svg width="130" height="127" viewBox="0 0 130 127" fill="none" xmlns="http://www.w3.org/2000/svg">
<g clip-path="url(#clip0)">
<path d="M41.8338 2.96375H88.1667C91.0675 2.96375 93.4378 5.2698 93.4378 8.09137V53.1632C93.4378 55.9848 91.0672 58.2909 88.1667 58.2909H41.8338C38.9333 58.2914 36.5627 55.9854 36.5627 53.1635V8.09137C36.5627 5.2698 38.9333 2.96375 41.8338 2.96375Z" fill="#F87EA1"/>
<path d="M88.1666 60.2674H41.8337C37.8072 60.2674 34.5312 57.0805 34.5312 53.1637V8.09126C34.5312 4.1744 37.8072 0.987549 41.8337 0.987549H88.1666C92.193 0.987549 95.469 4.1744 95.469 8.09126V53.1634C95.469 57.0805 92.1933 60.2674 88.1666 60.2674ZM41.8337 4.93971C40.0472 4.93971 38.5937 6.35339 38.5937 8.09154V53.1637C38.5937 54.9016 40.0469 56.3155 41.8337 56.3155H88.1666C89.953 56.3155 91.4066 54.9019 91.4066 53.1637V8.09126C91.4066 6.35339 89.9533 4.93942 88.1666 4.93942H41.8337V4.93971Z" fill="black"/>
<path d="M7.30255 68.1711H53.6355C56.5359 68.1711 58.9065 70.4766 58.9065 73.2988V118.371C58.9065 121.193 56.5359 123.499 53.6355 123.499H7.30255C4.40206 123.499 2.03149 121.192 2.03149 118.371V73.2988C2.03149 70.4766 4.40176 68.1711 7.30255 68.1711Z" fill="#2BBBE9"/>
<path d="M53.6353 125.475H7.30241C3.276 125.475 0 122.288 0 118.371V73.2989C0 69.382 3.276 66.1952 7.30241 66.1952H53.6353C57.6617 66.1952 60.9377 69.382 60.9377 73.2989V118.371C60.9377 122.288 57.6617 125.475 53.6353 125.475ZM7.30241 70.1474C5.51594 70.1474 4.06242 71.561 4.06242 73.2992V118.371C4.06242 120.109 5.51564 121.523 7.30241 121.523H53.6353C55.4218 121.523 56.8753 120.109 56.8753 118.371V73.2989C56.8753 71.561 55.4221 70.1471 53.6353 70.1471H7.30241V70.1474Z" fill="black"/>
<path d="M76.3653 68.1711H122.698C125.599 68.1711 127.969 70.4766 127.969 73.2988V118.371C127.969 121.193 125.598 123.499 122.698 123.499H76.3653C73.4645 123.499 71.0942 121.192 71.0942 118.371V73.2988C71.0939 70.4766 73.4645 68.1711 76.3653 68.1711Z" fill="#FBAD4A"/>
<path d="M122.698 125.475H76.3654C72.339 125.475 69.063 122.288 69.063 118.371V73.2989C69.063 69.382 72.339 66.1952 76.3654 66.1952H122.698C126.724 66.1952 130 69.382 130 73.2989V118.371C130.001 122.288 126.725 125.475 122.698 125.475ZM76.3654 70.1474C74.5789 70.1474 73.1254 71.561 73.1254 73.2992V118.371C73.1254 120.109 74.5786 121.523 76.3654 121.523H122.698C124.484 121.523 125.938 120.109 125.938 118.371V73.2989C125.938 71.561 124.485 70.1471 122.698 70.1471H76.3654V70.1474Z" fill="black"/>
<path d="M77.1882 50.3879C76.3858 50.3879 75.6261 49.9225 75.3057 49.1548L63.9846 22.0457L52.6635 49.1551C52.2415 50.1665 51.0561 50.653 50.0174 50.242C48.9777 49.831 48.4776 48.6784 48.9001 47.6679L62.1032 16.0521C62.4138 15.3067 63.158 14.8196 63.9846 14.8196C64.8111 14.8196 65.5553 15.3067 65.8665 16.0521L79.0696 47.6679C79.4916 48.6793 78.9914 49.8316 77.9523 50.242C77.7015 50.341 77.4432 50.3879 77.1882 50.3879Z" fill="black"/>
<path d="M73.1253 36.5557H54.844V40.5075H73.1253V36.5557Z" fill="black"/>
<path d="M20.3126 113.619C19.1909 113.619 18.2812 112.734 18.2812 111.643V82.0032C18.2812 80.9119 19.1909 80.0271 20.3126 80.0271C21.4344 80.0271 22.344 80.9119 22.344 82.0032V111.643C22.3437 112.734 21.4344 113.619 20.3126 113.619Z" fill="black"/>
<path d="M30.3703 97.811C29.2486 97.811 28.339 96.9262 28.339 95.8349C28.339 94.7437 29.2486 93.8589 30.3703 93.8589C30.6777 93.8589 30.9862 93.8415 31.2838 93.8059C31.8923 93.7338 32.4817 93.5876 33.0387 93.3703C35.1811 92.5419 36.562 90.7956 36.562 88.92C36.5626 86.1956 33.7847 83.979 30.3703 83.979H20.3126C19.1909 83.979 18.2812 83.0942 18.2812 82.0029C18.2812 80.9117 19.1909 80.0269 20.3126 80.0269H30.3703C36.0249 80.0269 40.625 84.0155 40.625 88.9173C40.625 92.4232 38.2384 95.6121 34.5449 97.0405C33.6659 97.3832 32.7331 97.6151 31.7777 97.7282C31.3213 97.7835 30.8446 97.811 30.3703 97.811Z" fill="black"/>
<path d="M34.7213 113.619H20.3126C19.1909 113.619 18.2812 112.734 18.2812 111.643C18.2812 110.552 19.1909 109.667 20.3126 109.667H34.7213C37.9768 109.667 40.6253 107.008 40.6253 103.74C40.6253 100.471 37.9765 97.811 34.7213 97.811H20.3126C19.1909 97.811 18.2812 96.9262 18.2812 95.835C18.2812 94.7437 19.1909 93.8589 20.3126 93.8589H34.7213C40.217 93.8589 44.6877 98.2904 44.6877 103.737C44.6877 109.186 40.2167 113.619 34.7213 113.619Z" fill="black"/>
<path d="M101.508 113.619C91.4578 113.619 83.2815 105.641 83.2815 95.8351C83.2815 86.0294 91.4578 78.0513 101.508 78.0513C105.326 78.0513 108.981 79.1905 112.076 81.3458C112.988 81.9811 113.198 83.2156 112.545 84.1028C111.892 84.99 110.623 85.1946 109.711 84.5593C107.31 82.8871 104.473 82.0034 101.508 82.0034C93.6977 82.0034 87.3442 88.2084 87.3442 95.8354C87.3442 103.463 93.698 109.667 101.508 109.667C104.755 109.667 107.925 108.569 110.434 106.574C111.303 105.883 112.583 106.009 113.292 106.854C114.002 107.699 113.873 108.943 113.004 109.634C109.772 112.204 105.69 113.619 101.508 113.619Z" fill="black"/>
</g>
<defs>
<clipPath id="clip0">
<rect width="130" height="126.463" fill="white"/>
</clipPath>
</defs>
</svg>
