<svg width="25" height="25" viewBox="0 0 25 25" fill="none" xmlns="http://www.w3.org/2000/svg">
<path d="M12.5 0C19.4093 0 25 5.59116 25 12.5C25 19.4093 19.4088 25 12.5 25C5.59067 25 0 19.4088 0 12.5C0 5.59067 5.59116 0 12.5 0ZM12.5 23.0469C18.3297 23.0469 23.0469 18.3293 23.0469 12.5C23.0469 6.67026 18.3293 1.95312 12.5 1.95312C6.67026 1.95312 1.95312 6.67065 1.95312 12.5C1.95312 18.3297 6.67065 23.0469 12.5 23.0469Z" fill="#FDFDFD"/>
<path d="M12.5 6.29272C13.0394 6.29272 13.4766 6.72993 13.4766 7.26929V13.558C13.4766 14.0974 13.0394 14.5346 12.5 14.5346C11.9606 14.5346 11.5234 14.0974 11.5234 13.558V7.26929C11.5234 6.72993 11.9606 6.29272 12.5 6.29272Z" fill="#FDFDFD"/>
<path d="M12.5 18.3672C11.7719 18.3672 11.1816 17.7769 11.1816 17.0488C11.1816 16.3207 11.7719 15.7305 12.5 15.7305C13.2281 15.7305 13.8184 16.3207 13.8184 17.0488C13.8184 17.7769 13.2281 18.3672 12.5 18.3672Z" fill="#FDFDFD"/>
</svg>
