<svg width="78" height="79" viewBox="0 0 78 79" fill="none" xmlns="http://www.w3.org/2000/svg">
<g clip-path="url(#clip0)">
<path d="M38.7724 76.7036C36.058 76.7036 33.3452 76.156 30.8328 75.0621L18.8196 69.8344C14.4734 67.9419 9.87812 66.7434 5.16146 66.2714L1.21638 65.8764C0.566858 65.8117 0.0728149 65.2648 0.0728149 64.6117V52.2238C0.0728149 51.9488 0.162179 51.6812 0.327102 51.4616C0.622075 51.0666 7.6927 41.8199 18.4934 44.2257C24.5679 45.577 29.4589 48.1058 32.4922 49.9895C34.6943 51.3568 37.2757 52.079 39.9574 52.079H51.9706C54.0412 52.079 55.8612 53.1758 56.8791 54.8209L67.2256 42.8883C69.2316 40.2067 72.5133 38.5645 75.9491 38.5645H76.7222C77.1515 38.5645 77.5511 38.7812 77.7851 39.1405C78.0197 39.4998 78.0568 39.9544 77.8846 40.3471L68.5268 61.6363C66.4809 66.2925 62.315 69.8096 57.384 71.0438L55.7377 71.4555L46.1605 75.2905C43.8036 76.2338 41.2876 76.7036 38.7724 76.7036ZM2.61278 63.4611L5.41429 63.7418C10.3932 64.24 15.2443 65.5063 19.8331 67.5034L31.8456 72.7312C36.0697 74.5697 40.9411 74.6417 45.2182 72.929L54.8738 69.0627C54.9276 69.0416 54.9821 69.0242 55.038 69.0103L56.7679 68.5769C60.9433 67.5318 64.4706 64.5542 66.2019 60.6123L74.7373 41.1944C72.5518 41.5166 70.5408 42.6955 69.2011 44.4832L57.7393 57.7068C57.7407 57.7562 57.7415 57.805 57.7415 57.8552C57.7415 61.04 55.1528 63.6313 51.9713 63.6313H35.2102C33.0313 63.6313 30.8779 63.9811 28.8109 64.6706L28.3444 63.4851L27.9499 62.2771L28.0146 62.256C30.3344 61.4822 32.7574 61.0887 35.2102 61.0887H51.9713C53.7521 61.0887 55.2022 59.6377 55.2022 57.8544C55.2022 56.0711 53.7528 54.6202 51.9713 54.6202H39.9581C36.8027 54.6202 33.7586 53.7656 31.1547 52.1488C28.2892 50.3692 23.6699 47.9815 17.9441 46.7065C9.76478 44.8905 3.87913 51.1743 2.6135 52.6732V63.4611H2.61278Z" fill="#F2F2F2"/>
<path d="M50.0801 38.2773C48.1272 38.2773 45.9374 37.6736 43.5268 36.467C43.2347 36.3201 43.0095 36.0656 42.8991 35.7579C42.801 35.4823 40.532 28.949 44.1378 24.1177C46.7584 20.6056 51.6858 19.0237 58.7913 19.4201C59.4393 19.4557 59.9559 19.9757 59.9879 20.6259C60.0133 21.1307 60.5371 33.0444 54.4684 37.0111C53.1781 37.8554 51.7119 38.2773 50.0801 38.2773ZM45.1462 34.427C48.4818 35.9928 51.1481 36.1463 53.0807 34.883C56.6792 32.5302 57.4574 25.5461 57.4763 21.9111C51.9088 21.7751 48.1185 23.0311 46.1721 25.6384C43.8559 28.7432 44.7561 33.0139 45.1462 34.427Z" fill="#F2F2F2"/>
<path d="M30.6613 21.6231C28.4098 21.6231 25.8124 21.1401 23.5457 19.4783C19.7008 16.6578 17.9339 11.2883 18.2928 3.51934C18.3233 2.86987 18.8377 2.34768 19.4865 2.30913C20.0358 2.27786 33.0364 1.5833 37.4108 8.15655C39.448 11.2163 39.2809 15.2236 36.9161 20.0696C36.7722 20.3641 36.5208 20.5918 36.2135 20.7045C36.0428 20.7678 33.659 21.6231 30.6613 21.6231ZM35.7754 19.5117H35.7878H35.7754ZM20.7921 4.81028C20.6824 11.033 22.1115 15.2745 25.046 17.4273C28.5595 20.0041 33.3568 18.9088 34.8651 18.4688C36.5906 14.7203 36.7366 11.7275 35.2981 9.56604C32.6244 5.54848 24.7837 4.76301 20.7921 4.81028Z" fill="#F2F2F2"/>
<path d="M40.5778 54.1736C40.5378 54.1736 40.4979 54.1714 40.4572 54.1678C39.7808 54.1038 39.2744 53.5183 39.3085 52.8383C39.3834 51.343 39.5112 49.9248 39.6849 48.5808C40.2131 39.5856 39.9406 18.6382 26.7104 12.8432C26.0682 12.5617 25.7747 11.8126 26.0558 11.169C26.3363 10.5268 27.0868 10.2337 27.7283 10.5144C35.5248 13.929 40.4296 22.4303 41.9095 35.099C42.0425 36.2343 42.142 37.3536 42.2161 38.4438C45.7006 29.6298 51.0312 26.5155 51.3487 26.3373C51.9589 25.9919 52.7334 26.2115 53.0778 26.8217C53.42 27.4326 53.205 28.2057 52.5968 28.5505C52.4624 28.629 44.2882 33.5397 42.2365 48.6833C42.0803 51.2739 41.855 52.9256 41.834 53.0769C41.7461 53.7111 41.2048 54.1736 40.5778 54.1736Z" fill="#F2F2F2"/>
</g>
<defs>
<clipPath id="clip0">
<rect width="77.9189" height="78" fill="white" transform="translate(0.0728149 0.424194)"/>
</clipPath>
</defs>
</svg>
