<svg width="57" height="58" viewBox="0 0 57 58" fill="none" xmlns="http://www.w3.org/2000/svg">
<g clip-path="url(#clip0)">
<path d="M28.5826 0.515137C13.4678 0.515137 4.1123 11.763 4.1123 22.1846C4.1123 29.1062 7.27309 36.6139 12.5828 42.3423V52.3333C12.5824 52.8534 13.0034 53.2751 13.5229 53.2755C13.5233 53.2755 13.5236 53.2755 13.524 53.2755H17.2886V56.1019C17.2883 56.622 17.7092 57.0437 18.2287 57.0441C18.2291 57.0441 18.2294 57.0441 18.2298 57.0441H38.9354C39.455 57.0444 39.8763 56.623 39.8766 56.103C39.8766 56.1026 39.8766 56.1023 39.8766 56.1019V53.2755H43.6413C44.1608 53.2758 44.5821 52.8545 44.5824 52.3344C44.5824 52.334 44.5824 52.3337 44.5824 52.3333V42.3423C49.8922 36.6139 53.0529 29.1062 53.0529 22.1846C53.0529 11.763 43.6974 0.515137 28.5826 0.515137ZM37.9943 55.1598H19.171V53.2755H37.9943V55.1598ZM42.7001 51.3912H14.4651V49.5069H42.7001V51.3912ZM42.7001 47.6226H14.4651V45.7383H42.7001V47.6226ZM42.9583 41.321C42.7927 41.4963 42.7002 41.7284 42.7001 41.9697V43.854H14.4651V41.9697C14.465 41.7284 14.3725 41.4963 14.2069 41.321C9.06449 35.901 5.99464 28.7475 5.99464 22.1846C5.99464 12.6692 14.6305 2.39943 28.5826 2.39943C42.5347 2.39943 51.1706 12.6692 51.1706 22.1846C51.1706 28.7475 48.1008 35.901 42.9583 41.321Z" fill="#F2F2F2"/>
<path d="M46.6579 20.0886L44.5752 19.6525C44.4732 19.198 44.35 18.7425 44.2066 18.2917L45.8022 16.8664C46.1035 16.5968 46.1996 16.1649 46.0412 15.7927C45.4301 14.3806 44.6493 13.0483 43.7158 11.8254C43.4747 11.5034 43.055 11.3718 42.6736 11.4988L40.6608 12.1576C40.3409 11.8098 40.0055 11.4749 39.6571 11.1566L40.3152 9.15637C40.4419 8.77244 40.3098 8.35048 39.9871 8.10752C38.7596 7.17632 37.4235 6.39799 36.0083 5.78983C35.6385 5.63332 35.2101 5.72871 34.9413 6.02726L33.5084 7.62078C33.0552 7.47817 32.6003 7.3558 32.1434 7.2537L31.7013 5.04094C31.6135 4.60061 31.2271 4.28369 30.7785 4.28369H26.387C25.9385 4.28357 25.5522 4.60061 25.4642 5.04094L25.0221 7.2537C24.5662 7.35486 24.1113 7.47722 23.6572 7.62078L22.2243 6.02726C21.9547 5.72989 21.5272 5.63473 21.1572 5.78983C19.7422 6.39834 18.4061 7.17656 17.1784 8.10752C16.8557 8.35048 16.7236 8.77256 16.8503 9.15637L17.5094 11.1566C17.1601 11.4758 16.8247 11.8108 16.5057 12.1576L14.4938 11.4978C14.1122 11.3732 13.6938 11.504 13.4506 11.8236C12.5165 13.0471 11.7352 14.3803 11.1244 15.7937C10.966 16.1656 11.0622 16.5971 11.3633 16.8664L12.9588 18.2917C12.8154 18.7425 12.6923 19.1971 12.5903 19.6516L10.5076 20.0886C10.0716 20.1799 9.75934 20.5646 9.75946 21.0105V25.3891C9.75934 25.835 10.0717 26.2197 10.5076 26.311L12.5903 26.7471C12.6923 27.2016 12.8154 27.6571 12.9588 28.1079L11.3633 29.5332C11.062 29.8029 10.9659 30.2347 11.1244 30.6069C11.7354 32.019 12.5163 33.3513 13.4498 34.5743C13.6913 34.8955 14.1106 35.027 14.492 34.9008L16.5048 34.242C16.8247 34.5898 17.1601 34.9247 17.5084 35.2431L16.8503 37.2432C16.7235 37.6268 16.8556 38.0487 17.1784 38.2911C18.4057 39.2229 19.7418 40.0016 21.1572 40.6098C21.5271 40.7663 21.9554 40.6709 22.2243 40.3724L23.6572 38.7788C24.1121 38.9224 24.5708 39.0457 25.0285 39.1478L25.466 41.2225C25.5581 41.658 25.9422 41.9697 26.3869 41.9697H30.7784C31.2231 41.9697 31.6072 41.658 31.6993 41.2225L32.1369 39.1478C32.5946 39.0457 33.0532 38.9224 33.5081 38.7788L34.9411 40.3724C35.2098 40.6713 35.6382 40.7666 36.0081 40.6098C37.4235 40.0015 38.7596 39.2229 39.9869 38.2911C40.3097 38.0487 40.4418 37.6268 40.315 37.2432L39.6569 35.2439C40.0034 34.9265 40.3389 34.5916 40.6596 34.2429L42.6724 34.9016C43.0537 35.0278 43.4729 34.8968 43.7146 34.5759C44.6487 33.3524 45.43 32.0191 46.0408 30.6058C46.1992 30.2339 46.1031 29.8024 45.8019 29.533L44.2063 28.1078C44.3497 27.657 44.4728 27.2024 44.5748 26.7479L46.6575 26.3109C47.0935 26.2196 47.4059 25.8349 47.4058 25.389V21.0104C47.4061 20.5646 47.0938 20.1799 46.6579 20.0886ZM45.5237 24.6236L43.5834 25.0312C43.2086 25.1097 42.9185 25.4076 42.85 25.7847C42.7078 26.5643 42.5006 27.3307 42.2305 28.0757C42.0997 28.4374 42.202 28.8426 42.4887 29.0988L44.0328 30.478C43.6247 31.3225 43.1483 32.1321 42.6083 32.8988L40.6579 32.2602C40.2956 32.1414 39.8974 32.2533 39.6497 32.5436C39.1335 33.1497 38.5688 33.7129 37.9613 34.2273C37.6675 34.4756 37.554 34.8776 37.6746 35.2431L38.3124 37.1798C37.5423 37.7194 36.7293 38.1948 35.8814 38.6012L34.4945 37.0582C34.2394 36.7741 33.838 36.6727 33.4788 36.8015C32.7294 37.0698 31.9595 37.2766 31.1765 37.4198C30.7999 37.4878 30.5019 37.7773 30.4229 38.1522L30.0156 40.0854H27.1497L26.7426 38.1523C26.6634 37.7776 26.3655 37.488 25.9889 37.4199C25.206 37.2768 24.4359 37.07 23.6866 36.8016C23.3274 36.6714 22.9253 36.773 22.671 37.0583L21.284 38.6013C20.4363 38.1947 19.6232 37.7193 18.853 37.1799L19.4909 35.2422C19.6115 34.8768 19.4979 34.4747 19.2042 34.2265C18.5962 33.7128 18.0315 33.15 17.5157 32.5437C17.268 32.253 16.8694 32.1407 16.5066 32.2594L14.5572 32.8979C14.0169 32.1318 13.5408 31.3225 13.1335 30.4781L14.6767 29.099C14.9635 28.8428 15.0658 28.4377 14.9349 28.0758C14.6651 27.3304 14.4579 26.5637 14.3154 25.7839C14.2468 25.4067 13.9568 25.1087 13.582 25.0304L11.6417 24.6236V21.776L13.5819 21.3684C13.9567 21.29 14.2468 20.992 14.3153 20.6149C14.4575 19.8353 14.6648 19.069 14.9348 18.3239C15.0656 17.9622 14.9633 17.557 14.6766 17.3009L13.1325 15.9217C13.5404 15.0774 14.0168 14.2681 14.5571 13.5019L16.5064 14.1405C16.8696 14.2592 17.2684 14.1469 17.5166 13.8562C18.0331 13.2497 18.5981 12.6862 19.2058 12.1715C19.4984 11.9229 19.6111 11.5214 19.4908 11.1567L18.8529 9.21996C19.6232 8.68023 20.4366 8.2048 21.2849 7.7985L22.6708 9.3415C22.9247 9.62744 23.3273 9.72919 23.6865 9.59824C24.4354 9.32949 25.2052 9.12292 25.988 8.98089C26.3685 8.91223 26.6683 8.61781 26.7445 8.23836L27.1581 6.16799H30.0074L30.421 8.23813C30.4968 8.61769 30.7968 8.91223 31.1775 8.98066C31.9603 9.12292 32.73 9.32937 33.479 9.598C33.8381 9.72743 34.2399 9.62591 34.4946 9.34126L35.8815 7.79826C36.7293 8.20492 37.5423 8.68035 38.3126 9.21973L37.6747 11.1574C37.5541 11.5228 37.6676 11.9249 37.9614 12.1731C38.5693 12.6868 39.1341 13.2497 39.6498 13.8559C39.8981 14.1459 40.2962 14.258 40.659 14.1402L42.6084 13.5017C43.1486 14.2678 43.6249 15.0771 44.0321 15.9215L42.489 17.3007C42.2022 17.5568 42.0999 17.9619 42.2308 18.3237C42.5006 19.0691 42.7078 19.8357 42.8503 20.6156C42.9189 20.9928 43.2089 21.2908 43.5837 21.3691L45.5237 21.776V24.6236Z" fill="#F2F2F2"/>
<path d="M36.8087 23.1268C37.2651 22.3211 37.6458 21.4747 37.9456 20.5984C38.8188 17.9771 38.566 15.7993 37.2342 14.4662C35.9042 13.133 33.7297 12.8809 31.1084 13.754C30.233 14.0541 29.3875 14.4352 28.5826 14.8922C27.7778 14.4352 26.9323 14.0541 26.0569 13.754C23.4374 12.8809 21.2619 13.1321 19.9311 14.4662C18.5993 15.7993 18.3465 17.9772 19.2197 20.5984C19.5195 21.4747 19.9002 22.3211 20.3566 23.1268C19.9 23.9324 19.5195 24.7788 19.2197 25.6551C18.3465 28.2764 18.5992 30.4542 19.9311 31.7874C20.8141 32.624 21.9987 33.0656 23.2132 33.0111C24.1822 32.9935 25.1423 32.8208 26.0569 32.4995C26.9323 32.1994 27.7778 31.8185 28.5826 31.3614C29.3875 31.8185 30.233 32.1994 31.1084 32.4995C32.023 32.8208 32.983 32.9935 33.9521 33.0111C35.1667 33.0655 36.3512 32.6239 37.2342 31.7874C38.566 30.4542 38.8188 28.2763 37.9456 25.6551C37.6458 24.7788 37.2651 23.9324 36.8087 23.1268ZM21.2619 15.7984C21.8013 15.323 22.508 15.0825 23.2252 15.1304C23.9876 15.1478 24.7425 15.2867 25.4614 15.5417C25.8986 15.6915 26.3267 15.8661 26.744 16.0647C24.7349 17.5116 22.9734 19.2749 21.528 21.286C21.3296 20.8684 21.1551 20.4398 21.0054 20.0021C20.3787 18.1207 20.4725 16.5888 21.2619 15.7984ZM25.4614 30.7118C23.5818 31.3402 22.0515 31.2463 21.262 30.455C20.4725 29.6647 20.3787 28.1328 21.0056 26.2513C21.1552 25.8137 21.3297 25.3851 21.528 24.9674C22.2491 25.9716 23.0506 26.9155 23.9246 27.7896C24.7979 28.6645 25.7407 29.4668 26.7438 30.1887C26.3267 30.3874 25.8984 30.5621 25.4614 30.7118ZM22.5482 23.1268C24.1253 20.7208 26.1791 18.6646 28.5826 17.0861C30.9862 18.6648 33.0401 20.7208 34.6171 23.1268C33.04 25.5328 30.9862 27.5889 28.5826 29.1675C26.1791 27.5889 24.1252 25.5328 22.5482 23.1268ZM35.9034 30.455C35.1129 31.2463 33.5835 31.3402 31.704 30.7118C31.2669 30.562 30.8387 30.3873 30.4215 30.1888C32.4305 28.7419 34.192 26.9785 35.6374 24.9674C35.8359 25.3851 36.0103 25.8137 36.1599 26.2513C36.7866 28.1329 36.6929 29.6647 35.9034 30.455ZM36.1597 20.0023C36.0101 20.4399 35.8356 20.8684 35.6373 21.2862C34.1919 19.275 32.4304 17.5117 30.4213 16.0648C30.8385 15.8661 31.2667 15.6915 31.7039 15.5417C32.4228 15.2867 33.1777 15.1478 33.9401 15.1304C34.6573 15.0825 35.3639 15.323 35.9034 15.7984C36.6929 16.5888 36.7867 18.1207 36.1597 20.0023Z" fill="#F2F2F2"/>
<path d="M28.5827 21.7135C27.803 21.7135 27.1709 22.3463 27.1709 23.1267C27.1709 23.9072 27.803 24.5399 28.5827 24.5399C29.3623 24.5399 29.9944 23.9072 29.9944 23.1267C29.9936 22.3466 29.3619 21.7143 28.5827 21.7135ZM28.5827 23.5978C28.3228 23.5978 28.1121 23.3869 28.1121 23.1267C28.1121 22.8666 28.3228 22.6557 28.5827 22.6557C28.8425 22.6557 29.0532 22.8666 29.0532 23.1267C29.0528 23.3866 28.8423 23.5973 28.5827 23.5978Z" fill="#F2F2F2"/>
<path d="M4.11232 2.39943V1.72674V0.515137H2.22999V1.72674V2.39943H0.347656V4.28373H2.22999V6.16803H4.11232V4.28373H5.99465V2.39943H4.11232Z" fill="#F2F2F2"/>
<path d="M54.9353 2.39943V1.72674V0.515137H53.053V1.72674V2.39943H51.1707V4.28373H53.053V6.16803H54.9353V4.28373H56.8177V2.39943H54.9353Z" fill="#F2F2F2"/>
<path d="M6.93581 53.2754V51.3911H5.05347V53.2754H3.17114V55.1597H5.05347V55.6308V57.044H6.93581V55.6308V55.1597H8.81814V53.2754H6.93581Z" fill="#F2F2F2"/>
<path d="M54.9353 51.3911V50.7184V49.5068H53.053V50.7184V51.3911H51.1707V53.2754H53.053V55.1597H54.9353V53.2754H56.8177V51.3911H54.9353Z" fill="#F2F2F2"/>
</g>
<defs>
<clipPath id="clip0">
<rect width="56.47" height="56.5289" fill="white" transform="translate(0.347656 0.515137)"/>
</clipPath>
</defs>
</svg>
