<svg width="90" height="135" viewBox="0 0 90 135" fill="none" xmlns="http://www.w3.org/2000/svg">
<path d="M81.7775 77.1067L62.958 68.3938C60.458 67.2364 58.8466 64.6537 58.8466 61.8039V48.4618L31.1549 48.4622V61.8043C31.1549 64.6541 29.544 67.2364 27.0436 68.3938L8.22369 77.1067C3.2233 79.4215 0.000976562 84.5869 0.000976562 90.2866V127.789C0.000976562 131.771 3.10065 135 6.9239 135H83.0773C86.9009 135 90.0002 131.771 90.0002 127.789V90.287C90.0002 84.5873 86.7779 79.4219 81.7775 77.1067Z" fill="#B48764"/>
<path d="M6.92333 135L83.0767 135C86.9004 135 89.9996 131.771 89.9996 127.788V90.2868C89.9996 84.5867 86.7769 79.4217 81.7769 77.1065L63.0854 68.4533L49.8957 81.6431C47.1919 84.3468 42.8085 84.3468 40.1048 81.6431L26.9146 68.4529L8.22272 77.1065C3.22233 79.4213 0 84.5863 0 90.2864V127.788C0 131.771 3.09967 135 6.92333 135Z" fill="#5D5360"/>
<path d="M31.1543 48.4618V61.8038C31.1543 63.1246 30.7772 64.3709 30.157 65.4616C34.5721 67.8645 39.6297 69.231 45.0005 69.231C50.3709 69.231 55.4281 67.8649 59.8437 65.462C59.223 64.3713 58.8464 63.1246 58.8464 61.8038V48.4618H31.1543Z" fill="#966D50"/>
<path d="M45.0004 62.3078C31.618 62.3078 20.7698 51.4592 20.7698 38.0772V17.308H69.2315V38.0772C69.231 51.4592 58.3824 62.3078 45.0004 62.3078Z" fill="#C39772"/>
<path d="M34.6153 38.0768V17.3076H20.769V38.0768C20.769 51.4592 31.6177 62.3074 44.9997 62.3074C47.4071 62.3074 49.728 61.9444 51.9226 61.2908C41.9165 58.3105 34.6153 49.0518 34.6153 38.0768Z" fill="#B48764"/>
<path d="M48.4621 0H41.5392C28.1568 0 17.3086 10.8487 17.3086 24.2306V29.7682C17.3086 32.3332 20.0304 34.075 22.2991 32.8785C25.8108 31.0264 29.93 27.5707 32.6979 23.8429C33.8158 22.3373 35.9651 22.1143 37.4682 23.2358C48.4523 31.4322 63.7514 29.5484 69.9364 28.3268C71.5482 28.0086 72.6936 26.5796 72.6936 24.9369V24.2311C72.6928 10.8487 61.8441 0 48.4621 0Z" fill="#5C414B"/>
<path d="M22.2985 32.8786C25.8102 31.0264 29.929 27.5707 32.6969 23.8429C33.1204 23.2725 33.7111 22.9469 34.34 22.7481C29.4462 15.9359 29.1124 8.34211 29.7203 3.08777C22.3179 7.23452 17.3076 15.1428 17.3076 24.2311V29.7686C17.3076 32.3336 20.0294 34.0755 22.2985 32.8786Z" fill="#503441"/>
<path d="M17.3077 104.686C17.3077 101.932 16.2137 99.2904 14.2661 97.3428L1.24629 84.323C0.443693 86.162 0 88.1866 0 90.2861V127.788C0 131.771 3.09967 135 6.92292 135H17.3077V104.686Z" fill="#6F6571"/>
<path d="M72.6921 104.686C72.6921 101.932 73.7861 99.2904 75.7338 97.3428L88.7536 84.323C89.5562 86.162 89.9999 88.1866 89.9999 90.2861V127.788C89.9999 131.771 86.9002 135 83.0769 135H72.6921V104.686Z" fill="#6F6571"/>
<path d="M41.5383 82.7133V135L48.4612 135V82.7133C46.3214 83.9554 43.6786 83.9554 41.5383 82.7133Z" fill="#6F6571"/>
</svg>
