<svg width="61" height="59" viewBox="0 0 61 59" fill="none" xmlns="http://www.w3.org/2000/svg">
<g clip-path="url(#clip0)">
<path d="M60.448 6.23889C60.7408 4.92043 59.4045 3.80872 58.1011 4.28985L1.56063 25.1692C0.880156 25.4205 0.430061 26.0515 0.428653 26.756C0.427246 27.4607 0.87476 28.0933 1.5543 28.3472L17.4376 34.2813V52.9721C17.4376 53.7605 17.9972 54.4457 18.7902 54.628C19.5779 54.8092 20.3993 54.4467 20.7685 53.738L27.3377 41.1278L43.3689 52.6368C44.344 53.3369 45.7457 52.8916 46.1005 51.7665C61.0684 4.2936 60.4213 6.35816 60.448 6.23889ZM46.491 12.2211L18.9478 31.1962L7.09679 26.7686L46.491 12.2211ZM20.9567 33.9914L44.965 17.4517C24.3062 38.5341 25.3852 37.4245 25.2951 37.5418C25.1612 37.716 25.5279 37.0371 20.9567 45.8121V33.9914ZM43.4624 48.4646L29.3512 38.3341L54.8661 12.2959L43.4624 48.4646Z" fill="#F2F2F2"/>
</g>
<defs>
<clipPath id="clip0">
<rect width="60.0601" height="58.0996" fill="white" transform="translate(0.428528 0.375)"/>
</clipPath>
</defs>
</svg>
