<svg width="130" height="130" viewBox="0 0 130 130" fill="none" xmlns="http://www.w3.org/2000/svg">
<path d="M30.7227 79.8535H7.87109C5.76773 79.8535 4.0625 78.1483 4.0625 76.0449C4.0625 73.9416 5.76773 72.2363 7.87109 72.2363H30.7227C32.826 72.2363 34.5312 73.9416 34.5312 76.0449C34.5312 78.1483 32.826 79.8535 30.7227 79.8535Z" fill="#EFEFEF"/>
<path d="M30.7227 72.2363H23.1055C25.2088 72.2363 26.9141 73.9416 26.9141 76.0449C26.9141 78.1483 25.2088 79.8535 23.1055 79.8535H30.7227C32.826 79.8535 34.5312 78.1483 34.5312 76.0449C34.5312 73.9416 32.826 72.2363 30.7227 72.2363Z" fill="#DCDCDC"/>
<path d="M30.7227 95.0879H99.2773V120.479H30.7227V95.0879Z" fill="#EA9F54"/>
<path d="M91.6602 95.0879H99.2773V120.479H91.6602V95.0879Z" fill="#D78B3E"/>
<path d="M7.87109 79.8535H30.7227V120.479H7.87109V79.8535Z" fill="#E82A40"/>
<path d="M23.1055 79.8535H30.7227V120.479H23.1055V79.8535Z" fill="#D6243A"/>
<path d="M60.335 120.479H50.1787V114.046C50.1787 111.257 52.4397 108.996 55.2289 108.996H55.2848C58.0739 108.996 60.335 111.257 60.335 114.046V120.479Z" fill="#3B6277"/>
<path d="M79.8213 120.479H69.665V114.046C69.665 111.257 71.9261 108.996 74.7152 108.996H74.7711C77.5603 108.996 79.8213 111.257 79.8213 114.046V120.479Z" fill="#3B6277"/>
<path d="M34.094 63.827C34.094 67.917 30.8198 72.2364 30.8198 72.2364H8.69014C8.69014 72.2364 5.41602 67.9167 5.41602 63.827C5.41602 59.7447 8.61422 55.6627 12.0404 52.3616C15.4666 49.0606 16.872 47.1238 16.872 45.2319C16.872 44.8788 16.9733 44.5385 17.1376 44.2191C18.2134 42.1297 21.2895 42.1292 22.3698 44.2161C22.5356 44.5365 22.6377 44.8775 22.6377 45.2319C22.6377 47.1238 24.0355 49.0606 27.4693 52.3616C30.8958 55.6624 34.094 59.7447 34.094 63.827Z" fill="#70D7E5"/>
<path d="M27.4696 52.3616C24.0358 49.0606 22.638 47.1238 22.638 45.2319C22.638 44.8775 22.536 44.5365 22.3702 44.2163C21.2898 42.1294 18.2135 42.13 17.1379 44.2194C16.9734 44.5388 16.8723 44.879 16.8723 45.2322C16.8723 46.0894 16.5798 46.9575 15.9453 47.9561C16.7098 49.1611 17.975 50.5566 19.8527 52.3619C23.2789 55.6629 26.4771 59.745 26.4771 63.8273C26.4771 67.9172 23.2027 72.2366 23.2027 72.2366H30.8199C30.8199 72.2366 34.0943 67.9169 34.0943 63.8273C34.094 59.7447 30.8958 55.6624 27.4696 52.3616Z" fill="#42C7DA"/>
<path d="M124.287 128.096H5.71289C3.60953 128.096 1.9043 126.39 1.9043 124.287C1.9043 122.184 3.60953 120.479 5.71289 120.479H124.287C126.39 120.479 128.096 122.184 128.096 124.287C128.096 126.39 126.39 128.096 124.287 128.096Z" fill="#CA6633"/>
<path d="M124.287 120.479H116.67C118.773 120.479 120.479 122.184 120.479 124.287C120.479 126.39 118.773 128.096 116.67 128.096H124.287C126.39 128.096 128.096 126.39 128.096 124.287C128.096 122.184 126.39 120.479 124.287 120.479Z" fill="#AE5121"/>
<path d="M30.7227 95.0879H99.2773V102.705H30.7227V95.0879Z" fill="#EFEFEF"/>
<path d="M91.6602 95.0879H99.2773V102.705H91.6602V95.0879Z" fill="#DCDCDC"/>
<path d="M7.87109 104.759H30.7227V112.376H7.87109V104.759Z" fill="#EFEFEF"/>
<path d="M23.1055 104.759H30.7227V112.376H23.1055V104.759Z" fill="#DCDCDC"/>
<path d="M19.2969 97.8331C17.1935 97.8331 15.4883 96.1279 15.4883 94.0245V90.5879C15.4883 88.4845 17.1935 86.7793 19.2969 86.7793C21.4002 86.7793 23.1055 88.4845 23.1055 90.5879V94.0245C23.1055 96.1279 21.4002 97.8331 19.2969 97.8331Z" fill="#FECE3F"/>
<path d="M60.9858 51.6527H38.1343C36.0309 51.6527 34.3257 49.9475 34.3257 47.8441C34.3257 45.7408 36.0309 44.0355 38.1343 44.0355H60.9858C63.0892 44.0355 64.7944 45.7408 64.7944 47.8441C64.7944 49.9477 63.0892 51.6527 60.9858 51.6527Z" fill="#DCDCDC"/>
<path d="M38.1343 51.6527H60.9858V95.0879H38.1343V51.6527Z" fill="#CA6633"/>
<path d="M64.3571 35.6261C64.3571 39.716 61.083 44.0355 61.083 44.0355H38.9533C38.9533 44.0355 35.6792 39.7157 35.6792 35.6261C35.6792 31.5438 38.8774 27.4617 42.3036 24.1607C45.7298 20.8597 47.1352 18.9229 47.1352 17.031C47.1352 16.6778 47.2365 16.3376 47.4008 16.0182C48.4766 13.9288 51.5527 13.9283 52.633 16.0151C52.7988 16.3356 52.9009 16.6766 52.9009 17.031C52.9009 18.9229 54.2987 20.8597 57.7325 24.1607C61.1587 27.4617 64.3571 31.5438 64.3571 35.6261Z" fill="#FECE3F"/>
<path d="M57.7328 24.1607C54.299 20.8597 52.9012 18.9229 52.9012 17.031C52.9012 16.6765 52.7991 16.3356 52.6333 16.0154C51.553 13.9285 48.4766 13.929 47.4011 16.0184C47.2366 16.3378 47.1355 16.6781 47.1355 17.0313C47.1355 17.8884 46.843 18.7565 46.2085 19.7552C46.973 20.9602 48.2382 22.3557 50.1159 24.1609C53.5421 27.462 56.7403 31.544 56.7403 35.6263C56.7403 39.7163 53.4659 44.0357 53.4659 44.0357H61.0831C61.0831 44.0357 64.3575 39.716 64.3575 35.6263C64.3575 31.5438 61.159 27.4617 57.7328 24.1607Z" fill="#FDB720"/>
<path d="M38.1343 76.5581H60.9858V84.1753H38.1343V76.5581Z" fill="#DCDCDC"/>
<path d="M49.5601 69.6323C47.4567 69.6323 45.7515 67.9271 45.7515 65.8237V62.3871C45.7515 60.2837 47.4567 58.5785 49.5601 58.5785C51.6634 58.5785 53.3687 60.2837 53.3687 62.3871V65.8237C53.3687 67.9271 51.6634 69.6323 49.5601 69.6323Z" fill="#FECE3F"/>
<path d="M122.129 64.1339H99.2773C97.174 64.1339 95.4688 62.4287 95.4688 60.3253C95.4688 58.222 97.174 56.5167 99.2773 56.5167H122.129C124.232 56.5167 125.938 58.222 125.938 60.3253C125.938 62.4287 124.232 64.1339 122.129 64.1339Z" fill="#EFEFEF"/>
<path d="M122.129 56.5167H114.512C116.615 56.5167 118.32 58.222 118.32 60.3253C118.32 62.4287 116.615 64.1339 114.512 64.1339H122.129C124.232 64.1339 125.938 62.4287 125.938 60.3253C125.938 58.222 124.232 56.5167 122.129 56.5167Z" fill="#DCDCDC"/>
<path d="M99.2773 64.1339H122.129V120.478H99.2773V64.1339Z" fill="#E82A40"/>
<path d="M114.512 64.1339H122.129V120.478H114.512V64.1339Z" fill="#D6243A"/>
<path d="M125.5 48.1074C125.5 52.1973 122.226 56.5168 122.226 56.5168H100.096C100.096 56.5168 96.8223 52.1971 96.8223 48.1074C96.8223 44.0251 100.02 39.9431 103.447 36.642C106.873 33.341 108.278 31.4042 108.278 29.5123C108.278 29.1591 108.38 28.8189 108.544 28.4995C109.62 26.4101 112.696 26.4096 113.776 28.4965C113.942 28.8169 114.044 29.1579 114.044 29.5123C114.044 31.4042 115.442 33.341 118.876 36.642C122.302 39.9428 125.5 44.0251 125.5 48.1074Z" fill="#6BD169"/>
<path d="M88.2834 95.0879H53.1427C53.1427 95.0879 52.3183 71.2469 53.99 52.2567C55.4738 35.425 64.1361 19.0463 66.0859 15.5408C66.322 15.1166 66.7684 14.8535 67.2538 14.8535H74.172C74.6575 14.8535 75.1041 15.1166 75.34 15.5408C77.2897 19.0465 85.9517 35.425 87.4333 52.2567C89.1078 71.2469 88.2834 95.0879 88.2834 95.0879Z" fill="#E82A40"/>
<path d="M87.4336 52.2567C85.9518 35.425 77.2901 19.0465 75.3403 15.5408C75.1044 15.1166 74.6578 14.8535 74.1723 14.8535H67.2542C67.1343 14.8535 67.017 14.8698 66.9048 14.9002C67.2483 14.9934 67.5456 15.2212 67.7234 15.5408C69.6731 19.0465 78.3351 35.425 79.8167 52.2567C81.4909 71.2466 80.6665 95.0879 80.6665 95.0879H88.2837C88.2834 95.0879 89.1079 71.2469 87.4336 52.2567Z" fill="#D6243A"/>
<path d="M118.876 36.6418C115.442 33.3407 114.044 31.4039 114.044 29.5121C114.044 29.1576 113.942 28.8166 113.776 28.4965C112.696 26.4096 109.62 26.4101 108.544 28.4995C108.38 28.8189 108.279 29.1591 108.279 29.5123C108.279 30.3695 107.986 31.2376 107.352 32.2362C108.116 33.4413 109.381 34.8367 111.259 36.642C114.685 39.9431 117.883 44.0251 117.883 48.1074C117.883 52.1973 114.609 56.5168 114.609 56.5168H122.226C122.226 56.5168 125.501 52.1971 125.501 48.1074C125.5 44.0251 122.302 39.9428 118.876 36.6418Z" fill="#52B551"/>
<path d="M99.2773 104.759H122.129V112.376H99.2773V104.759Z" fill="#EFEFEF"/>
<path d="M114.512 104.759H122.129V112.376H114.512V104.759Z" fill="#DCDCDC"/>
<path d="M110.703 97.8331C108.6 97.8331 106.895 96.1279 106.895 94.0245V90.5879C106.895 88.4845 108.6 86.7793 110.703 86.7793C112.806 86.7793 114.512 88.4845 114.512 90.5879V94.0245C114.512 96.1279 112.806 97.8331 110.703 97.8331Z" fill="#FECE3F"/>
<path d="M88.7402 56.4558H52.6855C50.5822 56.4558 48.877 54.7506 48.877 52.6472C48.877 50.5439 50.5822 48.8386 52.6855 48.8386H88.7402C90.8436 48.8386 92.5488 50.5439 92.5488 52.6472C92.5488 54.7506 90.8436 56.4558 88.7402 56.4558Z" fill="#EFEFEF"/>
<path d="M88.7402 48.8386H81.123C83.2264 48.8386 84.9316 50.5439 84.9316 52.6472C84.9316 54.7506 83.2264 56.4558 81.123 56.4558H88.7402C90.8436 56.4558 92.5488 54.7506 92.5488 52.6472C92.5488 50.5439 90.8436 48.8386 88.7402 48.8386Z" fill="#DCDCDC"/>
<path d="M79.0527 14.22C79.0527 15.7605 78.2539 17.3573 77.691 18.2912C77.3827 18.8025 76.8267 19.111 76.2297 19.111H65.196C64.599 19.111 64.043 18.8023 63.7347 18.2912C63.1718 17.3573 62.373 15.7607 62.373 14.22C62.373 11.8458 64.2332 9.47149 66.2258 7.5517C68.2185 5.63192 69.0361 4.50533 69.0361 3.40516C69.0361 3.1769 69.1087 2.95803 69.2237 2.75465C69.8646 1.62172 71.5568 1.62121 72.2002 2.75287C72.3163 2.95676 72.3894 3.17614 72.3894 3.40516C72.3894 4.50533 73.2024 5.63192 75.1996 7.5517C77.1925 9.47149 79.0527 11.8458 79.0527 14.22Z" fill="#FECE3F"/>
<path d="M75.1999 7.5517C73.2027 5.63192 72.3897 4.50533 72.3897 3.40516C72.3897 3.17614 72.3163 2.95676 72.2006 2.75287C71.5572 1.62121 69.8649 1.62172 69.224 2.75465C69.109 2.95803 69.0361 3.1769 69.0361 3.40516C69.0361 4.37102 68.4057 5.35744 66.9038 6.88266C67.113 7.09492 67.3388 7.31709 67.5828 7.5517C69.5754 9.47174 71.4355 11.8458 71.4355 14.22C71.4355 15.7607 70.6367 17.3573 70.0738 18.2912C69.7656 18.8025 69.2095 19.111 68.6126 19.111H76.2298C76.8267 19.111 77.3828 18.8023 77.691 18.2912C78.2539 17.3573 79.0527 15.7607 79.0527 14.22C79.0527 11.8458 77.1926 9.47149 75.1999 7.5517Z" fill="#FDB720"/>
<path d="M70.7129 77.7632C68.6095 77.7632 66.9043 76.0579 66.9043 73.9546V70.5179C66.9043 68.4146 68.6095 66.7094 70.7129 66.7094C72.8163 66.7094 74.5215 68.4146 74.5215 70.5179V73.9546C74.5215 76.0582 72.8163 77.7632 70.7129 77.7632Z" fill="#FECE3F"/>
<path d="M70.7129 41.3182C68.6095 41.3182 66.9043 39.613 66.9043 37.5096V34.073C66.9043 31.9696 68.6095 30.2644 70.7129 30.2644C72.8163 30.2644 74.5215 31.9696 74.5215 34.073V37.5096C74.5215 39.613 72.8163 41.3182 70.7129 41.3182Z" fill="#FECE3F"/>
<path d="M124.287 118.574H124.033V81.2175C124.033 80.1658 123.181 79.3132 122.129 79.3132C121.077 79.3132 120.225 80.1658 120.225 81.2175V102.855H101.182V66.0382H120.225V73.1184C120.225 74.1701 121.077 75.0227 122.129 75.0227C123.181 75.0227 124.033 74.1701 124.033 73.1184V65.7107C126.25 64.9246 127.842 62.808 127.842 60.3253C127.842 58.2819 126.763 56.4868 125.145 55.4767C126.179 53.6349 127.404 50.8696 127.404 48.1074C127.404 44.1424 125.047 39.9433 120.195 35.2691C117.178 32.3692 115.948 30.7013 115.948 29.5123C115.948 28.8737 115.786 28.2374 115.467 27.6212C114.941 26.6058 114.084 25.836 113.061 25.4081V14.5448C113.061 13.4931 112.209 12.6405 111.157 12.6405C110.105 12.6405 109.252 13.4931 109.252 14.5448V25.4104C108.23 25.84 107.374 26.6112 106.85 27.628C106.534 28.2425 106.373 28.8765 106.373 29.5123C106.373 30.6947 105.142 32.3629 102.125 35.2706C97.2745 39.9433 94.917 44.1424 94.917 48.1074C94.917 50.6881 95.9862 53.27 96.9698 55.1007C94.966 55.9891 93.5637 57.996 93.5637 60.3253C93.5637 62.8078 95.1559 64.9246 97.3723 65.7107V93.1836H90.2411C90.3741 87.8391 90.6395 72.5075 89.7807 58.2634C92.4358 57.7723 94.4531 55.4417 94.4531 52.6472C94.4531 49.497 91.8902 46.9343 88.7402 46.9343H88.6656C86.7813 35.6586 82.2974 25.1682 79.3746 19.1849C80.1092 17.9471 80.9567 16.1101 80.9567 14.22C80.9567 11.686 79.5057 9.05607 76.5192 6.17881C74.6797 4.41035 74.2935 3.69434 74.2935 3.40488C74.2935 2.85797 74.146 2.32172 73.8552 1.81137C73.2202 0.693672 72.0162 0 70.7119 0H70.7078C69.4032 0.00126953 68.1995 0.69748 67.5662 1.81695C67.2778 2.32654 67.1318 2.86102 67.1318 3.40488C67.1318 3.69205 66.7456 4.40654 64.9045 6.18033C61.9199 9.05633 60.4688 11.6863 60.4688 14.2203C60.4688 16.1106 61.3166 17.9474 62.0511 19.1849C61.4151 20.4867 60.7049 22.0035 59.9638 23.694C59.669 23.3934 59.3668 23.0918 59.053 22.7894C56.0364 19.8882 54.8057 18.2201 54.8057 17.032C54.8057 16.3879 54.6419 15.7488 54.3237 15.142C53.7987 14.1261 52.9417 13.356 51.9185 12.9279V7.0525C51.9185 6.00082 51.0659 5.1482 50.0142 5.1482C48.9625 5.1482 48.1099 6.00082 48.1099 7.0525V12.9294C47.0869 13.3588 46.2313 14.1301 45.7092 15.1458C45.3918 15.7612 45.2309 16.3957 45.2309 17.0318C45.2309 17.9489 44.4823 19.1585 42.8035 20.9541C42.0852 21.7224 42.1258 22.9275 42.8939 23.6458C43.6622 24.3641 44.8673 24.3237 45.5856 23.5554C48.0388 20.9315 49.0395 19.0414 49.0395 17.0338C49.0395 17.0333 49.044 16.9889 49.0953 16.8893C49.3426 16.4082 49.8205 16.3559 50.0145 16.3556H50.0157C50.2115 16.3556 50.6909 16.4082 50.9453 16.9005C50.992 16.9896 50.9968 17.0323 50.9968 17.0323C50.9968 19.7874 52.9826 22.2361 56.4114 25.5331C57.1172 26.2133 57.7649 26.8861 58.354 27.5443C56.6544 31.8157 54.9532 36.8177 53.7197 42.1309H39.9565C39.1252 40.8406 37.5827 38.1116 37.5827 35.6258C37.5827 33.7764 38.461 31.6641 40.1931 29.348C40.823 28.5058 40.6509 27.3124 39.8087 26.6825C38.9665 26.0523 37.7729 26.2247 37.1432 27.0669C34.9075 30.0562 33.7738 32.9357 33.7738 35.6256C33.7738 38.2068 34.8436 40.7888 35.8274 42.6194C35.1901 42.901 34.6008 43.2971 34.0902 43.8057C33.0134 44.8866 32.4203 46.3206 32.4203 47.8438C32.4203 50.3265 34.0125 52.4431 36.2289 53.2292V74.5294C35.8437 73.1316 34.9403 71.9471 33.738 71.1966C34.772 69.3545 35.9971 66.5895 35.9971 63.827C35.9971 59.862 33.6395 55.6631 28.7879 50.9887C25.7712 48.0888 24.5408 46.4209 24.5408 45.2319C24.5408 44.5933 24.3788 43.957 24.0596 43.3405C23.5341 42.3252 22.6771 41.5556 21.6539 41.1275V34.1671C21.6539 33.1155 20.8013 32.2629 19.7496 32.2629C18.6979 32.2629 17.8453 33.1155 17.8453 34.1671V41.1295C16.8223 41.5591 15.9664 42.3305 15.4428 43.3474C15.1265 43.9621 14.9663 44.5961 14.9663 45.2316C14.9663 46.4141 13.7353 48.0825 10.7176 50.99C5.86904 55.6629 3.51152 59.862 3.51152 63.827C3.51152 66.4077 4.58072 68.9896 5.56436 70.8203C3.56027 71.7085 2.1582 73.7153 2.1582 76.0449C2.1582 78.5276 3.75045 80.6442 5.9668 81.4303V118.574H5.71289C2.56268 118.574 0 121.137 0 124.287C0 127.437 2.56268 130 5.71289 130H32.3781C33.4298 130 34.2824 129.147 34.2824 128.096C34.2824 127.044 33.4298 126.191 32.3781 126.191H5.71289C4.66273 126.191 3.80859 125.337 3.80859 124.287C3.80859 123.237 4.66273 122.383 5.71289 122.383H124.287C125.337 122.383 126.191 123.237 126.191 124.287C126.191 125.337 125.337 126.191 124.287 126.191H40.7228C39.6711 126.191 38.8185 127.044 38.8185 128.096C38.8185 129.147 39.6711 130 40.7228 130H124.287C127.437 130 130 127.437 130 124.287C130 121.137 127.437 118.574 124.287 118.574ZM120.225 106.663V110.472H101.182V106.663H120.225ZM122.129 62.2296H99.2773C98.2272 62.2296 97.373 61.3755 97.373 60.3253C97.373 59.2752 98.2272 58.421 99.2773 58.421H122.129C123.179 58.421 124.033 59.2752 124.033 60.3253C124.033 61.3755 123.179 62.2296 122.129 62.2296ZM123.596 48.1074C123.596 50.5934 122.053 53.3231 121.223 54.6124H111.946C117.584 50.9905 120.796 46.9297 122.49 44.1855C123.223 45.5894 123.596 46.8995 123.596 48.1074ZM120.083 40.6971C118.816 43.1966 114.493 50.1069 103.747 54.6124H101.099C100.65 53.9145 99.9936 52.7945 99.4848 51.5211C103.193 50.0848 111.42 46.0639 116.719 37.1955C116.988 37.4631 117.264 37.734 117.554 38.0131C118.511 38.935 119.352 39.8295 120.083 40.6971ZM104.768 38.0131C108.197 34.7087 110.182 32.2585 110.182 29.5146C110.183 29.5021 110.195 29.4524 110.237 29.3714C110.485 28.8889 110.964 28.8364 111.158 28.8364H111.159C111.355 28.8364 111.835 28.8889 112.085 29.3726C112.127 29.4534 112.139 29.5031 112.14 29.5125C112.14 31.1076 112.809 32.6005 114.033 34.2134C109.627 42.348 102.406 46.2076 98.7431 47.7207C98.9176 44.964 100.939 41.7021 104.768 38.0131ZM97.373 100.801H32.627V96.9922H97.373V100.801ZM5.9668 76.0449C5.9668 74.9948 6.82094 74.1406 7.87109 74.1406H15.3453C15.3474 74.1406 15.3494 74.1411 15.3514 74.1411C15.3537 74.1411 15.356 74.1406 15.3583 74.1406H24.1513C24.1536 74.1406 24.1559 74.1411 24.1582 74.1411C24.1602 74.1411 24.1622 74.1406 24.1643 74.1406H30.7227C31.7728 74.1406 32.627 74.9948 32.627 76.0449C32.627 77.0951 31.7728 77.9492 30.7227 77.9492H7.87109C6.82094 77.9492 5.9668 77.0951 5.9668 76.0449ZM15.9537 63.827C15.9537 60.7047 16.7921 57.0918 18.4453 53.0885C18.9785 51.7976 19.4182 50.6523 19.7544 49.5851C20.0715 50.5875 20.5004 51.726 21.0641 53.0885C22.7172 57.0918 23.5556 60.7049 23.5556 63.827C23.5556 66.254 23.0483 68.8162 22.6875 70.332H16.8208C16.46 68.8195 15.9537 66.2637 15.9537 63.827ZM28.8184 81.7578V102.855H9.77539V81.7578H28.8184ZM9.77539 106.663H28.8184V110.472H9.77539V106.663ZM47.0458 53.5564C47.2448 54.7947 47.843 55.9005 48.704 56.7387C45.9586 57.153 43.8473 59.5281 43.8473 62.3873V65.8239C43.8473 68.9741 46.41 71.5368 49.5602 71.5368C50.1066 71.5368 50.6345 71.4581 51.1352 71.3144C51.1118 72.4448 51.093 73.5599 51.0788 74.6538H40.0385V53.5567H47.0458V53.5564ZM85.9719 58.3601C86.4909 66.8919 86.6001 75.8398 86.5762 82.7607H54.8493C54.8336 78.2763 54.8737 72.9409 55.0448 67.4185C55.1924 66.9119 55.2731 66.3772 55.2731 65.8237V62.3871C55.2731 62.2489 55.2665 62.1123 55.2569 61.9767C55.3142 60.7674 55.379 59.5596 55.4519 58.3601H85.9719ZM51.4386 62.0892C51.3673 63.6233 51.3076 65.1587 51.2578 66.6816C50.9432 67.3014 50.3014 67.728 49.56 67.728C48.5098 67.728 47.6557 66.8738 47.6557 65.8237V62.3871C47.6557 61.3369 48.5098 60.4828 49.56 60.4828C50.5086 60.4828 51.2949 61.1805 51.4386 62.0892ZM51.0397 82.2707H40.0385V78.4621H51.0443C51.0377 79.7819 51.0367 81.0558 51.0397 82.2707ZM40.0385 86.0793H51.0633C51.0936 89.134 51.1446 91.5979 51.1839 93.1836H40.0385V86.0793ZM54.9936 93.1836C54.9565 91.7094 54.9077 89.4179 54.8768 86.5693H86.549C86.518 89.4179 86.4696 91.7094 86.4325 93.1836H54.9936ZM90.6445 52.6472C90.6445 53.6974 89.7904 54.5515 88.7402 54.5515H52.6855C51.6354 54.5515 50.7812 53.6974 50.7812 52.6472C50.7812 51.597 51.6354 50.7429 52.6855 50.7429H54.3821C54.3844 50.7429 54.3867 50.7434 54.389 50.7434C54.3926 50.7434 54.3961 50.7429 54.3999 50.7429H87.0231C87.0266 50.7429 87.0302 50.7434 87.034 50.7434C87.0363 50.7434 87.0386 50.7429 87.0408 50.7429H88.74C89.7904 50.7429 90.6445 51.597 90.6445 52.6472ZM56.6206 46.9343C58.47 36.4571 62.6272 26.7043 65.3958 21.0153H76.0297C78.7983 26.7041 82.9552 36.4571 84.8029 46.9343H56.6206ZM67.5469 8.92303C69.159 7.37014 70.2614 6.10086 70.7124 4.76988C71.1623 6.10416 72.266 7.37268 73.8786 8.92277C76.5812 11.5266 77.1484 13.2407 77.1484 14.22C77.1484 15.0112 76.7747 16.0949 76.1206 17.2067H65.3055C64.6511 16.0946 64.2774 15.0112 64.2774 14.22C64.2774 13.2407 64.8449 11.5268 67.5469 8.92303ZM52.9308 45.9393C52.8709 46.2701 52.8135 46.602 52.7579 46.9343H52.6855C50.5934 46.9343 48.7612 48.0655 47.7659 49.7478H38.1342C37.084 49.7478 36.2299 48.8937 36.2299 47.8436C36.2299 47.3352 36.4287 46.8556 36.7844 46.4986C37.1462 46.1381 37.6256 45.9393 38.1342 45.9393H52.9308ZM36.2299 77.5605V93.1836H32.627V81.4303C34.3748 80.8102 35.7332 79.3627 36.2299 77.5605ZM32.1895 63.827C32.1895 66.313 30.647 69.0427 29.8167 70.332H26.5941C26.9643 68.6085 27.3642 66.1989 27.3642 63.827C27.3642 60.4546 26.553 56.6671 24.9531 52.5566C25.3292 52.9374 25.7276 53.3287 26.148 53.7329C30.157 57.5953 32.1895 60.9913 32.1895 63.827ZM13.3613 53.7329C13.7823 53.3272 14.1812 52.9346 14.5575 52.5528C12.9568 56.6643 12.1451 60.4533 12.1451 63.8272C12.1451 66.1992 12.545 68.6088 12.9152 70.3323H9.69287C8.86184 69.0417 7.32012 66.3124 7.32012 63.8272C7.32012 60.9913 9.35264 57.5951 13.3613 53.7329ZM9.77539 114.28H28.8184V118.574H9.77539V114.28ZM32.627 104.609H97.373V118.574H81.7258V114.046C81.7258 110.212 78.6061 107.092 74.7711 107.092H74.7152C70.8805 107.092 67.7607 110.212 67.7607 114.046V118.574H62.2388V114.046C62.2388 110.212 59.119 107.092 55.2843 107.092H55.2284C51.3937 107.092 48.2739 110.212 48.2739 114.046V118.574H32.627V104.609ZM52.0828 118.574V114.046C52.0828 112.312 53.494 110.9 55.2287 110.9H55.2845C57.0192 110.9 58.4304 112.312 58.4304 114.046V118.574H52.0828ZM71.5696 118.574V114.046C71.5696 112.312 72.9808 110.9 74.7155 110.9H74.7713C76.506 110.9 77.9175 112.312 77.9175 114.046V118.574H71.5696ZM101.182 118.574V114.28H120.225V118.574H101.182Z" fill="black"/>
<path d="M19.2969 99.7374C22.4471 99.7374 25.0098 97.1747 25.0098 94.0245V90.5879C25.0098 87.4377 22.4471 84.875 19.2969 84.875C16.1467 84.875 13.584 87.4377 13.584 90.5879V94.0245C13.584 97.1747 16.1467 99.7374 19.2969 99.7374ZM17.3926 90.5879C17.3926 89.5377 18.2467 88.6836 19.2969 88.6836C20.347 88.6836 21.2012 89.5377 21.2012 90.5879V94.0245C21.2012 95.0747 20.347 95.9288 19.2969 95.9288C18.2467 95.9288 17.3926 95.0747 17.3926 94.0245V90.5879Z" fill="black"/>
<path d="M104.99 90.5879V94.0245C104.99 97.1747 107.553 99.7374 110.703 99.7374C113.853 99.7374 116.416 97.1747 116.416 94.0245V90.5879C116.416 87.4377 113.853 84.875 110.703 84.875C107.553 84.875 104.99 87.4379 104.99 90.5879ZM112.607 90.5879V94.0245C112.607 95.0747 111.753 95.9288 110.703 95.9288C109.653 95.9288 108.799 95.0747 108.799 94.0245V90.5879C108.799 89.5377 109.653 88.6836 110.703 88.6836C111.753 88.6836 112.607 89.538 112.607 90.5879Z" fill="black"/>
<path d="M70.7129 79.6676C73.8629 79.6676 76.4258 77.1049 76.4258 73.9547V70.5181C76.4258 67.3679 73.8629 64.8052 70.7129 64.8052C67.5629 64.8052 65 67.3679 65 70.5181V73.9547C65 77.1046 67.5629 79.6676 70.7129 79.6676ZM68.8086 70.5178C68.8086 69.4677 69.6627 68.6135 70.7129 68.6135C71.763 68.6135 72.6172 69.4677 72.6172 70.5178V73.9544C72.6172 75.0046 71.763 75.8587 70.7129 75.8587C69.6627 75.8587 68.8086 75.0046 68.8086 73.9544V70.5178Z" fill="black"/>
<path d="M70.7129 28.3601C67.5629 28.3601 65 30.9228 65 34.073V37.5096C65 40.6598 67.5629 43.2225 70.7129 43.2225C73.8629 43.2225 76.4258 40.6598 76.4258 37.5096V34.073C76.4258 30.9228 73.8629 28.3601 70.7129 28.3601ZM72.6172 37.5096C72.6172 38.5598 71.763 39.4139 70.7129 39.4139C69.6627 39.4139 68.8086 38.5598 68.8086 37.5096V34.073C68.8086 33.0228 69.6627 32.1687 70.7129 32.1687C71.763 32.1687 72.6172 33.0228 72.6172 34.073V37.5096Z" fill="black"/>
</svg>
