<svg width="69" height="67" viewBox="0 0 69 67" fill="none" xmlns="http://www.w3.org/2000/svg">
<g clip-path="url(#clip0)">
<path d="M34.5706 66.4C36.0587 66.4 37.3914 65.6534 38.1352 64.4028C38.143 64.3896 38.1506 64.3764 38.1582 64.3631L55.0641 34.4297C59.0995 27.2845 58.9838 18.8036 54.7545 11.7434C50.6169 4.8361 43.2677 0.616193 35.0953 0.454924C34.7462 0.447968 34.3952 0.447968 34.0463 0.454924C25.8738 0.616193 18.5246 4.8361 14.3869 11.7434C10.1576 18.8036 10.0419 27.2844 14.0773 34.4297L30.9832 64.3631C30.9908 64.3764 30.9984 64.3896 31.0062 64.4028C31.7499 65.6533 33.0824 66.4 34.5706 66.4ZM34.5707 4.57166C34.717 4.57166 34.863 4.57308 35.0087 4.57591C41.6797 4.70755 47.6832 8.1595 51.0679 13.81C54.5442 19.6135 54.6404 26.5829 51.3249 32.4533L34.5707 62.118L17.8166 32.4534C14.5012 26.5829 14.5972 19.6135 18.0738 13.81C21.4585 8.15963 27.462 4.70755 34.133 4.57591C34.2783 4.57308 34.4244 4.57166 34.5707 4.57166Z" fill="#F2F2F2"/>
<path d="M34.5707 30.3334C39.8572 30.3334 44.158 26.173 44.158 21.0592C44.158 15.9453 39.8572 11.7849 34.5707 11.7849C29.2842 11.7849 24.9834 15.9453 24.9834 21.0592C24.9834 26.173 29.2841 30.3334 34.5707 30.3334ZM34.5707 15.9068C37.5076 15.9068 39.897 18.2181 39.897 21.0592C39.897 23.9002 37.5076 26.2115 34.5707 26.2115C31.6338 26.2115 29.2444 23.9002 29.2444 21.0592C29.2444 18.2181 31.6338 15.9068 34.5707 15.9068Z" fill="#F2F2F2"/>
</g>
<defs>
<clipPath id="clip0">
<rect width="68.1763" height="65.9502" fill="white" transform="matrix(-1 0 0 1 68.6589 0.449707)"/>
</clipPath>
</defs>
</svg>
