<svg width="649" height="466" viewBox="0 0 649 466" fill="none" xmlns="http://www.w3.org/2000/svg">
<path d="M649 424.987H0V425.312H649V424.987Z" fill="#EBEBEB"/>
<path d="M583.97 445.87H540.98V446.195H583.97V445.87Z" fill="#EBEBEB"/>
<path d="M429.924 449.4H418.644V449.725H429.924V449.4Z" fill="#EBEBEB"/>
<path d="M539.683 433.826H514.774V434.15H539.683V433.826Z" fill="#EBEBEB"/>
<path d="M124.154 436.006H68.093V436.331H124.154V436.006Z" fill="#EBEBEB"/>
<path d="M143.935 436.006H135.719V436.331H143.935V436.006Z" fill="#EBEBEB"/>
<path d="M292.245 441.483H170.648V441.808H292.245V441.483Z" fill="#EBEBEB"/>
<path d="M307.626 367.102H56.9953C55.0319 367.099 53.15 366.317 51.7629 364.927C50.3758 363.538 49.5967 361.655 49.5967 359.692V7.41084C49.6138 5.45887 50.4004 3.59248 51.7857 2.21705C53.171 0.841616 55.043 0.0682394 56.9953 0.0648956H307.626C309.592 0.0648956 311.477 0.845678 312.867 2.23548C314.257 3.62528 315.038 5.51025 315.038 7.47573V359.692C315.038 361.657 314.257 363.542 312.867 364.932C311.477 366.322 309.592 367.102 307.626 367.102ZM56.9953 0.32447C55.1179 0.327909 53.3186 1.07602 51.9923 2.4046C50.6661 3.73318 49.9212 5.53366 49.9212 7.41084V359.692C49.9212 361.569 50.6661 363.369 51.9923 364.698C53.3186 366.026 55.1179 366.774 56.9953 366.778H307.626C309.505 366.774 311.305 366.027 312.634 364.699C313.962 363.37 314.71 361.57 314.713 359.692V7.41084C314.71 5.53247 313.962 3.73202 312.634 2.40381C311.305 1.0756 309.505 0.327901 307.626 0.32447H56.9953Z" fill="#EBEBEB"/>
<path d="M588.396 367.102H337.753C335.788 367.099 333.905 366.317 332.516 364.928C331.126 363.539 330.344 361.656 330.341 359.692V7.41084C330.362 5.45769 331.151 3.59131 332.538 2.21623C333.926 0.841163 335.799 0.068203 337.753 0.0648956H588.396C590.346 0.0716504 592.215 0.846536 593.598 2.2216C594.98 3.59667 595.765 5.46111 595.782 7.41084V359.692C595.782 361.652 595.005 363.534 593.62 364.923C592.236 366.312 590.358 367.095 588.396 367.102ZM337.753 0.32447C335.874 0.327901 334.073 1.0756 332.745 2.40381C331.417 3.73202 330.669 5.53247 330.666 7.41084V359.692C330.669 361.57 331.417 363.37 332.745 364.699C334.073 366.027 335.874 366.774 337.753 366.778H588.396C590.275 366.774 592.076 366.027 593.404 364.699C594.732 363.37 595.48 361.57 595.483 359.692V7.41084C595.48 5.53247 594.732 3.73202 593.404 2.40381C592.076 1.0756 590.275 0.327901 588.396 0.32447H337.753Z" fill="#EBEBEB"/>
<path d="M572.221 57.3513C576.099 40.9222 565.923 24.4604 549.493 20.5827C533.062 16.7051 516.598 26.8801 512.72 43.3092C508.842 59.7383 519.018 76.2001 535.449 80.0777C551.88 83.9553 568.343 73.7804 572.221 57.3513Z" fill="#E0E0E0"/>
<path d="M568.18 54.5216C570.48 40.3497 560.856 26.9962 546.682 24.6958C532.509 22.3954 519.154 32.0191 516.854 46.191C514.553 60.3629 524.178 73.7163 538.351 76.0167C552.524 78.3172 565.879 68.6934 568.18 54.5216Z" fill="#F0F0F0"/>
<path d="M541.266 32.5116V50.6818L529.22 43.868" fill="#F0F0F0"/>
<path d="M541.266 32.5116V50.6818L529.22 43.868" stroke="#E0E0E0" stroke-width="2" stroke-linecap="round" stroke-linejoin="round"/>
<path d="M169.597 70.2277H80.5278V231.968H169.597V70.2277Z" fill="#E6E6E6"/>
<path d="M163.548 76.6392H86.9658V225.894H163.548V76.6392Z" fill="#F0F0F0"/>
<path d="M124.751 76.6392L86.9658 218.133V141.533L104.255 76.6392H124.751Z" fill="#FAFAFA"/>
<path d="M141.638 76.6392L101.789 225.894H94.2737L134.122 76.6392H141.638Z" fill="#FAFAFA"/>
<path d="M166.793 180.962H83.072V186.153H166.793V180.962Z" fill="#E6E6E6"/>
<path d="M550.69 280.054C550.69 280.054 552.727 266.556 542.902 257.913C533.076 249.269 533.919 244.103 536.736 243.441C539.553 242.779 542.149 251.423 546.471 253.824C546.471 253.824 546.614 241.495 542.214 236.952C537.813 232.409 535.516 220.703 539.696 220.508C543.875 220.313 544.303 227.452 545.173 232.526C546.043 237.601 550.703 244.739 550.703 244.739C550.703 244.739 551.611 233.707 554.454 229.165C557.296 224.622 549.716 214.239 552.637 209.697C555.557 205.154 560.749 213.811 560.321 223.545C559.892 233.279 553.389 243.662 554.908 253.824C554.908 253.824 557.777 246.686 560.347 246.037C562.917 245.388 565.539 240.664 567.239 238.912C568.939 237.16 571.133 243.221 567.239 248.853C563.345 254.486 553.389 269.516 554.908 281.677L550.69 280.054Z" fill="#E6E6E6"/>
<path d="M544.796 273.915L541.577 294.136C541.343 295.605 541.429 297.106 541.831 298.538C542.234 299.97 542.942 301.297 543.907 302.428C544.872 303.56 546.071 304.468 547.421 305.092C548.771 305.715 550.241 306.037 551.728 306.038H555.167C556.656 306.039 558.127 305.718 559.478 305.096C560.83 304.473 562.031 303.565 562.997 302.433C563.964 301.302 564.673 299.974 565.076 298.541C565.479 297.109 565.566 295.606 565.331 294.136L562.112 273.915H544.796Z" fill="#E6E6E6"/>
<path d="M558.192 308.361H550.689V426.181H558.192V308.361Z" fill="#E0E0E0"/>
<path d="M531.557 308.361H524.054V426.181H531.557V308.361Z" fill="#E6E6E6"/>
<path d="M584.814 308.361H577.311V426.181H584.814V308.361Z" fill="#E6E6E6"/>
<path d="M589.266 300.833H519.602V313.371H589.266V300.833Z" fill="#E6E6E6"/>
<path d="M454.3 418.654V275.213H440.022V418.654L430.936 421.444V425.766H463.386V421.444L454.3 418.654Z" fill="#2E353A"/>
<path d="M272.58 275.213H258.302V418.654L249.216 421.444V425.766H281.666V421.444L272.58 418.654V275.213Z" fill="#2E353A"/>
<g opacity="0.2">
<path opacity="0.2" d="M454.3 292.086H440.022V418.654L430.936 421.444V425.766H463.386V421.444L454.3 418.654V292.086Z" fill="white"/>
<path opacity="0.2" d="M272.58 292.086H258.302V418.654L249.216 421.444V425.766H281.666V421.444L272.58 418.654V292.086Z" fill="white"/>
</g>
<path d="M498.432 280.405V49.3839L214.17 49.3839V280.405H498.432Z" fill="#2E353A"/>
<path opacity="0.2" d="M498.432 280.405V49.3839L214.17 49.3839V280.405H498.432Z" fill="white"/>
<path d="M492.111 55.7954H220.491V273.863H492.111V55.7954Z" fill="#407BFF"/>
<path opacity="0.3" d="M492.111 55.7954H220.491V273.863H492.111V55.7954Z" fill="white"/>
<path opacity="0.6" d="M492.111 55.7954H220.491V273.863H492.111V55.7954Z" fill="white"/>
<path d="M258.419 99.3642L254.667 89.7859H242.609L238.897 99.3642H235.366L247.256 69.1498H250.202L262.04 99.3642H258.419ZM253.577 86.6451L250.086 77.3134C249.631 76.1323 249.164 74.7177 248.684 72.9785C248.335 74.4473 247.902 75.8947 247.386 77.3134L243.842 86.6451H253.577Z" fill="#8DAEFF"/>
<path d="M277.136 69.2673H285.638C289.622 69.2673 292.517 69.8643 294.295 71.0583C295.195 71.6874 295.915 72.5403 296.384 73.5327C296.853 74.5251 297.054 75.6227 296.969 76.7171C297.031 78.3232 296.505 79.8967 295.489 81.1428C294.343 82.3783 292.8 83.1729 291.128 83.3881V83.5958C295.697 84.3745 297.982 86.7756 297.982 90.7989C298.038 91.9866 297.822 93.1714 297.349 94.2625C296.877 95.3536 296.161 96.3221 295.256 97.0936C293.061 98.7302 290.356 99.535 287.624 99.3649H277.136V69.2673ZM280.627 82.1551H286.39C288.245 82.3064 290.103 81.8996 291.725 80.987C292.297 80.5228 292.744 79.9241 293.027 79.2446C293.31 78.5651 293.42 77.826 293.348 77.0934C293.413 76.3783 293.278 75.6592 292.96 75.0155C292.642 74.3719 292.151 73.8289 291.544 73.4464C289.756 72.5667 287.768 72.177 285.78 72.3173H280.588L280.627 82.1551ZM280.627 85.1143V96.3798H286.858C288.793 96.5181 290.721 96.0214 292.348 94.9651C292.987 94.4311 293.488 93.7515 293.808 92.9836C294.129 92.2156 294.26 91.3817 294.191 90.5523C294.25 89.7622 294.107 88.97 293.776 88.2502C293.444 87.5305 292.935 86.9069 292.296 86.4381C290.561 85.4424 288.567 84.9903 286.572 85.1402L280.627 85.1143Z" fill="#8DAEFF"/>
<path d="M328.29 71.9669C326.828 71.9053 325.37 72.1705 324.023 72.743C322.675 73.3155 321.473 74.1809 320.502 75.2764C318.46 77.8486 317.439 81.0834 317.634 84.3615C317.634 88.2984 318.555 91.3267 320.398 93.4466C321.391 94.5399 322.617 95.3967 323.985 95.9537C325.353 96.5108 326.829 96.7539 328.303 96.6653C330.736 96.6137 333.15 96.2339 335.481 95.5362V98.5991C332.976 99.4534 330.339 99.8534 327.693 99.7802C323.267 99.7802 319.84 98.4823 317.439 95.7438C315.037 93.0053 313.817 89.2545 313.817 84.2707C313.755 81.4541 314.355 78.6622 315.57 76.12C316.662 73.8628 318.407 71.9861 320.58 70.7339C322.961 69.421 325.65 68.7669 328.368 68.839C331.224 68.7726 334.057 69.3632 336.649 70.5652L335.157 73.5762C333.018 72.5301 330.671 71.9799 328.29 71.9669Z" fill="#8DAEFF"/>
<path d="M376.978 84.0241C376.978 88.9992 375.628 92.7977 372.928 95.4194C370.228 98.0411 366.334 99.3389 361.246 99.313H352.913V69.2673H362.142C366.832 69.2673 370.471 70.5652 373.058 73.1609C375.645 75.7566 376.952 79.3777 376.978 84.0241ZM373.266 84.1539C373.266 80.2343 372.284 77.2751 370.319 75.2764C368.355 73.2777 365.426 72.2827 361.532 72.2913H356.444V96.3408H360.714C364.885 96.3408 368.022 95.3155 370.125 93.2649C372.227 91.2143 373.274 88.1772 373.266 84.1539Z" fill="#8DAEFF"/>
<path d="M411.466 99.3649H394.592V69.2673H411.466V72.3822H398.135V82.0773H410.609V85.1662H398.135V96.237H411.466V99.3649Z" fill="#8DAEFF"/>
<path d="M432.532 99.3649H429.041V69.2673H445.811V72.3822H432.532V83.3881H445.006V86.503H432.532V99.3649Z" fill="#8DAEFF"/>
<path d="M252.734 134.187H262.962V148.814C261.377 149.328 259.754 149.715 258.107 149.969C256.212 150.246 254.298 150.376 252.383 150.358C247.831 150.358 244.284 149.004 241.739 146.296C239.143 143.583 237.936 139.807 237.936 134.901C237.87 132.048 238.517 129.224 239.818 126.685C241.03 124.372 242.925 122.487 245.244 121.286C247.815 119.996 250.663 119.359 253.538 119.43C256.621 119.402 259.677 120.002 262.52 121.195L261.157 124.284C258.704 123.191 256.055 122.604 253.37 122.558C251.788 122.467 250.205 122.712 248.724 123.276C247.243 123.839 245.898 124.709 244.777 125.828C242.6 128.337 241.491 131.598 241.688 134.914C241.688 138.976 242.687 142.065 244.673 144.154C246.659 146.244 249.566 147.308 253.408 147.308C255.467 147.314 257.52 147.074 259.522 146.594V137.328H252.785L252.734 134.187Z" fill="#8DAEFF"/>
<path d="M303.992 149.956H300.5V135.783H284.638V149.956H281.147V119.858H284.638V132.655H300.5V119.858H303.992V149.956Z" fill="#8DAEFF"/>
<path d="M323.202 149.956V119.858H326.706V149.956H323.202Z" fill="#8DAEFF"/>
<path d="M367.645 149.956H363.531L352.563 135.355L349.408 138.158V149.956H345.904V119.858H349.408V134.784L363.063 119.858H367.191L355.094 132.928L367.645 149.956Z" fill="#8DAEFF"/>
<path d="M382.741 149.956V119.858H386.233V146.724H399.511V149.904L382.741 149.956Z" fill="#8DAEFF"/>
<path d="M428.898 149.956L418.683 123.272H418.514C418.704 125.383 418.8 127.896 418.8 130.812V149.956H415.568V119.858H420.838L430.378 144.686H430.534L440.152 119.858H445.344V149.956H441.839V130.566C441.839 128.333 441.943 125.919 442.125 123.311H441.969L431.676 149.956H428.898Z" fill="#8DAEFF"/>
<path d="M263.014 200.534H259.016L242.57 175.277H242.401C242.618 178.254 242.726 180.971 242.726 183.428V200.534H239.494V170.449H243.453L259.86 195.602H260.028C260.028 195.226 259.937 194.044 259.834 192.033C259.73 190.021 259.704 188.58 259.73 187.711V170.449H263.014V200.534Z" fill="#8DAEFF"/>
<path d="M308.366 185.453C308.366 190.272 307.145 194.057 304.705 196.809C303.423 198.208 301.846 199.305 300.089 200.021C298.331 200.737 296.437 201.054 294.542 200.949C290.116 200.949 286.754 199.651 284.288 196.887C281.821 194.122 280.666 190.397 280.666 185.414C280.666 180.43 281.873 176.718 284.301 174.018C286.728 171.319 290.142 169.969 294.594 169.969C296.48 169.867 298.366 170.183 300.116 170.894C301.866 171.605 303.438 172.694 304.718 174.083C307.15 176.835 308.366 180.624 308.366 185.453ZM284.379 185.453C284.379 189.528 285.244 192.617 286.975 194.719C287.961 195.721 289.137 196.516 290.434 197.059C291.731 197.602 293.123 197.881 294.529 197.881C295.935 197.881 297.327 197.602 298.624 197.059C299.921 196.516 301.097 195.721 302.083 194.719C303.797 192.617 304.679 189.528 304.679 185.44C304.679 181.351 303.836 178.314 302.083 176.225C301.161 175.153 300.002 174.31 298.697 173.765C297.393 173.22 295.979 172.987 294.568 173.084C293.142 172.988 291.712 173.225 290.393 173.774C289.073 174.324 287.899 175.171 286.962 176.251C285.24 178.362 284.379 181.429 284.379 185.453Z" fill="#8DAEFF"/>
<path d="M345.112 179.171C345.186 180.507 344.941 181.843 344.397 183.066C343.853 184.289 343.026 185.365 341.984 186.205C339.907 187.841 336.935 188.658 333.067 188.658H329.523V200.495H326.019V170.449H333.807C341.344 170.449 345.112 173.356 345.112 179.171ZM329.536 185.66H332.69C335.793 185.66 338.025 185.154 339.414 184.155C340.132 183.587 340.697 182.849 341.06 182.009C341.422 181.169 341.57 180.251 341.491 179.34C341.554 178.495 341.41 177.648 341.07 176.872C340.731 176.096 340.207 175.415 339.544 174.888C337.712 173.778 335.579 173.27 333.443 173.434H329.549L329.536 185.66Z" fill="#8DAEFF"/>
<path d="M388.478 185.453C388.608 188.811 387.804 192.141 386.155 195.07C384.688 197.557 382.346 199.408 379.587 200.261L386.804 207.724H381.612L375.745 200.936H374.616C370.194 200.936 366.771 199.582 364.348 196.874C361.926 194.166 360.757 190.346 360.844 185.414C360.844 180.508 362.051 176.718 364.465 174.018C366.88 171.319 370.319 169.969 374.758 169.969C376.647 169.868 378.534 170.185 380.286 170.896C382.038 171.607 383.612 172.695 384.896 174.083C387.293 176.835 388.487 180.624 388.478 185.453ZM364.504 185.453C364.504 189.528 365.361 192.617 367.1 194.719C368.088 195.721 369.265 196.517 370.563 197.06C371.861 197.603 373.254 197.882 374.661 197.882C376.068 197.882 377.461 197.603 378.759 197.06C380.057 196.517 381.234 195.721 382.222 194.719C383.953 192.617 384.818 189.524 384.818 185.44C384.818 181.39 383.961 178.314 382.222 176.225C381.299 175.151 380.137 174.307 378.83 173.762C377.523 173.217 376.106 172.984 374.694 173.084C373.267 172.989 371.839 173.226 370.519 173.776C369.2 174.325 368.025 175.172 367.087 176.251C365.361 178.366 364.504 181.429 364.504 185.453Z" fill="#8DAEFF"/>
<path d="M409.649 188.022V200.534H406.144V170.449H414.399C418.086 170.449 420.824 171.15 422.577 172.565C423.476 173.354 424.179 174.342 424.63 175.451C425.08 176.559 425.266 177.757 425.173 178.95C425.173 182.922 423.161 185.621 419.124 187.01L427.301 200.534H423.161L415.866 188.022H409.649ZM409.649 185.024H414.438C416.368 185.182 418.293 184.659 419.877 183.545C420.478 182.986 420.946 182.3 421.245 181.536C421.544 180.772 421.666 179.95 421.603 179.132C421.677 178.326 421.556 177.514 421.251 176.764C420.947 176.015 420.466 175.349 419.851 174.823C418.143 173.819 416.167 173.366 414.192 173.525H409.649V185.024Z" fill="#8DAEFF"/>
<path d="M256.485 243.117C256.538 244.306 256.304 245.491 255.803 246.571C255.301 247.651 254.547 248.594 253.603 249.321C251.325 250.903 248.585 251.684 245.815 251.54C242.988 251.68 240.164 251.211 237.534 250.164V246.777C240.183 247.882 243.023 248.459 245.893 248.477C247.743 248.613 249.588 248.159 251.163 247.179C251.738 246.757 252.199 246.2 252.507 245.557C252.815 244.914 252.96 244.205 252.928 243.493C252.972 242.586 252.756 241.686 252.305 240.898C251.759 240.126 251.039 239.495 250.202 239.055C248.763 238.3 247.266 237.662 245.724 237.147C243.461 236.471 241.4 235.245 239.728 233.578C238.472 232.077 237.828 230.158 237.923 228.204C237.884 227.143 238.1 226.087 238.551 225.125C239.003 224.164 239.678 223.324 240.519 222.675C242.523 221.219 244.964 220.491 247.438 220.612C250.275 220.577 253.087 221.139 255.693 222.26L254.603 225.31C252.319 224.303 249.855 223.769 247.36 223.74C245.819 223.652 244.291 224.071 243.011 224.934C242.504 225.321 242.097 225.826 241.826 226.404C241.555 226.983 241.427 227.618 241.454 228.256C241.416 229.156 241.613 230.051 242.025 230.852C242.515 231.611 243.184 232.24 243.972 232.682C245.308 233.428 246.712 234.046 248.165 234.525C250.572 235.231 252.789 236.469 254.655 238.146C255.876 239.509 256.531 241.287 256.485 243.117Z" fill="#8DAEFF"/>
<path d="M282.86 251.125H279.355V224.142H269.828V221.027H292.387V224.142H282.86V251.125Z" fill="#8DAEFF"/>
<path d="M325.058 221.027H328.822L318.01 251.125H314.557L303.732 221.027H307.431L314.35 240.495C315.113 242.618 315.746 244.785 316.245 246.985C316.749 244.727 317.395 242.503 318.179 240.326L325.058 221.027Z" fill="#8DAEFF"/>
<path d="M363.946 251.125H359.974L351.875 237.887L343.645 251.125H339.946L349.941 235.395L340.621 221.027H344.515L351.991 232.955L359.52 221.027H363.245L353.926 235.304L363.946 251.125Z" fill="#8DAEFF"/>
<path d="M386.804 236.082L394.825 221.027H398.616L388.569 239.457V251.138H385.039V239.639L375.122 221.027H378.951L386.804 236.082Z" fill="#8DAEFF"/>
<path d="M432 251.125H411.31V248.386L427.288 224.181H411.803V221.027H431.546V223.766L415.567 247.958H432V251.125Z" fill="#8DAEFF"/>
<path d="M389.737 173.486L369.696 161.805C366.501 162.044 363.289 161.896 360.13 161.364C354.938 160.469 353.822 160.417 354.445 156.328C355.068 152.24 354.198 146.789 355.743 146.218C357.287 145.647 368.217 150.254 370.112 153.382L390.334 160.611L389.737 173.486Z" fill="#B97964"/>
<path d="M449.108 153.694V177.055C449.108 177.055 444.124 178.704 437.932 180.43C430.832 182.403 422.148 184.479 417.631 184.323C409.194 183.908 380.638 169.086 380.638 169.086L385.83 159.197C385.83 159.197 416.982 169.813 420.876 169.048C424.77 168.282 449.108 153.694 449.108 153.694Z" fill="#407BFF"/>
<path opacity="0.2" d="M449.108 165.076V177.068C449.108 177.068 444.124 178.717 437.932 180.443C440.217 173.486 445.915 167.815 449.108 165.076Z" fill="black"/>
<path d="M454.3 236.848C454.3 236.848 440.23 311.813 436.478 342.599C431.572 382.755 411.518 441.496 411.518 441.496L419.539 443.573C419.539 443.573 447.81 393.657 453.287 348.737C475.743 302.832 477.547 246.297 477.547 246.297L454.3 236.848Z" fill="#B97964"/>
<path d="M396.643 459.666C397.939 459.07 399.334 458.718 400.757 458.628C400.757 458.628 405.69 455.721 410.583 444.455H416.074C417.002 444.468 417.903 444.765 418.658 445.306C419.412 445.846 419.982 446.605 420.292 447.479C420.383 447.725 420.435 447.984 420.448 448.245C420.391 449.55 420.252 450.851 420.033 452.139C419.219 456.525 418.144 460.859 416.814 465.117L415.879 464.871L417.58 456.681C418.138 453.891 415.217 456.577 413.854 459.394C412.491 462.21 410.415 465.027 404.353 463.638C397.279 461.964 394.423 460.938 396.643 459.666Z" fill="#2E353A"/>
<path d="M468.954 235.654C468.954 235.654 470.707 311.904 473.406 342.806C476.911 383.105 469.435 444.728 469.435 444.728L477.716 445.091C477.716 445.091 495.044 390.412 491.15 345.324C503.624 295.758 493.746 240.08 493.746 240.08L468.954 235.654Z" fill="#B97964"/>
<path d="M456.559 462.184C457.784 461.447 459.135 460.941 460.543 460.692C460.543 460.692 465.138 457.278 468.773 445.546L474.237 444.923C475.166 444.834 476.1 445.036 476.909 445.501C477.718 445.966 478.363 446.671 478.754 447.518C478.871 447.751 478.95 448.001 478.988 448.258C479.072 449.585 479.072 450.916 478.988 452.243C478.656 456.674 478.058 461.082 477.197 465.442L476.236 465.299L477.041 456.967C477.301 454.137 474.679 457.136 473.627 460.069C472.576 463.002 470.824 466.039 464.632 465.325C457.441 464.391 454.495 463.69 456.559 462.184Z" fill="#2E353A"/>
<path d="M496.913 105.945C496.913 105.945 501.028 106.166 504.494 112.928C507.959 119.69 503.624 127.204 502.754 130.799C501.885 134.394 497.562 137.574 504.701 143.012C511.84 148.45 516.124 154.226 510.335 160.105C504.546 165.985 510.906 170.488 502.547 174.849C494.188 179.21 463.386 172.682 459.492 164.245C455.598 155.809 460.297 149.398 460.543 146.88C460.79 144.362 455.598 141.779 454.3 133.538C453.002 125.296 459.648 123.531 460.543 119.767C461.439 116.004 457.272 111.253 460.543 103.246C463.814 95.2377 496.472 93.5115 496.913 105.945Z" fill="#2E353A"/>
<path d="M517.642 218.224C512.723 218.86 507.038 209.255 502.923 200.3C499.405 192.708 496.952 185.569 496.952 185.569L499.548 178.249L506.324 159.145C506.324 159.145 511.061 165.751 518.187 190.904C519.33 194.953 520.706 199.483 521.965 204.544C521.955 205.823 522.35 207.073 523.094 208.113C523.094 211.916 523.548 217.458 517.642 218.224Z" fill="#407BFF"/>
<path opacity="0.2" d="M502.832 200.3C499.328 192.708 496.913 185.569 496.913 185.569L499.509 178.249C501.326 183.311 503.987 192.487 502.832 200.3Z" fill="black"/>
<path opacity="0.2" d="M523.094 208.113C520.498 209.827 517.785 209.801 516.267 206.673C513.19 200.352 516.163 194.096 518.265 190.891C519.421 194.94 520.745 199.47 522.004 204.531C521.962 205.813 522.345 207.072 523.094 208.113Z" fill="black"/>
<path d="M445.655 215.732C445.655 215.732 471.615 225.025 496.355 223.298C496.355 223.298 494.11 192.669 481.13 187.218C468.15 181.767 445.655 189.554 445.655 215.732Z" fill="#407BFF"/>
<path opacity="0.2" d="M445.655 215.732C445.655 215.732 471.615 225.025 496.355 223.298C496.355 223.298 494.11 192.669 481.13 187.218C468.15 181.767 445.655 189.554 445.655 215.732Z" fill="black"/>
<path d="M449.329 217.912L492.163 221.611C492.58 210.994 494.107 200.45 496.719 190.151C497.744 186.05 499.029 181.468 500.678 176.173C501.56 173.343 502.534 170.306 503.624 167.088C504.442 164.609 505.324 161.974 506.298 159.197C500.481 157.34 494.538 155.904 488.515 154.901C482.159 153.772 475.731 153.095 469.279 152.876C460.946 152.876 451.366 153.746 451.366 153.746C451.366 153.746 450.004 154.07 449.147 162.909C448.381 171.15 447.615 187.737 449.329 217.912Z" fill="#407BFF"/>
<path d="M449.536 224.337L492.37 227.867C493.045 217.224 493.551 202.844 496.757 190.151C497.782 186.05 499.067 181.468 500.716 176.173C501.598 173.343 502.572 170.306 503.662 167.088C504.48 164.609 505.363 161.974 506.336 159.197C500.519 157.34 494.576 155.904 488.553 154.901C482.197 153.772 475.769 153.095 469.317 152.876C460.984 152.876 451.405 153.746 451.405 153.746C451.405 153.746 450.042 154.07 449.185 162.909C448.38 171.15 447.809 194.161 449.536 224.337Z" fill="#2E353A"/>
<path d="M472.822 162.299C483.388 161.001 486.555 156.432 486.555 156.432C479.858 150.112 485.426 139.158 485.426 139.158L472.719 141.533C473.017 143.305 473.182 145.096 473.212 146.893C473.316 154.602 469.824 154.68 469.824 154.68C467.591 158.846 472.822 162.299 472.822 162.299Z" fill="#B97964"/>
<path opacity="0.2" d="M472.719 141.533C473.017 143.305 473.182 145.096 473.212 146.893C481.792 146.893 485.426 139.106 485.426 139.106L472.719 141.533Z" fill="black"/>
<path d="M479.741 105.984C468.695 105.387 464.814 111.111 463.386 122.441C461.595 136.614 464.191 146.893 478.17 144.609C497.134 141.533 498.094 106.996 479.741 105.984Z" fill="#B97964"/>
<path d="M470.551 122.22C469.578 123.822 468.414 125.299 467.085 126.62C467.386 127.095 467.811 127.479 468.315 127.728C468.818 127.978 469.381 128.084 469.941 128.035L470.551 122.22Z" fill="#A24E3F"/>
<path d="M477.365 121.688C477.365 122.597 477.729 123.362 478.339 123.414C478.949 123.466 479.481 122.765 479.559 121.857C479.637 120.948 479.195 120.183 478.585 120.131C477.975 120.079 477.443 120.767 477.365 121.688Z" fill="#2E353A"/>
<path d="M478.845 120.196L476.924 119.261C476.924 119.261 477.781 121 478.845 120.196Z" fill="#2E353A"/>
<path d="M466.112 120.611C466.047 121.52 466.475 122.298 467.085 122.337C467.695 122.376 468.227 121.688 468.305 120.78C468.383 119.871 467.942 119.105 467.345 119.054C466.748 119.002 466.19 119.703 466.112 120.611Z" fill="#2E353A"/>
<path d="M467.591 119.118L465.67 118.197C465.67 118.197 466.527 119.936 467.591 119.118Z" fill="#2E353A"/>
<path d="M477.897 114.057C478.776 113.998 479.657 114.141 480.472 114.477C481.287 114.812 482.013 115.33 482.596 115.991" stroke="#2E353A" stroke-width="0.72468" stroke-linecap="round" stroke-linejoin="round"/>
<path d="M469.876 113.161C469.132 112.93 468.345 112.87 467.574 112.985C466.804 113.099 466.069 113.386 465.424 113.823" stroke="#2E353A" stroke-width="0.72468" stroke-linecap="round" stroke-linejoin="round"/>
<path d="M471.304 132.448C471.758 133.717 472.118 135.019 472.381 136.341C472.623 136.354 472.866 136.354 473.108 136.341C476.34 136.198 477.781 135.043 478.417 133.849C478.711 133.248 478.853 132.584 478.832 131.915C478.843 131.538 478.794 131.162 478.689 130.799C476.758 131.786 474.638 132.348 472.472 132.448C471.732 132.448 471.304 132.448 471.304 132.448Z" fill="#2E353A"/>
<path d="M472.472 132.448L472.822 133.59C475.873 133.447 478.014 132.928 478.897 131.967C478.907 131.59 478.859 131.214 478.754 130.851C476.799 131.829 474.656 132.373 472.472 132.448Z" fill="white"/>
<path d="M473.108 136.341C476.34 136.198 477.781 135.043 478.417 133.849C477.189 133.926 475.985 134.221 474.86 134.719C474.121 135.063 473.508 135.63 473.108 136.341Z" fill="#DE5753"/>
<path d="M490.8 125.27C490.8 125.27 486.127 115.913 487.295 108.943C487.295 108.943 465.891 98.8068 463.594 120.961C463.594 120.961 462.529 101.117 481.545 101.714C500.561 102.311 498.964 130.098 488.697 137.834C488.697 137.834 493.681 131.15 490.8 125.27Z" fill="#2E353A"/>
<path d="M488.866 127.503C488.952 126.872 489.161 126.264 489.483 125.714C489.804 125.164 490.231 124.683 490.739 124.299C491.246 123.914 491.825 123.634 492.441 123.473C493.057 123.312 493.699 123.275 494.33 123.363C497.731 123.921 498.977 131.033 490.436 132.266C489.125 132.448 488.502 131.15 488.866 127.503Z" fill="#B97964"/>
<path d="M496.355 157.6C496.355 157.6 483.946 167.659 472.472 167.49C460.998 167.321 456.896 154.356 456.896 154.356C456.896 154.356 474.718 149.047 496.355 157.6Z" fill="#B97964"/>
<path d="M495.291 155.705C495.291 155.705 474.938 192.15 496.355 223.298C496.355 223.298 499.263 184.869 506.311 159.145L495.291 155.705Z" fill="#407BFF"/>
<path d="M457.947 152.824C457.947 152.824 457.766 178.613 454.053 188.191C450.341 197.769 445.629 215.732 445.629 215.732C445.629 215.732 442.047 172.772 449.082 153.694L457.947 152.824Z" fill="#407BFF"/>
<path d="M487.295 108.943C487.295 108.943 479.066 106.101 471.823 108.943C464.58 111.786 466.553 119.326 462.88 120.702" stroke="#2E353A" stroke-width="0.5" stroke-linecap="round" stroke-linejoin="round"/>
<path d="M552.623 148.178L549.223 146.231L536.723 149.644L519.849 145.271L515.955 158.081C515.955 158.081 515.15 172.357 515.955 172.526C516.76 172.695 535.269 173.655 535.269 173.655L544.68 167.659L552.623 148.178Z" fill="#E0E0E0"/>
<path d="M515.306 146.231L507.843 175.77L530.882 178.353L546.783 173.979L554.895 146.231L536.723 150.942L515.306 146.231Z" fill="#407BFF"/>
<path opacity="0.4" d="M536.723 150.942L530.882 178.366L507.843 175.783L515.306 146.231L536.723 150.942Z" fill="white"/>
<path opacity="0.2" d="M536.723 150.942L530.882 178.353L546.783 173.979L554.895 146.231L536.723 150.942Z" fill="white"/>
<path d="M516.5 205.128L527.209 184.57C526.82 181.389 526.82 178.173 527.209 174.992C527.858 169.8 527.857 168.645 531.959 169.073C536.061 169.502 541.487 168.386 542.136 169.904C542.785 171.423 538.67 182.545 535.646 184.583L529.35 205.128H516.5Z" fill="#B97964"/>
<path d="M513.034 216.42C519.849 222.221 527.637 217.237 531.959 200.586L518.551 198.86L513.034 216.42Z" fill="#407BFF"/>
<path d="M519.239 195.187L516.5 200.028L533.478 202.312V197.341L519.239 195.187Z" fill="#2E353A"/>
<path d="M379.95 170.28L384.649 173.24L387.725 156.38L382.754 156.147L379.95 170.28Z" fill="#2E353A"/>
<path d="M449.536 224.337L422.538 382.936C422.538 382.936 487.879 390.724 510.023 386.181C510.023 386.181 515.462 272.643 492.344 227.841L449.536 224.337Z" fill="#407BFF"/>
<path opacity="0.4" d="M449.536 224.337L422.538 382.936C422.538 382.936 487.879 390.724 510.023 386.181C510.023 386.181 515.462 272.643 492.344 227.841L449.536 224.337Z" fill="white"/>
<path d="M361.869 154.615L355.146 147.672C351.135 143.479 345.683 137.989 340.271 132.474L332.262 124.427L325.266 117.405L320.32 112.447C319.723 111.85 319.243 111.383 318.932 111.059C318.796 110.984 318.646 110.939 318.492 110.926C318.338 110.912 318.182 110.931 318.036 110.981L319.866 109.138C319.816 109.284 319.797 109.44 319.811 109.594C319.824 109.748 319.87 109.898 319.944 110.033L321.346 111.422L326.33 116.341L333.365 123.311L341.465 131.279C347.007 136.666 352.524 142.091 356.729 146.088L363.712 152.772L361.869 154.615Z" fill="#2E353A"/>
<path d="M411.57 441.496C411.57 441.496 404.716 455.851 400.757 458.628C400.757 458.628 406.053 461.782 411.57 454.735C418.709 445.649 420.448 448.245 420.448 448.245C420.306 446.678 420.02 445.126 419.591 443.612C418.514 440.64 411.57 441.496 411.57 441.496Z" fill="#B97964"/>
<path d="M470.278 441.34C470.278 441.34 468.331 446.662 465.735 452.502C464.546 455.528 462.783 458.296 460.543 460.653C460.543 460.653 465.06 462.119 467.488 459.29C469.915 456.461 474.081 446.311 478.754 447.427C478.506 446.596 478.157 445.799 477.716 445.052C477.015 443.936 470.278 441.34 470.278 441.34Z" fill="#B97964"/>
<path d="M252.487 466L253.551 304.74H242.999L244.05 466H252.487Z" fill="#407BFF"/>
<path opacity="0.5" d="M244.05 465.999H252.5L253.344 337.147L253.551 305.064H242.999L243.206 337.147L244.05 465.999Z" fill="white"/>
<path opacity="0.2" d="M253.551 305.064L253.344 337.51H243.206L242.999 305.064H253.551Z" fill="black"/>
<path d="M334.456 466L324.98 304.74H314.427L326.019 466H334.456Z" fill="#407BFF"/>
<path opacity="0.5" d="M326.006 465.999H334.456L325.551 314.616L324.98 305.064H314.427L315.128 314.616L326.006 465.999Z" fill="white"/>
<path opacity="0.2" d="M325.551 314.149H315.128L314.427 305.064H324.98L325.551 314.149Z" fill="black"/>
<path d="M170.531 466L182.109 304.74H171.557L162.081 466H170.531Z" fill="#407BFF"/>
<path opacity="0.3" d="M170.531 465.999L181.409 314.616L182.109 305.064H171.557L170.986 314.616L162.081 465.999H170.531Z" fill="white"/>
<path opacity="0.2" d="M171.557 305.064H182.109L181.409 314.149H170.986L171.557 305.064Z" fill="black"/>
<path d="M163.198 299.808H333.339V306.959C333.339 307.703 333.044 308.416 332.518 308.941C331.992 309.467 331.279 309.762 330.536 309.762H166.001C165.258 309.762 164.544 309.467 164.019 308.941C163.493 308.416 163.198 307.703 163.198 306.959V299.808Z" fill="#407BFF"/>
<path opacity="0.4" d="M163.198 299.808H333.339V306.959C333.339 307.703 333.044 308.416 332.518 308.941C331.992 309.467 331.279 309.762 330.536 309.762H166.001C165.258 309.762 164.544 309.467 164.019 308.941C163.493 308.416 163.198 307.703 163.198 306.959V299.808Z" fill="white"/>
<path opacity="0.2" d="M333.339 299.756H163.198V304.74H333.339V299.756Z" fill="black"/>
<path d="M338.272 301.067H158.265C157.52 301.063 156.807 300.765 156.282 300.237C155.756 299.709 155.461 298.995 155.461 298.25C155.461 297.507 155.757 296.794 156.283 296.268C156.808 295.742 157.522 295.447 158.265 295.447H338.272C339.015 295.447 339.729 295.742 340.254 296.268C340.78 296.794 341.075 297.507 341.075 298.25C341.075 298.995 340.781 299.709 340.255 300.237C339.73 300.765 339.017 301.063 338.272 301.067Z" fill="#407BFF"/>
<path opacity="0.4" d="M338.272 301.067H158.265C157.52 301.063 156.807 300.765 156.282 300.237C155.756 299.709 155.461 298.995 155.461 298.25C155.461 297.507 155.757 296.794 156.283 296.268C156.808 295.742 157.522 295.447 158.265 295.447H338.272C339.015 295.447 339.729 295.742 340.254 296.268C340.78 296.794 341.075 297.507 341.075 298.25C341.075 298.995 340.781 299.709 340.255 300.237C339.73 300.765 339.017 301.063 338.272 301.067Z" fill="white"/>
<path d="M255.057 276.836L243.699 297.809" stroke="#2E353A" stroke-width="2" stroke-miterlimit="10"/>
<path d="M152.035 249.256C152.035 249.256 162.289 230.995 163.976 227.426C165.664 223.857 170.207 198.704 170.207 198.704C169.79 197.498 169.516 196.248 169.389 194.979C169.389 193.681 170.207 187.672 170.207 187.672C170.207 187.672 170.207 187.192 173.452 186.218C176.697 185.245 180.266 183.947 180.591 185.401C180.915 186.854 180.097 196.926 179.124 197.899C178.367 198.711 177.673 199.578 177.047 200.495C177.047 200.495 174.308 227.309 173.062 231.254C171.816 235.2 161.601 256.316 161.601 256.316L152.035 249.256Z" fill="#E4897B"/>
<path d="M200.45 271.423C200.45 271.423 225.761 283.221 229.421 284.688C233.082 286.154 244.167 286.66 244.167 286.66C245.372 286.162 246.631 285.805 247.918 285.596C249.216 285.596 255.252 285.986 255.252 285.986C255.252 285.986 255.732 285.986 256.9 289.152C258.068 292.319 259.496 295.823 258.12 296.226C256.744 296.628 246.581 296.407 245.556 295.486L244.53 294.564C244.53 294.564 230.187 297.563 226.176 296.537C222.166 295.512 193.999 286.531 193.999 286.531L200.45 271.423Z" fill="#E4897B"/>
<path d="M165.716 252.41C164.798 256.967 162.878 261.262 160.095 264.986C154.618 272.773 146.895 277.835 144.805 269.827C141.625 257.731 155.111 242.572 155.111 242.572L165.716 252.41Z" fill="#407BFF"/>
<path opacity="0.2" d="M165.716 252.41C164.798 256.967 162.878 261.262 160.095 264.986C159.478 264.379 159.002 263.643 158.701 262.831C158.401 262.019 158.283 261.151 158.356 260.288C159.109 254.876 165.716 252.41 165.716 252.41Z" fill="black"/>
<path d="M192.883 243.338C192.152 246.001 190.664 248.395 188.599 250.229C185.543 252.968 181.604 254.515 177.501 254.59C173.444 254.688 169.504 253.225 166.494 250.502C160.537 245.129 160.718 238.951 160.004 228.438C159.291 217.925 170.713 209.93 182.278 214.161C193.843 218.392 195.479 233.902 192.883 243.338Z" fill="#E4897B"/>
<path d="M178.67 207.438C178.67 207.438 186.756 204.479 192.428 209.191C198.101 213.902 197.789 225.245 192.428 230.605C192.428 230.605 193.895 228.659 189.677 223.947C185.458 219.236 178.67 207.438 178.67 207.438Z" fill="#2E353A"/>
<path opacity="0.2" d="M188.599 250.229C185.543 252.968 181.604 254.515 177.501 254.59C178.262 252.833 179.499 251.322 181.071 250.229C183.511 251.475 186.536 250.891 188.599 250.229Z" fill="black"/>
<path d="M190.676 422.197L189.3 430.802L188.041 438.745H176.528L177.527 428.582L178.475 418.848L190.676 422.197Z" fill="#E4897B"/>
<path d="M187.392 434.241L175.71 433.501C175.613 433.491 175.515 433.499 175.421 433.527C175.327 433.554 175.239 433.6 175.163 433.662C175.087 433.723 175.024 433.799 174.978 433.885C174.931 433.971 174.902 434.066 174.893 434.163L173.737 443.378C173.709 443.863 173.873 444.339 174.194 444.704C174.514 445.068 174.966 445.292 175.451 445.325C179.526 445.52 181.486 445.403 186.626 445.688C189.781 445.87 195.998 446.545 200.359 446.117C204.721 445.688 204.175 441.405 202.293 441.198C197.841 440.692 191.909 437.421 189.145 434.929C188.651 434.514 188.036 434.273 187.392 434.241Z" fill="#2E353A"/>
<path d="M190.975 436.24C190.036 436.157 189.109 435.975 188.21 435.695C188.166 435.682 188.126 435.657 188.096 435.623C188.066 435.588 188.047 435.545 188.041 435.5C188.036 435.453 188.042 435.406 188.061 435.363C188.079 435.32 188.108 435.282 188.145 435.253C188.495 435.046 191.572 433.216 192.818 433.787C192.957 433.856 193.078 433.958 193.168 434.085C193.259 434.212 193.317 434.359 193.337 434.514C193.399 434.744 193.397 434.987 193.331 435.215C193.265 435.444 193.136 435.651 192.961 435.812C192.375 436.196 191.667 436.349 190.975 436.24ZM192.61 434.28C191.948 433.969 190.17 434.734 188.911 435.422C190.741 435.902 192.117 435.928 192.636 435.487C192.744 435.376 192.822 435.239 192.863 435.089C192.904 434.939 192.906 434.781 192.87 434.63C192.859 434.555 192.83 434.483 192.785 434.422C192.739 434.361 192.679 434.312 192.61 434.28Z" fill="#407BFF"/>
<path d="M188.21 435.695C188.177 435.708 188.139 435.708 188.106 435.695C188.044 435.647 188.002 435.577 187.989 435.5C187.989 435.409 187.989 432.359 189.054 431.412C189.199 431.293 189.368 431.207 189.549 431.16C189.731 431.113 189.92 431.106 190.105 431.139C190.312 431.157 190.508 431.243 190.661 431.384C190.813 431.525 190.915 431.713 190.949 431.918C191.104 433.073 189.417 435.15 188.353 435.695C188.331 435.706 188.306 435.712 188.281 435.712C188.256 435.712 188.232 435.706 188.21 435.695ZM189.897 431.645C189.8 431.639 189.702 431.653 189.611 431.687C189.519 431.72 189.435 431.772 189.365 431.84C188.735 432.801 188.426 433.937 188.483 435.085C189.49 434.348 190.191 433.267 190.455 432.048C190.455 431.905 190.365 431.723 190.027 431.658L189.897 431.645Z" fill="#407BFF"/>
<path opacity="0.2" d="M190.676 422.197L189.3 430.802L177.527 428.582L178.475 418.848L190.676 422.197Z" fill="black"/>
<path d="M204.656 356.823C199.321 349.789 185.523 346.22 174.425 344.441L170.687 372.281C177.527 373.696 180.37 377.472 180.747 379.043C182.551 386.493 173.932 425.338 173.932 425.338L191.857 429.66C191.857 429.66 214.17 369.374 204.656 356.823Z" fill="#2E353A"/>
<path opacity="0.2" d="M204.656 356.823C199.321 349.789 185.523 346.22 174.425 344.441L170.687 372.281C177.527 373.696 180.37 377.472 180.747 379.043C182.551 386.493 173.932 425.338 173.932 425.338L191.857 429.66C191.857 429.66 214.17 369.374 204.656 356.823Z" fill="black"/>
<path d="M223.126 422.197L221.75 430.802L220.491 438.745H208.978L209.977 428.582L210.925 418.848L223.126 422.197Z" fill="#E4897B"/>
<path d="M219.842 434.241L208.16 433.501C208.063 433.491 207.965 433.499 207.871 433.527C207.777 433.554 207.689 433.6 207.613 433.662C207.537 433.723 207.474 433.799 207.428 433.885C207.381 433.971 207.352 434.066 207.342 434.163L206.187 443.378C206.159 443.863 206.323 444.339 206.644 444.704C206.964 445.068 207.416 445.292 207.901 445.325C211.976 445.52 213.936 445.403 219.076 445.688C222.231 445.87 228.448 446.545 232.809 446.117C237.171 445.688 236.625 441.405 234.743 441.198C230.291 440.692 224.359 437.421 221.595 434.929C221.101 434.514 220.486 434.273 219.842 434.241Z" fill="#2E353A"/>
<path d="M223.425 436.24C222.486 436.157 221.559 435.975 220.66 435.695C220.616 435.682 220.576 435.657 220.546 435.623C220.516 435.588 220.497 435.545 220.491 435.5C220.486 435.453 220.492 435.406 220.511 435.363C220.529 435.32 220.558 435.282 220.595 435.253C220.945 435.046 224.022 433.216 225.268 433.787C225.407 433.856 225.528 433.958 225.618 434.085C225.709 434.212 225.767 434.359 225.787 434.514C225.849 434.744 225.847 434.987 225.781 435.215C225.715 435.444 225.586 435.651 225.41 435.812C224.825 436.196 224.117 436.349 223.425 436.24ZM225.06 434.28C224.398 433.969 222.62 434.734 221.361 435.422C223.191 435.902 224.567 435.928 225.086 435.487C225.194 435.376 225.272 435.239 225.313 435.089C225.354 434.939 225.356 434.781 225.32 434.63C225.309 434.555 225.28 434.483 225.235 434.422C225.189 434.361 225.129 434.312 225.06 434.28Z" fill="#407BFF"/>
<path d="M220.66 435.695C220.626 435.708 220.589 435.708 220.556 435.695C220.494 435.647 220.452 435.577 220.439 435.5C220.439 435.409 220.439 432.359 221.504 431.412C221.649 431.293 221.818 431.207 221.999 431.16C222.181 431.113 222.37 431.106 222.555 431.139C222.762 431.157 222.958 431.243 223.111 431.384C223.263 431.525 223.365 431.713 223.399 431.918C223.554 433.073 221.867 435.15 220.803 435.695C220.781 435.706 220.756 435.712 220.731 435.712C220.706 435.712 220.682 435.706 220.66 435.695ZM222.347 431.645C222.25 431.639 222.152 431.653 222.061 431.687C221.969 431.72 221.885 431.772 221.815 431.84C221.185 432.801 220.876 433.937 220.932 435.085C221.939 434.348 222.641 433.267 222.905 432.048C222.905 431.905 222.815 431.723 222.477 431.658L222.347 431.645Z" fill="#407BFF"/>
<path opacity="0.2" d="M223.126 422.197L221.75 430.802L209.977 428.582L210.925 418.848L223.126 422.197Z" fill="black"/>
<path d="M166.741 248.776C166.741 254.953 166.014 260.82 162.211 263.571C167.471 268.061 173.345 271.776 179.656 274.603C186.406 269.814 183.29 265.856 183.29 265.856C177.385 262.624 179.228 255.057 181.071 250.281C181.071 250.281 179.617 247.932 171.336 247.906C167.663 247.841 166.741 248.776 166.741 248.776Z" fill="#E4897B"/>
<path d="M134.875 337.758C134.875 337.758 122.804 371.891 157.019 371.891C191.234 371.891 193.999 358.549 191.104 342.845L134.875 337.758Z" fill="#2E353A"/>
<path d="M191.104 342.702C191.104 342.702 227.578 344.234 237.105 356.784C246.633 369.335 224.307 429.66 224.307 429.66L206.382 425.338C206.382 425.338 216.234 384.208 212.521 378.887C208.809 373.566 188.638 373.241 161.38 371.814C134.122 370.386 191.104 342.702 191.104 342.702Z" fill="#2E353A"/>
<path d="M158.849 262.559L162.25 254.577C162.25 254.577 181.655 255.278 187.548 264.116C193.441 272.955 158.849 262.559 158.849 262.559Z" fill="#407BFF"/>
<path d="M198.425 274.707C199.009 284.688 198.425 305.194 191.104 342.845L134.875 337.758C135.238 329.802 147.141 302.533 144.61 266.634C144.516 265.362 144.674 264.085 145.075 262.874C145.476 261.663 146.112 260.544 146.947 259.579C147.781 258.615 148.797 257.824 149.938 257.253C151.078 256.682 152.32 256.342 153.592 256.251H153.917C156.681 256.147 173.542 261.131 181.46 262.325C184.511 262.883 187.47 263.623 189.988 264.337C192.3 264.971 194.356 266.311 195.868 268.17C197.381 270.029 198.275 272.315 198.425 274.707Z" fill="#407BFF"/>
<path opacity="0.2" d="M198.425 274.707C199.009 284.688 198.425 305.194 191.104 342.845L134.875 337.758C135.238 329.802 147.141 302.533 144.61 266.634C144.516 265.362 144.674 264.085 145.075 262.874C145.476 261.663 146.112 260.544 146.947 259.579C147.781 258.615 148.797 257.824 149.938 257.253C151.078 256.682 152.32 256.342 153.592 256.251H153.917C156.681 256.147 173.542 261.131 181.46 262.325C184.511 262.883 187.47 263.623 189.988 264.337C192.3 264.971 194.356 266.311 195.868 268.17C197.381 270.029 198.275 272.315 198.425 274.707Z" fill="black"/>
<path d="M189.988 264.337C183.81 263.039 183.122 281.054 187.613 286.245C192.104 291.437 216.052 295.33 216.052 295.33L220.491 279.107C220.491 279.107 200.8 266.673 189.988 264.337Z" fill="#407BFF"/>
<path d="M164.314 248.14C164.314 248.14 156.409 245.972 152.735 229.009C149.062 212.046 165.222 204.479 183.537 208.152C201.852 211.825 192.896 238.003 176.956 248.14C172.864 249.574 168.406 249.574 164.314 248.14Z" fill="#2E353A"/>
<path d="M184.316 234.369C184.755 236.473 185.981 238.33 187.743 239.561C189.988 241.04 191.727 238.782 191.637 235.875C191.533 233.279 190.248 229.321 187.743 229.035C185.237 228.749 183.693 231.618 184.316 234.369Z" fill="#E4897B"/>
<path d="M238.507 299.769V305.285C238.507 305.868 238.622 306.445 238.845 306.984C239.068 307.522 239.395 308.011 239.808 308.424C240.22 308.836 240.709 309.163 241.248 309.386C241.786 309.609 242.364 309.724 242.946 309.724H331.821C332.565 309.724 333.28 309.429 333.808 308.903C334.336 308.378 334.634 307.665 334.637 306.92V299.769H238.507Z" fill="#407BFF"/>
<path opacity="0.6" d="M238.507 299.769V305.285C238.507 305.868 238.622 306.445 238.845 306.984C239.068 307.522 239.395 308.011 239.808 308.424C240.22 308.836 240.709 309.163 241.248 309.386C241.786 309.609 242.364 309.724 242.946 309.724H331.821C332.565 309.724 333.28 309.429 333.808 308.903C334.336 308.378 334.634 307.665 334.637 306.92V299.769H238.507Z" fill="white"/>
<path opacity="0.2" d="M334.637 299.756H238.507V304.74H334.637V299.756Z" fill="black"/>
<path d="M339.401 295.447H236.119C235.374 295.447 234.66 295.742 234.132 296.267C233.604 296.793 233.306 297.506 233.302 298.25C233.302 298.997 233.599 299.714 234.127 300.242C234.656 300.77 235.372 301.067 236.119 301.067H339.557C339.95 301.067 340.34 300.985 340.699 300.825C341.059 300.665 341.381 300.431 341.644 300.138C341.907 299.846 342.106 299.501 342.227 299.126C342.348 298.752 342.389 298.356 342.347 297.965C342.249 297.258 341.895 296.611 341.352 296.147C340.809 295.683 340.115 295.434 339.401 295.447Z" fill="#407BFF"/>
<path opacity="0.6" d="M339.401 295.447H236.119C235.374 295.447 234.66 295.742 234.132 296.267C233.604 296.793 233.306 297.506 233.302 298.25C233.302 298.997 233.599 299.714 234.127 300.242C234.656 300.77 235.372 301.067 236.119 301.067H339.557C339.95 301.067 340.34 300.985 340.699 300.825C341.059 300.665 341.381 300.431 341.644 300.138C341.907 299.846 342.106 299.501 342.227 299.126C342.348 298.752 342.389 298.356 342.347 297.965C342.249 297.258 341.895 296.611 341.352 296.147C340.809 295.683 340.115 295.434 339.401 295.447Z" fill="white"/>
<path d="M162.523 466H170.635L172.219 397.953L172.686 377.745H160.485L160.952 397.953L162.523 466Z" fill="#407BFF"/>
<path opacity="0.4" d="M162.523 466H170.635L172.219 397.953L172.686 377.745H160.485L160.952 397.953L162.523 466Z" fill="white"/>
<path opacity="0.2" d="M172.686 377.745L172.219 398.511H160.952L160.485 377.745H172.686Z" fill="black"/>
<path d="M209.458 465.999L204.331 379.172H193.727L200.905 465.999H209.458Z" fill="#407BFF"/>
<path opacity="0.5" d="M200.892 466H209.458L204.915 389.036L204.331 379.043H193.727L194.544 389.036L200.892 466Z" fill="white"/>
<path opacity="0.2" d="M193.727 379.043L194.544 389.426H204.915L204.331 379.043H193.727Z" fill="black"/>
<path d="M132.253 465.999L139.431 379.172H128.827L123.712 465.999H132.253Z" fill="#407BFF"/>
<path opacity="0.5" d="M132.279 466L138.613 389.036L139.431 379.043H128.827L128.242 389.036L123.712 466H132.279Z" fill="white"/>
<path opacity="0.2" d="M139.431 379.043L138.613 389.426H128.242L128.827 379.043H139.431Z" fill="black"/>
<path d="M129.644 367.79H203.526C204.379 367.79 205.223 367.958 206.01 368.284C206.797 368.61 207.513 369.088 208.116 369.691C208.718 370.293 209.196 371.009 209.522 371.796C209.849 372.584 210.016 373.427 210.016 374.28V382.962H123.154V374.28C123.154 372.558 123.838 370.908 125.055 369.691C126.272 368.474 127.923 367.79 129.644 367.79Z" fill="#407BFF"/>
<path d="M157.229 284.296L150.799 285.176L163.538 378.17L169.968 377.289L157.229 284.296Z" fill="#407BFF"/>
<path d="M116.986 284.292L110.556 285.173L123.296 378.166L129.726 377.285L116.986 284.292Z" fill="#407BFF"/>
<g opacity="0.4">
<path opacity="0.4" d="M157.229 284.296L150.799 285.176L163.538 378.17L169.968 377.289L157.229 284.296Z" fill="white"/>
</g>
<g opacity="0.4">
<path opacity="0.4" d="M116.986 284.292L110.556 285.173L123.296 378.166L129.726 377.285L116.986 284.292Z" fill="white"/>
</g>
<path d="M211.561 375.383H121.597C120.156 375.383 118.988 376.551 118.988 377.991V380.354C118.988 381.794 120.156 382.962 121.597 382.962H211.561C213.002 382.962 214.17 381.794 214.17 380.354V377.991C214.17 376.551 213.002 375.383 211.561 375.383Z" fill="#407BFF"/>
<path opacity="0.6" d="M211.561 375.383H121.597C120.156 375.383 118.988 376.551 118.988 377.991V380.354C118.988 381.794 120.156 382.962 121.597 382.962H211.561C213.002 382.962 214.17 381.794 214.17 380.354V377.991C214.17 376.551 213.002 375.383 211.561 375.383Z" fill="white"/>
<path d="M166.209 315.824H108.461L103.84 279.795H161.588L166.209 315.824Z" fill="#407BFF"/>
<path opacity="0.6" d="M166.209 315.824H108.461L103.84 279.795H161.588L166.209 315.824Z" fill="white"/>
</svg>
