<svg width="130" height="130" viewBox="0 0 130 130" fill="none" xmlns="http://www.w3.org/2000/svg">
<path d="M92.5894 75.4102H103.281V120.72H92.5894V75.4102Z" fill="#EC5596"/>
<path d="M81.5522 75.4102H92.5896V120.72H81.5522V75.4102Z" fill="#F3EFEE"/>
<path d="M59.4824 75.4102L59.6348 120.738L70.4664 120.753L70.5172 75.4102H59.4824Z" fill="#F3EFEE"/>
<path d="M70.5176 75.4102L70.4668 120.859L81.5523 120.72V75.4102H70.5176Z" fill="#EC5596"/>
<path d="M59.4825 75.4102H48.4478V120.72L59.6349 120.605L59.4825 75.4102Z" fill="#EC5596"/>
<path d="M37.4106 75.4102H48.4479V120.72H37.4106V75.4102Z" fill="#F3EFEE"/>
<path d="M26.7188 75.4102H37.4107V120.72H26.7188V75.4102Z" fill="#EC5596"/>
<path d="M88.9358 7.57153H72.0249L72.0764 18.8399H88.9358L83.5225 13.2057L88.9358 7.57153Z" fill="#49C160"/>
<path d="M64.9161 22.2142V22.717C62.3593 45.373 57.497 55.1535 50.997 69.3799H21.229L25.0198 66.6072C43.7099 52.9293 57.6595 44.1263 64.9161 22.2142Z" fill="#EC5596"/>
<path d="M65 21.9756C67.5365 45.1623 72.4344 54.9986 79.0029 69.3799H50.9971C57.4971 55.1535 62.3594 45.373 64.9162 22.717C64.9441 22.4707 64.9721 22.2244 65 21.9756Z" fill="#F3EFEE"/>
<path d="M64.9998 21.9655C68.618 33.0129 73.9221 40.7418 80.6684 47.4246C87.4146 54.1074 95.6006 59.7442 104.98 66.6072L108.771 69.3799H79.0027C72.4342 54.9987 67.5363 45.1623 64.9998 21.9756C64.9719 22.2244 64.9439 22.4707 64.916 22.717V22.2143C64.9465 22.1305 64.9719 22.0492 64.9998 21.9655Z" fill="#EC5596"/>
<path d="M116.678 120.989H128.238V126.476H116.678V120.989Z" fill="#B0B5CA"/>
<path d="M1.76221 120.989H13.3226V126.476H1.76221V120.989Z" fill="#B0B5CA"/>
<path d="M65.0001 91.8582L72.9245 120.466H57.0757L65.0001 91.8582Z" fill="#3090FC"/>
<path d="M49.499 113.674L57.0756 120.466L65 91.8582L49.499 113.674Z" fill="#FB6771"/>
<path d="M65 91.8582L72.9244 120.466L80.7625 113.674L65 91.8582Z" fill="#FB6771"/>
<path d="M64.916 3.52417H78.698V15.1607H64.916V3.52417Z" fill="#50DD5A"/>
<path d="M26.7188 75.4102H34.3359V120.72H26.7188V75.4102Z" fill="#FF97C9"/>
<path d="M25.0198 66.6072L21.229 69.3799H28.8462L32.637 66.6072C44.1864 58.1549 53.9245 51.5633 61.3929 42.5905C62.8328 37.0553 64.0173 30.6823 64.9161 22.717V22.2142C57.6595 44.1263 43.7099 52.9293 25.0198 66.6072Z" fill="#FF97C9"/>
<path d="M21.229 69.3799V76.4359C21.8405 77.5606 22.7441 78.4995 23.8445 79.1537C24.9448 79.8078 26.2013 80.1531 27.4814 80.1531C28.7616 80.1531 30.0181 79.8078 31.1184 79.1537C32.2188 78.4995 33.1224 77.5606 33.7339 76.4359C34.5336 77.9299 35.8466 79.0842 37.4308 79.6859C38.2476 79.9957 39.114 80.1541 39.9876 80.1531C41.2692 80.1609 42.5286 79.8189 43.6301 79.1639C44.7317 78.5088 45.6336 77.5657 46.2388 76.4359C46.8508 77.56 47.7546 78.4982 48.8549 79.1519C49.9552 79.8056 51.2114 80.1506 52.4912 80.1506C53.7711 80.1506 55.0272 79.8056 56.1276 79.1519C57.2279 78.4982 58.1316 77.56 58.7436 76.4359C58.9682 76.8508 59.2327 77.2428 59.5333 77.6064C60.203 78.4042 61.0392 79.0456 61.9833 79.4855C62.9274 79.9255 63.9564 80.1534 64.9979 80.1532C66.0395 80.1529 67.0684 79.9246 68.0123 79.4841C68.9561 79.0437 69.7921 78.402 70.4614 77.6039C70.7612 77.2411 71.0248 76.85 71.2485 76.4359L71.2511 76.4385C71.7272 77.3133 72.3814 78.0786 73.1715 78.6851C73.9616 79.2915 74.8701 79.7256 75.8383 79.9594C76.8065 80.1931 77.813 80.2213 78.7927 80.0421C79.7725 79.863 80.7038 79.4804 81.5267 78.9191C82.4572 78.2829 83.2209 77.432 83.7534 76.4385H83.7559C84.5794 77.9583 85.9283 79.1261 87.5504 79.7233C89.1725 80.3205 90.9566 80.3064 92.569 79.6834C94.1509 79.0827 95.4621 77.9301 96.2608 76.4385L96.2659 76.441C96.8776 77.5651 97.781 78.5035 98.8812 79.1573C99.9813 79.8111 101.237 80.1562 102.517 80.1562C103.797 80.1562 105.053 79.8111 106.153 79.1573C107.253 78.5035 108.157 77.5651 108.768 76.441L108.771 76.4359V69.3799H21.229Z" fill="#EADF53"/>
<path d="M24.106 120.466H105.894V126.476H24.106V120.466Z" fill="#EADF53"/>
<path d="M28.8462 76.4359V69.3799H21.229V76.4359C21.84 77.5613 22.7436 78.5008 23.8444 79.155C24.9451 79.8093 26.2022 80.1542 27.4827 80.1531C28.8294 80.155 30.1492 79.776 31.2898 79.0598C30.2633 78.4097 29.4217 77.506 28.8462 76.4359Z" fill="#FFF6A4"/>
<path d="M24.106 120.466H31.7231V126.476H24.106V120.466Z" fill="#FFF6A4"/>
<path d="M64.916 3.52417H72.5332V15.1607H64.916V3.52417Z" fill="#D8FF33"/>
<path d="M128.238 119.465H123.522L110.299 70.2304C110.299 70.2256 110.296 70.2213 110.294 70.2164V69.3813C110.294 69.1418 110.238 68.9056 110.13 68.692C110.021 68.4784 109.864 68.2934 109.671 68.1519L105.879 65.3772C104.498 64.367 103.144 63.3808 101.817 62.4185C85.0861 50.2703 72.9981 41.493 66.4474 21.4921C66.4448 21.4842 66.4408 21.4776 66.4382 21.47V16.6854H70.553V18.8398C70.553 19.2438 70.7135 19.6313 70.9992 19.917C71.2849 20.2027 71.6724 20.3632 72.0765 20.3632H88.9358C89.2346 20.3633 89.5268 20.2756 89.776 20.111C90.0253 19.9463 90.2207 19.712 90.3378 19.4372C90.455 19.1624 90.4888 18.8593 90.435 18.5654C90.3812 18.2715 90.2422 18 90.0353 17.7845L85.6348 13.2056L90.0353 8.62639C90.2422 8.41098 90.3813 8.13947 90.4352 7.84565C90.489 7.55182 90.4553 7.24864 90.3383 6.97382C90.2212 6.699 90.0259 6.46466 89.7767 6.29995C89.5275 6.13524 89.2353 6.04744 88.9366 6.04746H80.221V3.5249C80.221 3.12086 80.0605 2.73337 79.7748 2.44767C79.4891 2.16197 79.1016 2.00146 78.6976 2.00146H64.9153C64.5113 2.00146 64.1238 2.16197 63.8381 2.44767C63.5524 2.73337 63.3919 3.12086 63.3919 3.5249V21.9712C56.8063 41.6327 44.7805 50.3681 28.1842 62.4185C26.8561 63.3833 25.5019 64.3696 24.1217 65.3772L20.3309 68.1512C20.1376 68.2926 19.9803 68.4776 19.8719 68.6913C19.7635 68.9049 19.707 69.141 19.707 69.3806V70.2157C19.707 70.2205 19.704 70.2248 19.7027 70.2296L6.47801 119.465H1.76221C1.35817 119.465 0.970674 119.625 0.684974 119.911C0.399274 120.197 0.23877 120.584 0.23877 120.988V126.475C0.23877 126.879 0.399274 127.266 0.684974 127.552C0.970674 127.838 1.35817 127.998 1.76221 127.998H13.3236C13.7276 127.998 14.1151 127.838 14.4008 127.552C14.6865 127.266 14.847 126.879 14.847 126.475V120.988C14.847 120.584 14.6865 120.197 14.4008 119.911C14.1151 119.625 13.7276 119.465 13.3236 119.465H9.63279L20.6737 78.3554C21.8076 79.8323 23.3974 80.8934 25.1962 81.3741V118.942H24.107C23.7029 118.942 23.3154 119.103 23.0297 119.389C22.744 119.674 22.5835 120.062 22.5835 120.466V126.475C22.5835 126.879 22.744 127.266 23.0297 127.552C23.3154 127.838 23.7029 127.998 24.107 127.998H105.893C106.297 127.998 106.685 127.838 106.97 127.552C107.256 127.266 107.417 126.879 107.417 126.475V120.466C107.417 120.062 107.256 119.674 106.97 119.389C106.685 119.103 106.297 118.942 105.893 118.942H104.804V81.3769C106.603 80.8942 108.192 79.8315 109.326 78.3536L120.367 119.464H116.677C116.273 119.464 115.885 119.625 115.599 119.91C115.314 120.196 115.153 120.583 115.153 120.988V126.474C115.153 126.878 115.314 127.266 115.599 127.551C115.885 127.837 116.273 127.998 116.677 127.998H128.238C128.642 127.998 129.03 127.837 129.315 127.551C129.601 127.266 129.761 126.878 129.761 126.474V120.988C129.761 120.584 129.601 120.197 129.315 119.911C129.03 119.625 128.642 119.465 128.238 119.465ZM80.221 15.1619V9.09357H85.3596L82.4237 12.1501C82.151 12.4338 81.9988 12.8121 81.9988 13.2056C81.9988 13.5991 82.151 13.9773 82.4237 14.2611L85.3596 17.3163H73.6004V16.6854H78.6976C79.1016 16.6854 79.4891 16.5249 79.7748 16.2392C80.0605 15.9535 80.221 15.566 80.221 15.1619ZM66.4387 5.04834H77.1741V13.6385H66.4387V5.04834ZM11.8001 122.512V124.952H3.28564V122.512H11.8001ZM100.026 64.8839C101.351 65.8462 102.702 66.8303 104.081 67.8361L104.109 67.8571H79.9818C79.8182 67.4996 79.6556 67.1448 79.4941 66.7925C74.5378 55.9738 70.6912 47.5748 68.1318 33.254C75.5182 47.083 86.6311 55.158 100.026 64.8839ZM65.0001 32.9889C67.645 48.1819 71.7124 57.122 76.6303 67.8571H53.3712C58.2878 57.122 62.3552 48.1819 65.0001 32.9889ZM25.9196 67.8361C27.2973 66.828 28.6489 65.844 29.9745 64.8839C43.3691 55.158 54.482 47.083 61.8684 33.254C59.309 47.5743 55.4624 55.9738 50.5061 66.7925C50.3446 67.1446 50.182 67.4995 50.0184 67.8571H25.8909L25.9196 67.8361ZM104.37 124.952H25.6304V121.989H104.37V124.952ZM28.2431 118.942V81.6414C30.3356 81.4766 32.2924 80.5408 33.7343 79.0155C34.3589 79.6768 35.0861 80.2328 35.888 80.6621V118.942H28.2431ZM38.9348 118.942V81.6123C39.284 81.654 39.6354 81.6753 39.987 81.676C41.1562 81.6854 42.3147 81.4539 43.3905 80.9959C44.4662 80.5379 45.4361 79.8633 46.2397 79.014C46.4555 79.242 46.6838 79.4578 46.9235 79.6605V118.942H38.9348ZM78.711 113.435L73.7497 117.736L68.7325 99.6231L78.711 113.435ZM72.0412 99.0005V79.7504C73.5816 81.0087 75.5129 81.6902 77.5019 81.6773C78.3579 81.6783 79.2095 81.5545 80.0298 81.3098V110.056L72.0412 99.0005ZM80.0298 116.325V118.942H77.0099L80.0298 116.325ZM70.9225 118.942H59.0777L65.0001 97.5634L70.9225 118.942ZM68.9943 94.7831L66.9783 91.993C66.7518 91.6795 66.4539 91.4246 66.1092 91.2493C65.7646 91.074 65.3831 90.9834 64.9964 90.9849C64.6098 90.9864 64.229 91.0801 63.8858 91.2582C63.5425 91.4362 63.2467 91.6935 63.0227 92.0087L61.0059 94.8471V80.7167C62.2398 81.3517 63.6084 81.6804 64.996 81.6752C66.3867 81.6806 67.7581 81.3505 68.994 80.7129L68.9943 94.7831ZM61.2154 99.8125L56.2627 117.691L51.5276 113.445L61.2154 99.8125ZM57.959 99.1348L49.9704 110.377V81.3098C50.7888 81.5532 51.6383 81.6763 52.4922 81.6752C54.4839 81.6881 56.4176 81.0049 57.959 79.7435V99.1348ZM53.0937 118.942H49.9706V116.142L53.0937 118.942ZM83.0767 118.942V79.6569C83.3144 79.4555 83.5409 79.2411 83.7551 79.0148C84.5588 79.8643 85.5288 80.5391 86.6048 80.9972C87.6807 81.4553 88.8395 81.6869 90.0089 81.6775C90.362 81.6768 90.7148 81.6553 91.0654 81.613V118.942H83.0767ZM94.1122 118.942V80.6601C94.9126 80.231 95.6384 79.6756 96.2618 79.0153C97.7041 80.5429 99.6626 81.4801 101.757 81.645V118.942H94.1122ZM107.248 76.0243C106.728 76.8477 106.002 77.5211 105.142 77.978C104.282 78.435 103.318 78.6596 102.345 78.6297C101.372 78.5997 100.423 78.3163 99.5931 77.8074C98.7629 77.2985 98.08 76.5817 97.6118 75.728C97.4853 75.487 97.2965 75.2844 97.0651 75.1411C96.8337 74.9978 96.5682 74.9191 96.2961 74.9132H96.2615C95.9951 74.9135 95.7333 74.9835 95.5023 75.1164C95.2713 75.2492 95.0791 75.4402 94.9448 75.6703C94.9369 75.6835 94.9296 75.6957 94.9224 75.7102C94.4427 76.5922 93.7344 77.3288 92.8718 77.8427C92.0093 78.3566 91.0244 78.6289 90.0203 78.631C89.0163 78.6331 88.0302 78.3649 87.1656 77.8545C86.3009 77.3442 85.5896 76.6105 85.1062 75.7305C84.9781 75.4857 84.786 75.2804 84.5502 75.1364C84.3145 74.9925 84.044 74.9153 83.7678 74.9132C83.4919 74.9135 83.2211 74.9876 82.9834 75.1276C82.7457 75.2677 82.5498 75.4688 82.4158 75.7099C81.9349 76.594 81.2244 77.3319 80.3592 77.8459C79.494 78.3599 78.5061 78.631 77.4998 78.6305C76.4934 78.6301 75.5058 78.3582 74.641 77.8434C73.7763 77.3286 73.0664 76.5901 72.5863 75.7056C72.4547 75.4642 72.2602 75.2629 72.0234 75.1231C71.7866 74.9833 71.5164 74.9102 71.2414 74.9115C70.9665 74.9129 70.697 74.9886 70.4616 75.1307C70.2262 75.2728 70.0336 75.4759 69.9043 75.7186C69.4222 76.6004 68.7114 77.336 67.8467 77.8481C66.982 78.3602 65.9953 78.6299 64.9903 78.6288C63.9854 78.6277 62.9992 78.3559 62.1357 77.8419C61.2721 77.3279 60.5629 76.5907 60.0827 75.7079C59.9518 75.4671 59.7584 75.266 59.5228 75.1259C59.2872 74.9858 59.0182 74.9118 58.7441 74.9118C58.47 74.9118 58.201 74.9858 57.9654 75.1259C57.7298 75.266 57.5364 75.4671 57.4055 75.7079C56.9252 76.5911 56.2157 77.3285 55.3517 77.8426C54.4876 78.3567 53.5011 78.6284 52.4957 78.6291C51.4903 78.6298 50.5033 78.3596 49.6386 77.8467C48.7738 77.3339 48.0632 76.5975 47.5816 75.715C47.4513 75.4725 47.2577 75.2698 47.0214 75.1285C46.7851 74.9872 46.5149 74.9126 46.2396 74.9126C45.9643 74.9126 45.6941 74.9872 45.4578 75.1285C45.2215 75.2698 45.0279 75.4725 44.8976 75.715C44.4165 76.597 43.7067 77.3332 42.8428 77.8462C41.9789 78.3591 40.9928 78.63 39.9881 78.6302C38.9834 78.6304 37.9972 78.36 37.1331 77.8474C36.269 77.3348 35.559 76.5989 35.0775 75.7171C34.949 75.4771 34.7586 75.276 34.5261 75.1345C34.2935 74.9931 34.0273 74.9165 33.7552 74.9128C33.483 74.9091 33.2149 74.9784 32.9786 75.1134C32.7423 75.2485 32.5464 75.4444 32.4115 75.6807C32.4062 75.6901 32.4008 75.6995 32.396 75.7089C31.9301 76.5654 31.2484 77.2852 30.4185 77.797C29.5887 78.3088 28.6394 78.5949 27.665 78.6268C26.6905 78.6587 25.7246 78.4354 24.863 77.979C24.0015 77.5226 23.2741 76.8489 22.7531 76.0248V70.904H107.248V76.0243ZM126.715 124.952H118.2V122.512H126.715V124.952Z" fill="#284268"/>
</svg>
